M48
METRIC,LZ,000.000
;FILE_FORMAT=3:3
;TYPE=PLATED
;Layer: PTH_Through
;EasyEDA v6.5.22, 2022-11-21 05:39:22
;79285abd2fff4639a077ca8fd26d3c4e,5e732c2b7d5540c8836deda47cd93de7,10
;Gerber Generator version 0.2
;Holesize 1 = 0.915 mm
T01C0.915
;Holesize 2 = 1.101 mm
T02C1.101
;Holesize 3 = 1.200 mm
T03C1.200
;Holesize 4 = 2.501 mm
T04C2.501
%
G05
G90
T01
X113284Y053340
X110490Y050800
X108458Y048387
X065786Y073279
X065786Y070739
X065786Y068199
X065786Y065659
X065786Y063119
X065786Y060579
X065786Y058039
X081026Y073279
X081026Y070739
X081026Y065659
X081026Y063119
X081026Y060579
X081026Y058039
X054356Y054610
X047625Y067437
X109347Y073025
X106553Y070866
X109728Y060833
X044450Y051689
X106045Y038227
T02
X114427Y-042478
X111887Y-042478
X109347Y-042478
X114554Y-014284
X112014Y-014284
X109474Y-014284
X114554Y013275
X112014Y013275
X109474Y013275
X114681Y041596
X112141Y041596
X109601Y041596
X089154Y-042478
X086614Y-042478
X084074Y-042478
X088900Y-014538
X086360Y-014538
X083820Y-014538
X089027Y013275
X086487Y013275
X083947Y013275
X088773Y041342
X086233Y041342
X083693Y041342
X037338Y041342
X034798Y041342
X032258Y041342
X037338Y013275
X034798Y013275
X032258Y013275
X037338Y-014538
X034798Y-014538
X032258Y-014538
X037338Y-042605
X034798Y-042605
X032258Y-042605
X062738Y041469
X060198Y041469
X057658Y041469
X062611Y013402
X060071Y013402
X057531Y013402
X062738Y-014284
X060198Y-014284
X057658Y-014284
X062738Y-042351
X060198Y-042351
X057658Y-042351
T03
X065786Y073279
X065786Y070739
X065786Y068199
X065786Y065659
X065786Y063119
X065786Y060579
X065786Y058039
X081026Y058039
X081026Y060579
X081026Y063119
X081026Y065659
X081026Y068199
X081026Y070739
X081026Y073279
T04
X106287Y-049978
X117487Y-049978
X106414Y-021784
X117614Y-021784
X106414Y005775
X117614Y005775
X106541Y034096
X117741Y034096
X081014Y-049978
X092214Y-049978
X080760Y-022038
X091960Y-022038
X080887Y005775
X092087Y005775
X080633Y033842
X091833Y033842
X029198Y033842
X040398Y033842
X029198Y005775
X040398Y005775
X029198Y-022038
X040398Y-022038
X029198Y-050105
X040398Y-050105
X054598Y033969
X065798Y033969
X054471Y005902
X065671Y005902
X054598Y-021784
X065798Y-021784
X054598Y-049851
X065798Y-049851
M30
