G04 Layer: TopSilkscreenLayer*
G04 EasyEDA v6.5.22, 2022-11-21 05:39:22*
G04 79285abd2fff4639a077ca8fd26d3c4e,5e732c2b7d5540c8836deda47cd93de7,10*
G04 Gerber Generator version 0.2*
G04 Scale: 100 percent, Rotated: No, Reflected: No *
G04 Dimensions in millimeters *
G04 leading zeros omitted , absolute positions ,4 integer and 5 decimal *
%FSLAX45Y45*%
%MOMM*%

%ADD10C,0.2032*%
%ADD11C,0.1524*%
%ADD12C,0.1270*%
%ADD13C,0.2540*%
%ADD14C,0.3000*%
%ADD15C,0.0103*%

%LPD*%
D10*
X2933700Y2440178D02*
G01*
X2933700Y2246376D01*
X2933700Y2338578D02*
G01*
X2961386Y2366263D01*
X2979927Y2375662D01*
X3007613Y2375662D01*
X3026156Y2366263D01*
X3035300Y2338578D01*
X3035300Y2246376D01*
X3123945Y2440178D02*
G01*
X3123945Y2283205D01*
X3133090Y2255520D01*
X3151631Y2246376D01*
X3170174Y2246376D01*
X3096259Y2375662D02*
G01*
X3161029Y2375662D01*
X3258820Y2440178D02*
G01*
X3258820Y2283205D01*
X3267963Y2255520D01*
X3286506Y2246376D01*
X3305047Y2246376D01*
X3231134Y2375662D02*
G01*
X3295650Y2375662D01*
X3366008Y2375662D02*
G01*
X3366008Y2181605D01*
X3366008Y2347976D02*
G01*
X3384550Y2366263D01*
X3402838Y2375662D01*
X3430524Y2375662D01*
X3449065Y2366263D01*
X3467608Y2347976D01*
X3476752Y2320289D01*
X3476752Y2301747D01*
X3467608Y2274062D01*
X3449065Y2255520D01*
X3430524Y2246376D01*
X3402838Y2246376D01*
X3384550Y2255520D01*
X3366008Y2274062D01*
X3639311Y2347976D02*
G01*
X3630168Y2366263D01*
X3602481Y2375662D01*
X3574795Y2375662D01*
X3547109Y2366263D01*
X3537711Y2347976D01*
X3547109Y2329434D01*
X3565397Y2320289D01*
X3611625Y2310892D01*
X3630168Y2301747D01*
X3639311Y2283205D01*
X3639311Y2274062D01*
X3630168Y2255520D01*
X3602481Y2246376D01*
X3574795Y2246376D01*
X3547109Y2255520D01*
X3537711Y2274062D01*
X3709670Y2357120D02*
G01*
X3700272Y2347976D01*
X3709670Y2338578D01*
X3718813Y2347976D01*
X3709670Y2357120D01*
X3709670Y2292350D02*
G01*
X3700272Y2283205D01*
X3709670Y2274062D01*
X3718813Y2283205D01*
X3709670Y2292350D01*
X3945890Y2477262D02*
G01*
X3779774Y2181605D01*
X4173220Y2477262D02*
G01*
X4006850Y2181605D01*
X4234179Y2440178D02*
G01*
X4234179Y2246376D01*
X4234179Y2347976D02*
G01*
X4252722Y2366263D01*
X4271009Y2375662D01*
X4298950Y2375662D01*
X4317238Y2366263D01*
X4335779Y2347976D01*
X4344924Y2320289D01*
X4344924Y2301747D01*
X4335779Y2274062D01*
X4317238Y2255520D01*
X4298950Y2246376D01*
X4271009Y2246376D01*
X4252722Y2255520D01*
X4234179Y2274062D01*
X4405884Y2320289D02*
G01*
X4516881Y2320289D01*
X4516881Y2338578D01*
X4507484Y2357120D01*
X4498340Y2366263D01*
X4479797Y2375662D01*
X4452111Y2375662D01*
X4433570Y2366263D01*
X4415281Y2347976D01*
X4405884Y2320289D01*
X4405884Y2301747D01*
X4415281Y2274062D01*
X4433570Y2255520D01*
X4452111Y2246376D01*
X4479797Y2246376D01*
X4498340Y2255520D01*
X4516881Y2274062D01*
X4577841Y2375662D02*
G01*
X4577841Y2246376D01*
X4577841Y2320289D02*
G01*
X4586986Y2347976D01*
X4605527Y2366263D01*
X4624070Y2375662D01*
X4651756Y2375662D01*
X4712715Y2375662D02*
G01*
X4712715Y2246376D01*
X4712715Y2320289D02*
G01*
X4721859Y2347976D01*
X4740402Y2366263D01*
X4758690Y2375662D01*
X4786629Y2375662D01*
X4847590Y2375662D02*
G01*
X4847590Y2283205D01*
X4856734Y2255520D01*
X4875275Y2246376D01*
X4902961Y2246376D01*
X4921250Y2255520D01*
X4949190Y2283205D01*
X4949190Y2375662D02*
G01*
X4949190Y2246376D01*
X5010150Y2329434D02*
G01*
X5176265Y2329434D01*
X5347970Y2375662D02*
G01*
X5347970Y2227834D01*
X5338825Y2200147D01*
X5329681Y2190750D01*
X5311140Y2181605D01*
X5283454Y2181605D01*
X5264911Y2190750D01*
X5347970Y2347976D02*
G01*
X5329681Y2366263D01*
X5311140Y2375662D01*
X5283454Y2375662D01*
X5264911Y2366263D01*
X5246370Y2347976D01*
X5237225Y2320289D01*
X5237225Y2301747D01*
X5246370Y2274062D01*
X5264911Y2255520D01*
X5283454Y2246376D01*
X5311140Y2246376D01*
X5329681Y2255520D01*
X5347970Y2274062D01*
X5418327Y2292350D02*
G01*
X5408929Y2283205D01*
X5418327Y2274062D01*
X5427472Y2283205D01*
X5418327Y2292350D01*
X5599429Y2375662D02*
G01*
X5599429Y2227834D01*
X5590031Y2200147D01*
X5580888Y2190750D01*
X5562345Y2181605D01*
X5534659Y2181605D01*
X5516118Y2190750D01*
X5599429Y2347976D02*
G01*
X5580888Y2366263D01*
X5562345Y2375662D01*
X5534659Y2375662D01*
X5516118Y2366263D01*
X5497829Y2347976D01*
X5488431Y2320289D01*
X5488431Y2301747D01*
X5497829Y2274062D01*
X5516118Y2255520D01*
X5534659Y2246376D01*
X5562345Y2246376D01*
X5580888Y2255520D01*
X5599429Y2274062D01*
X5660390Y2440178D02*
G01*
X5669534Y2431034D01*
X5678677Y2440178D01*
X5669534Y2449576D01*
X5660390Y2440178D01*
X5669534Y2375662D02*
G01*
X5669534Y2246376D01*
X5767324Y2440178D02*
G01*
X5767324Y2283205D01*
X5776722Y2255520D01*
X5795009Y2246376D01*
X5813552Y2246376D01*
X5739638Y2375662D02*
G01*
X5804408Y2375662D01*
X5874511Y2440178D02*
G01*
X5874511Y2246376D01*
X5874511Y2338578D02*
G01*
X5902197Y2366263D01*
X5920740Y2375662D01*
X5948425Y2375662D01*
X5966968Y2366263D01*
X5976111Y2338578D01*
X5976111Y2246376D01*
X6037072Y2375662D02*
G01*
X6037072Y2283205D01*
X6046470Y2255520D01*
X6064758Y2246376D01*
X6092443Y2246376D01*
X6110986Y2255520D01*
X6138672Y2283205D01*
X6138672Y2375662D02*
G01*
X6138672Y2246376D01*
X6199631Y2440178D02*
G01*
X6199631Y2246376D01*
X6199631Y2347976D02*
G01*
X6218174Y2366263D01*
X6236715Y2375662D01*
X6264402Y2375662D01*
X6282690Y2366263D01*
X6301231Y2347976D01*
X6310629Y2320289D01*
X6310629Y2301747D01*
X6301231Y2274062D01*
X6282690Y2255520D01*
X6264402Y2246376D01*
X6236715Y2246376D01*
X6218174Y2255520D01*
X6199631Y2274062D01*
X6380734Y2292350D02*
G01*
X6371590Y2283205D01*
X6380734Y2274062D01*
X6389877Y2283205D01*
X6380734Y2292350D01*
X6450838Y2440178D02*
G01*
X6460236Y2431034D01*
X6469379Y2440178D01*
X6460236Y2449576D01*
X6450838Y2440178D01*
X6460236Y2375662D02*
G01*
X6460236Y2246376D01*
X6576568Y2375662D02*
G01*
X6558025Y2366263D01*
X6539484Y2347976D01*
X6530340Y2320289D01*
X6530340Y2301747D01*
X6539484Y2274062D01*
X6558025Y2255520D01*
X6576568Y2246376D01*
X6604254Y2246376D01*
X6622795Y2255520D01*
X6641084Y2274062D01*
X6650481Y2301747D01*
X6650481Y2320289D01*
X6641084Y2347976D01*
X6622795Y2366263D01*
X6604254Y2375662D01*
X6576568Y2375662D01*
X6877558Y2477262D02*
G01*
X6711441Y2181605D01*
X6938518Y2440178D02*
G01*
X6938518Y2246376D01*
X6938518Y2440178D02*
G01*
X7012431Y2246376D01*
X7086345Y2440178D02*
G01*
X7012431Y2246376D01*
X7086345Y2440178D02*
G01*
X7086345Y2246376D01*
X7258050Y2375662D02*
G01*
X7258050Y2246376D01*
X7258050Y2347976D02*
G01*
X7239761Y2366263D01*
X7221220Y2375662D01*
X7193534Y2375662D01*
X7174991Y2366263D01*
X7156450Y2347976D01*
X7147306Y2320289D01*
X7147306Y2301747D01*
X7156450Y2274062D01*
X7174991Y2255520D01*
X7193534Y2246376D01*
X7221220Y2246376D01*
X7239761Y2255520D01*
X7258050Y2274062D01*
X7319009Y2440178D02*
G01*
X7319009Y2246376D01*
X7411465Y2375662D02*
G01*
X7319009Y2283205D01*
X7356093Y2320289D02*
G01*
X7420609Y2246376D01*
X7481570Y2320289D02*
G01*
X7592568Y2320289D01*
X7592568Y2338578D01*
X7583170Y2357120D01*
X7574025Y2366263D01*
X7555484Y2375662D01*
X7527797Y2375662D01*
X7509509Y2366263D01*
X7490968Y2347976D01*
X7481570Y2320289D01*
X7481570Y2301747D01*
X7490968Y2274062D01*
X7509509Y2255520D01*
X7527797Y2246376D01*
X7555484Y2246376D01*
X7574025Y2255520D01*
X7592568Y2274062D01*
X7653527Y2329434D02*
G01*
X7819643Y2329434D01*
X7880604Y2440178D02*
G01*
X7880604Y2246376D01*
X7880604Y2440178D02*
G01*
X7963915Y2440178D01*
X7991602Y2431034D01*
X8000745Y2421889D01*
X8009890Y2403347D01*
X8009890Y2375662D01*
X8000745Y2357120D01*
X7991602Y2347976D01*
X7963915Y2338578D01*
X7880604Y2338578D01*
X8070850Y2440178D02*
G01*
X8070850Y2246376D01*
X8242808Y2375662D02*
G01*
X8242808Y2246376D01*
X8242808Y2347976D02*
G01*
X8224265Y2366263D01*
X8205724Y2375662D01*
X8178038Y2375662D01*
X8159750Y2366263D01*
X8141208Y2347976D01*
X8131809Y2320289D01*
X8131809Y2301747D01*
X8141208Y2274062D01*
X8159750Y2255520D01*
X8178038Y2246376D01*
X8205724Y2246376D01*
X8224265Y2255520D01*
X8242808Y2274062D01*
X8312911Y2375662D02*
G01*
X8368284Y2246376D01*
X8423909Y2375662D02*
G01*
X8368284Y2246376D01*
X8349995Y2209292D01*
X8331454Y2190750D01*
X8312911Y2181605D01*
X8303768Y2181605D01*
X8650986Y2477262D02*
G01*
X8484870Y2181605D01*
X2971800Y4963668D02*
G01*
X2971800Y4677155D01*
X2971800Y4963668D02*
G01*
X3080765Y4677155D01*
X3189986Y4963668D02*
G01*
X3080765Y4677155D01*
X3189986Y4963668D02*
G01*
X3189986Y4677155D01*
X3279902Y4963668D02*
G01*
X3293618Y4949952D01*
X3307334Y4963668D01*
X3293618Y4977384D01*
X3279902Y4963668D01*
X3293618Y4868163D02*
G01*
X3293618Y4677155D01*
X3560825Y4963668D02*
G01*
X3560825Y4677155D01*
X3560825Y4827270D02*
G01*
X3533647Y4854447D01*
X3506470Y4868163D01*
X3465322Y4868163D01*
X3438143Y4854447D01*
X3410965Y4827270D01*
X3397250Y4786376D01*
X3397250Y4759197D01*
X3410965Y4718050D01*
X3438143Y4690871D01*
X3465322Y4677155D01*
X3506470Y4677155D01*
X3533647Y4690871D01*
X3560825Y4718050D01*
X3650995Y4963668D02*
G01*
X3664458Y4949952D01*
X3678174Y4963668D01*
X3664458Y4977384D01*
X3650995Y4963668D01*
X3664458Y4868163D02*
G01*
X3664458Y4677155D01*
X3768090Y4800092D02*
G01*
X4013708Y4800092D01*
X4103624Y4963668D02*
G01*
X4103624Y4759197D01*
X4117340Y4718050D01*
X4144518Y4690871D01*
X4185411Y4677155D01*
X4212590Y4677155D01*
X4253738Y4690871D01*
X4280915Y4718050D01*
X4294631Y4759197D01*
X4294631Y4963668D01*
X4575556Y4922773D02*
G01*
X4548124Y4949952D01*
X4507229Y4963668D01*
X4452620Y4963668D01*
X4411725Y4949952D01*
X4384547Y4922773D01*
X4384547Y4895342D01*
X4398263Y4868163D01*
X4411725Y4854447D01*
X4439158Y4840986D01*
X4520945Y4813554D01*
X4548124Y4800092D01*
X4561840Y4786376D01*
X4575556Y4759197D01*
X4575556Y4718050D01*
X4548124Y4690871D01*
X4507229Y4677155D01*
X4452620Y4677155D01*
X4411725Y4690871D01*
X4384547Y4718050D01*
X4665472Y4963668D02*
G01*
X4665472Y4677155D01*
X4665472Y4963668D02*
G01*
X4788154Y4963668D01*
X4829047Y4949952D01*
X4842763Y4936236D01*
X4856225Y4909057D01*
X4856225Y4881879D01*
X4842763Y4854447D01*
X4829047Y4840986D01*
X4788154Y4827270D01*
X4665472Y4827270D02*
G01*
X4788154Y4827270D01*
X4829047Y4813554D01*
X4842763Y4800092D01*
X4856225Y4772660D01*
X4856225Y4731765D01*
X4842763Y4704587D01*
X4829047Y4690871D01*
X4788154Y4677155D01*
X4665472Y4677155D01*
X5360924Y4895342D02*
G01*
X5347208Y4922773D01*
X5320029Y4949952D01*
X5292597Y4963668D01*
X5238241Y4963668D01*
X5210809Y4949952D01*
X5183631Y4922773D01*
X5169915Y4895342D01*
X5156454Y4854447D01*
X5156454Y4786376D01*
X5169915Y4745481D01*
X5183631Y4718050D01*
X5210809Y4690871D01*
X5238241Y4677155D01*
X5292597Y4677155D01*
X5320029Y4690871D01*
X5347208Y4718050D01*
X5360924Y4745481D01*
X5519165Y4868163D02*
G01*
X5491734Y4854447D01*
X5464556Y4827270D01*
X5450840Y4786376D01*
X5450840Y4759197D01*
X5464556Y4718050D01*
X5491734Y4690871D01*
X5519165Y4677155D01*
X5560059Y4677155D01*
X5587238Y4690871D01*
X5614415Y4718050D01*
X5628131Y4759197D01*
X5628131Y4786376D01*
X5614415Y4827270D01*
X5587238Y4854447D01*
X5560059Y4868163D01*
X5519165Y4868163D01*
X5718047Y4868163D02*
G01*
X5718047Y4677155D01*
X5718047Y4813554D02*
G01*
X5758941Y4854447D01*
X5786374Y4868163D01*
X5827268Y4868163D01*
X5854445Y4854447D01*
X5868161Y4813554D01*
X5868161Y4677155D01*
X5998972Y4963668D02*
G01*
X5998972Y4731765D01*
X6012688Y4690871D01*
X6039865Y4677155D01*
X6067297Y4677155D01*
X5958077Y4868163D02*
G01*
X6053581Y4868163D01*
X6157213Y4868163D02*
G01*
X6157213Y4677155D01*
X6157213Y4786376D02*
G01*
X6170929Y4827270D01*
X6198108Y4854447D01*
X6225540Y4868163D01*
X6266434Y4868163D01*
X6424422Y4868163D02*
G01*
X6397243Y4854447D01*
X6370065Y4827270D01*
X6356350Y4786376D01*
X6356350Y4759197D01*
X6370065Y4718050D01*
X6397243Y4690871D01*
X6424422Y4677155D01*
X6465315Y4677155D01*
X6492747Y4690871D01*
X6519925Y4718050D01*
X6533641Y4759197D01*
X6533641Y4786376D01*
X6519925Y4827270D01*
X6492747Y4854447D01*
X6465315Y4868163D01*
X6424422Y4868163D01*
X6623558Y4963668D02*
G01*
X6623558Y4677155D01*
X6713727Y4963668D02*
G01*
X6713727Y4677155D01*
X6803643Y4786376D02*
G01*
X6967220Y4786376D01*
X6967220Y4813554D01*
X6953504Y4840986D01*
X6940041Y4854447D01*
X6912609Y4868163D01*
X6871715Y4868163D01*
X6844538Y4854447D01*
X6817359Y4827270D01*
X6803643Y4786376D01*
X6803643Y4759197D01*
X6817359Y4718050D01*
X6844538Y4690871D01*
X6871715Y4677155D01*
X6912609Y4677155D01*
X6940041Y4690871D01*
X6967220Y4718050D01*
X7057136Y4868163D02*
G01*
X7057136Y4677155D01*
X7057136Y4786376D02*
G01*
X7070852Y4827270D01*
X7098029Y4854447D01*
X7125461Y4868163D01*
X7166356Y4868163D01*
X2933700Y1957578D02*
G01*
X2933700Y1763776D01*
X2933700Y1855978D02*
G01*
X2961386Y1883663D01*
X2979927Y1893062D01*
X3007613Y1893062D01*
X3026156Y1883663D01*
X3035300Y1855978D01*
X3035300Y1763776D01*
X3123945Y1957578D02*
G01*
X3123945Y1800605D01*
X3133090Y1772920D01*
X3151631Y1763776D01*
X3170174Y1763776D01*
X3096259Y1893062D02*
G01*
X3161029Y1893062D01*
X3258820Y1957578D02*
G01*
X3258820Y1800605D01*
X3267963Y1772920D01*
X3286506Y1763776D01*
X3305047Y1763776D01*
X3231134Y1893062D02*
G01*
X3295650Y1893062D01*
X3366008Y1893062D02*
G01*
X3366008Y1699005D01*
X3366008Y1865376D02*
G01*
X3384550Y1883663D01*
X3402838Y1893062D01*
X3430524Y1893062D01*
X3449065Y1883663D01*
X3467608Y1865376D01*
X3476752Y1837689D01*
X3476752Y1819147D01*
X3467608Y1791462D01*
X3449065Y1772920D01*
X3430524Y1763776D01*
X3402838Y1763776D01*
X3384550Y1772920D01*
X3366008Y1791462D01*
X3639311Y1865376D02*
G01*
X3630168Y1883663D01*
X3602481Y1893062D01*
X3574795Y1893062D01*
X3547109Y1883663D01*
X3537711Y1865376D01*
X3547109Y1846834D01*
X3565397Y1837689D01*
X3611625Y1828292D01*
X3630168Y1819147D01*
X3639311Y1800605D01*
X3639311Y1791462D01*
X3630168Y1772920D01*
X3602481Y1763776D01*
X3574795Y1763776D01*
X3547109Y1772920D01*
X3537711Y1791462D01*
X3709670Y1874520D02*
G01*
X3700272Y1865376D01*
X3709670Y1855978D01*
X3718813Y1865376D01*
X3709670Y1874520D01*
X3709670Y1809750D02*
G01*
X3700272Y1800605D01*
X3709670Y1791462D01*
X3718813Y1800605D01*
X3709670Y1809750D01*
X3945890Y1994662D02*
G01*
X3779774Y1699005D01*
X4173220Y1994662D02*
G01*
X4006850Y1699005D01*
X4344924Y1893062D02*
G01*
X4344924Y1745234D01*
X4335779Y1717547D01*
X4326636Y1708150D01*
X4308093Y1699005D01*
X4280408Y1699005D01*
X4261865Y1708150D01*
X4344924Y1865376D02*
G01*
X4326636Y1883663D01*
X4308093Y1893062D01*
X4280408Y1893062D01*
X4261865Y1883663D01*
X4243324Y1865376D01*
X4234179Y1837689D01*
X4234179Y1819147D01*
X4243324Y1791462D01*
X4261865Y1772920D01*
X4280408Y1763776D01*
X4308093Y1763776D01*
X4326636Y1772920D01*
X4344924Y1791462D01*
X4405884Y1957578D02*
G01*
X4415281Y1948434D01*
X4424425Y1957578D01*
X4415281Y1966976D01*
X4405884Y1957578D01*
X4415281Y1893062D02*
G01*
X4415281Y1763776D01*
X4513072Y1957578D02*
G01*
X4513072Y1800605D01*
X4522470Y1772920D01*
X4540758Y1763776D01*
X4559300Y1763776D01*
X4485386Y1893062D02*
G01*
X4550156Y1893062D01*
X4620259Y1957578D02*
G01*
X4620259Y1763776D01*
X4620259Y1855978D02*
G01*
X4647945Y1883663D01*
X4666488Y1893062D01*
X4694174Y1893062D01*
X4712715Y1883663D01*
X4721859Y1855978D01*
X4721859Y1763776D01*
X4782820Y1893062D02*
G01*
X4782820Y1800605D01*
X4791963Y1772920D01*
X4810506Y1763776D01*
X4838191Y1763776D01*
X4856734Y1772920D01*
X4884420Y1800605D01*
X4884420Y1893062D02*
G01*
X4884420Y1763776D01*
X4945379Y1957578D02*
G01*
X4945379Y1763776D01*
X4945379Y1865376D02*
G01*
X4963922Y1883663D01*
X4982209Y1893062D01*
X5010150Y1893062D01*
X5028438Y1883663D01*
X5046979Y1865376D01*
X5056124Y1837689D01*
X5056124Y1819147D01*
X5046979Y1791462D01*
X5028438Y1772920D01*
X5010150Y1763776D01*
X4982209Y1763776D01*
X4963922Y1772920D01*
X4945379Y1791462D01*
X5126481Y1809750D02*
G01*
X5117084Y1800605D01*
X5126481Y1791462D01*
X5135625Y1800605D01*
X5126481Y1809750D01*
X5307329Y1865376D02*
G01*
X5289041Y1883663D01*
X5270500Y1893062D01*
X5242813Y1893062D01*
X5224272Y1883663D01*
X5205729Y1865376D01*
X5196586Y1837689D01*
X5196586Y1819147D01*
X5205729Y1791462D01*
X5224272Y1772920D01*
X5242813Y1763776D01*
X5270500Y1763776D01*
X5289041Y1772920D01*
X5307329Y1791462D01*
X5414518Y1893062D02*
G01*
X5396229Y1883663D01*
X5377688Y1865376D01*
X5368290Y1837689D01*
X5368290Y1819147D01*
X5377688Y1791462D01*
X5396229Y1772920D01*
X5414518Y1763776D01*
X5442204Y1763776D01*
X5460745Y1772920D01*
X5479288Y1791462D01*
X5488431Y1819147D01*
X5488431Y1837689D01*
X5479288Y1865376D01*
X5460745Y1883663D01*
X5442204Y1893062D01*
X5414518Y1893062D01*
X5549391Y1893062D02*
G01*
X5549391Y1763776D01*
X5549391Y1855978D02*
G01*
X5577077Y1883663D01*
X5595620Y1893062D01*
X5623306Y1893062D01*
X5641847Y1883663D01*
X5650991Y1855978D01*
X5650991Y1763776D01*
X5650991Y1855978D02*
G01*
X5678677Y1883663D01*
X5697220Y1893062D01*
X5724906Y1893062D01*
X5743447Y1883663D01*
X5752591Y1855978D01*
X5752591Y1763776D01*
X5979922Y1994662D02*
G01*
X5813552Y1699005D01*
X6170168Y1929892D02*
G01*
X6151625Y1948434D01*
X6123940Y1957578D01*
X6087109Y1957578D01*
X6059170Y1948434D01*
X6040881Y1929892D01*
X6040881Y1911350D01*
X6050025Y1893062D01*
X6059170Y1883663D01*
X6077711Y1874520D01*
X6133084Y1855978D01*
X6151625Y1846834D01*
X6160770Y1837689D01*
X6170168Y1819147D01*
X6170168Y1791462D01*
X6151625Y1772920D01*
X6123940Y1763776D01*
X6087109Y1763776D01*
X6059170Y1772920D01*
X6040881Y1791462D01*
X6231127Y1837689D02*
G01*
X6341872Y1837689D01*
X6341872Y1855978D01*
X6332727Y1874520D01*
X6323329Y1883663D01*
X6305041Y1893062D01*
X6277356Y1893062D01*
X6258813Y1883663D01*
X6240272Y1865376D01*
X6231127Y1837689D01*
X6231127Y1819147D01*
X6240272Y1791462D01*
X6258813Y1772920D01*
X6277356Y1763776D01*
X6305041Y1763776D01*
X6323329Y1772920D01*
X6341872Y1791462D01*
X6402831Y1893062D02*
G01*
X6402831Y1763776D01*
X6402831Y1837689D02*
G01*
X6412229Y1865376D01*
X6430518Y1883663D01*
X6449059Y1893062D01*
X6476745Y1893062D01*
X6648450Y1865376D02*
G01*
X6630161Y1883663D01*
X6611620Y1893062D01*
X6583934Y1893062D01*
X6565391Y1883663D01*
X6546850Y1865376D01*
X6537706Y1837689D01*
X6537706Y1819147D01*
X6546850Y1791462D01*
X6565391Y1772920D01*
X6583934Y1763776D01*
X6611620Y1763776D01*
X6630161Y1772920D01*
X6648450Y1791462D01*
X6709409Y1893062D02*
G01*
X6709409Y1800605D01*
X6718808Y1772920D01*
X6737350Y1763776D01*
X6765036Y1763776D01*
X6783324Y1772920D01*
X6811009Y1800605D01*
X6811009Y1893062D02*
G01*
X6811009Y1763776D01*
X6871970Y1893062D02*
G01*
X6871970Y1763776D01*
X6871970Y1837689D02*
G01*
X6881368Y1865376D01*
X6899909Y1883663D01*
X6918197Y1893062D01*
X6945884Y1893062D01*
X7006843Y1957578D02*
G01*
X7016241Y1948434D01*
X7025386Y1957578D01*
X7016241Y1966976D01*
X7006843Y1957578D01*
X7016241Y1893062D02*
G01*
X7016241Y1763776D01*
X7132574Y1893062D02*
G01*
X7114031Y1883663D01*
X7095490Y1865376D01*
X7086345Y1837689D01*
X7086345Y1819147D01*
X7095490Y1791462D01*
X7114031Y1772920D01*
X7132574Y1763776D01*
X7160259Y1763776D01*
X7178802Y1772920D01*
X7197090Y1791462D01*
X7206488Y1819147D01*
X7206488Y1837689D01*
X7197090Y1865376D01*
X7178802Y1883663D01*
X7160259Y1893062D01*
X7132574Y1893062D01*
X7433563Y1994662D02*
G01*
X7267447Y1699005D01*
X7494524Y1957578D02*
G01*
X7494524Y1763776D01*
X7494524Y1957578D02*
G01*
X7568438Y1763776D01*
X7642352Y1957578D02*
G01*
X7568438Y1763776D01*
X7642352Y1957578D02*
G01*
X7642352Y1763776D01*
X7703311Y1957578D02*
G01*
X7703311Y1763776D01*
X7764272Y1957578D02*
G01*
X7764272Y1763776D01*
X7764272Y1957578D02*
G01*
X7829041Y1957578D01*
X7856727Y1948434D01*
X7875270Y1929892D01*
X7884413Y1911350D01*
X7893558Y1883663D01*
X7893558Y1837689D01*
X7884413Y1809750D01*
X7875270Y1791462D01*
X7856727Y1772920D01*
X7829041Y1763776D01*
X7764272Y1763776D01*
X7954518Y1957578D02*
G01*
X7954518Y1763776D01*
X8015477Y1957578D02*
G01*
X8015477Y1763776D01*
X8015477Y1957578D02*
G01*
X8098790Y1957578D01*
X8126475Y1948434D01*
X8135620Y1939289D01*
X8144763Y1920747D01*
X8144763Y1893062D01*
X8135620Y1874520D01*
X8126475Y1865376D01*
X8098790Y1855978D01*
X8015477Y1855978D01*
X8251952Y1893062D02*
G01*
X8233409Y1883663D01*
X8215122Y1865376D01*
X8205724Y1837689D01*
X8205724Y1819147D01*
X8215122Y1791462D01*
X8233409Y1772920D01*
X8251952Y1763776D01*
X8279638Y1763776D01*
X8298179Y1772920D01*
X8316722Y1791462D01*
X8325865Y1819147D01*
X8325865Y1837689D01*
X8316722Y1865376D01*
X8298179Y1883663D01*
X8279638Y1893062D01*
X8251952Y1893062D01*
X8414511Y1957578D02*
G01*
X8414511Y1800605D01*
X8423909Y1772920D01*
X8442197Y1763776D01*
X8460740Y1763776D01*
X8386825Y1893062D02*
G01*
X8451595Y1893062D01*
X8623300Y1865376D02*
G01*
X8614156Y1883663D01*
X8586470Y1893062D01*
X8558529Y1893062D01*
X8530843Y1883663D01*
X8521700Y1865376D01*
X8530843Y1846834D01*
X8549386Y1837689D01*
X8595613Y1828292D01*
X8614156Y1819147D01*
X8623300Y1800605D01*
X8623300Y1791462D01*
X8614156Y1772920D01*
X8586470Y1763776D01*
X8558529Y1763776D01*
X8530843Y1772920D01*
X8521700Y1791462D01*
D11*
X7391400Y8002015D02*
G01*
X7391400Y7924037D01*
X7396479Y7908544D01*
X7406893Y7898129D01*
X7422641Y7893050D01*
X7433056Y7893050D01*
X7448550Y7898129D01*
X7458963Y7908544D01*
X7464043Y7924037D01*
X7464043Y8002015D01*
X7498334Y7981187D02*
G01*
X7508747Y7986521D01*
X7524495Y8002015D01*
X7524495Y7893050D01*
X7626350Y7965694D02*
G01*
X7621015Y7950200D01*
X7610602Y7939786D01*
X7595108Y7934452D01*
X7589774Y7934452D01*
X7574279Y7939786D01*
X7563865Y7950200D01*
X7558786Y7965694D01*
X7558786Y7970773D01*
X7563865Y7986521D01*
X7574279Y7996936D01*
X7589774Y8002015D01*
X7595108Y8002015D01*
X7610602Y7996936D01*
X7621015Y7986521D01*
X7626350Y7965694D01*
X7626350Y7939786D01*
X7621015Y7913623D01*
X7610602Y7898129D01*
X7595108Y7893050D01*
X7584693Y7893050D01*
X7569200Y7898129D01*
X7563865Y7908544D01*
X10834370Y5741415D02*
G01*
X10782300Y5668771D01*
X10860277Y5668771D01*
X10834370Y5741415D02*
G01*
X10834370Y5632450D01*
X10925809Y5741415D02*
G01*
X10910061Y5736336D01*
X10899647Y5720587D01*
X10894568Y5694679D01*
X10894568Y5679186D01*
X10899647Y5653023D01*
X10910061Y5637529D01*
X10925809Y5632450D01*
X10935970Y5632450D01*
X10951718Y5637529D01*
X10962131Y5653023D01*
X10967211Y5679186D01*
X10967211Y5694679D01*
X10962131Y5720587D01*
X10951718Y5736336D01*
X10935970Y5741415D01*
X10925809Y5741415D01*
X11063986Y5741415D02*
G01*
X11011915Y5741415D01*
X11006836Y5694679D01*
X11011915Y5699760D01*
X11027409Y5705094D01*
X11043158Y5705094D01*
X11058652Y5699760D01*
X11069065Y5689600D01*
X11074400Y5673852D01*
X11074400Y5663437D01*
X11069065Y5647944D01*
X11058652Y5637529D01*
X11043158Y5632450D01*
X11027409Y5632450D01*
X11011915Y5637529D01*
X11006836Y5642610D01*
X11001502Y5653023D01*
X11108690Y5720587D02*
G01*
X11118850Y5725921D01*
X11134597Y5741415D01*
X11134597Y5632450D01*
X11099800Y3460140D02*
G01*
X11110213Y3465220D01*
X11125708Y3480714D01*
X11125708Y3371748D01*
X11191240Y3480714D02*
G01*
X11175745Y3475634D01*
X11165331Y3460140D01*
X11159997Y3433978D01*
X11159997Y3418484D01*
X11165331Y3392576D01*
X11175745Y3376828D01*
X11191240Y3371748D01*
X11201654Y3371748D01*
X11217147Y3376828D01*
X11227561Y3392576D01*
X11232895Y3418484D01*
X11232895Y3433978D01*
X11227561Y3460140D01*
X11217147Y3475634D01*
X11201654Y3480714D01*
X11191240Y3480714D01*
X11267186Y3480714D02*
G01*
X11267186Y3371748D01*
X11339829Y3480714D02*
G01*
X11267186Y3408070D01*
X11293093Y3433978D02*
G01*
X11339829Y3371748D01*
D12*
X6896100Y7848600D02*
G01*
X6896100Y7861300D01*
X7795513Y7861300D01*
X7795513Y7113270D01*
X6895591Y7113270D01*
X6895591Y7848600D01*
D13*
X6451600Y7708900D02*
G01*
X8231606Y7708900D01*
X8231606Y5618886D01*
X6451600Y5618886D01*
X6451600Y7708900D01*
D11*
X10737959Y6588218D02*
G01*
X11182240Y6588218D01*
X11182240Y5552981D01*
X10737959Y5552981D01*
X10737959Y6588218D01*
X4591159Y6588218D02*
G01*
X5035440Y6588218D01*
X5035440Y5552981D01*
X4591159Y5552981D01*
X4591159Y6588218D01*
D13*
X11688706Y-4831610D02*
G01*
X11688706Y-4778608D01*
X11688706Y-5547791D02*
G01*
X11688706Y-5169979D01*
X10688708Y-5169974D02*
G01*
X10688708Y-5547791D01*
X10688708Y-4778608D02*
G01*
X10688708Y-4831605D01*
X11688706Y-5547791D02*
G01*
X10691708Y-5547791D01*
X10689709Y-5545792D01*
X11483380Y-4347794D02*
G01*
X11688706Y-4347794D01*
X11688706Y-4778608D01*
X11229383Y-4347794D02*
G01*
X11402034Y-4347794D01*
X10975383Y-4347794D02*
G01*
X11148037Y-4347794D01*
X10688708Y-4778608D02*
G01*
X10688708Y-4347794D01*
X10894037Y-4347794D01*
X11701406Y-2012210D02*
G01*
X11701406Y-1959208D01*
X11701406Y-2728391D02*
G01*
X11701406Y-2350579D01*
X10701408Y-2350574D02*
G01*
X10701408Y-2728391D01*
X10701408Y-1959208D02*
G01*
X10701408Y-2012205D01*
X11701406Y-2728391D02*
G01*
X10704408Y-2728391D01*
X10702409Y-2726392D01*
X11496080Y-1528394D02*
G01*
X11701406Y-1528394D01*
X11701406Y-1959208D01*
X11242083Y-1528394D02*
G01*
X11414734Y-1528394D01*
X10988083Y-1528394D02*
G01*
X11160737Y-1528394D01*
X10701408Y-1959208D02*
G01*
X10701408Y-1528394D01*
X10906737Y-1528394D01*
X11701406Y743689D02*
G01*
X11701406Y796691D01*
X11701406Y27508D02*
G01*
X11701406Y405320D01*
X10701408Y405325D02*
G01*
X10701408Y27508D01*
X10701408Y796691D02*
G01*
X10701408Y743694D01*
X11701406Y27508D02*
G01*
X10704408Y27508D01*
X10702409Y29507D01*
X11496080Y1227505D02*
G01*
X11701406Y1227505D01*
X11701406Y796691D01*
X11242083Y1227505D02*
G01*
X11414734Y1227505D01*
X10988083Y1227505D02*
G01*
X11160737Y1227505D01*
X10701408Y796691D02*
G01*
X10701408Y1227505D01*
X10906737Y1227505D01*
X11714106Y3575789D02*
G01*
X11714106Y3628791D01*
X11714106Y2859608D02*
G01*
X11714106Y3237420D01*
X10714108Y3237425D02*
G01*
X10714108Y2859608D01*
X10714108Y3628791D02*
G01*
X10714108Y3575794D01*
X11714106Y2859608D02*
G01*
X10717108Y2859608D01*
X10715109Y2861607D01*
X11508780Y4059605D02*
G01*
X11714106Y4059605D01*
X11714106Y3628791D01*
X11254783Y4059605D02*
G01*
X11427434Y4059605D01*
X11000783Y4059605D02*
G01*
X11173437Y4059605D01*
X10714108Y3628791D02*
G01*
X10714108Y4059605D01*
X10919437Y4059605D01*
X9161406Y-4831610D02*
G01*
X9161406Y-4778608D01*
X9161406Y-5547791D02*
G01*
X9161406Y-5169979D01*
X8161408Y-5169974D02*
G01*
X8161408Y-5547791D01*
X8161408Y-4778608D02*
G01*
X8161408Y-4831605D01*
X9161406Y-5547791D02*
G01*
X8164408Y-5547791D01*
X8162409Y-5545792D01*
X8956080Y-4347794D02*
G01*
X9161406Y-4347794D01*
X9161406Y-4778608D01*
X8702083Y-4347794D02*
G01*
X8874734Y-4347794D01*
X8448083Y-4347794D02*
G01*
X8620737Y-4347794D01*
X8161408Y-4778608D02*
G01*
X8161408Y-4347794D01*
X8366737Y-4347794D01*
X9136006Y-2037610D02*
G01*
X9136006Y-1984608D01*
X9136006Y-2753791D02*
G01*
X9136006Y-2375979D01*
X8136008Y-2375974D02*
G01*
X8136008Y-2753791D01*
X8136008Y-1984608D02*
G01*
X8136008Y-2037605D01*
X9136006Y-2753791D02*
G01*
X8139008Y-2753791D01*
X8137009Y-2751792D01*
X8930680Y-1553794D02*
G01*
X9136006Y-1553794D01*
X9136006Y-1984608D01*
X8676683Y-1553794D02*
G01*
X8849334Y-1553794D01*
X8422683Y-1553794D02*
G01*
X8595337Y-1553794D01*
X8136008Y-1984608D02*
G01*
X8136008Y-1553794D01*
X8341337Y-1553794D01*
X9148706Y743689D02*
G01*
X9148706Y796691D01*
X9148706Y27508D02*
G01*
X9148706Y405320D01*
X8148708Y405325D02*
G01*
X8148708Y27508D01*
X8148708Y796691D02*
G01*
X8148708Y743694D01*
X9148706Y27508D02*
G01*
X8151708Y27508D01*
X8149709Y29507D01*
X8943380Y1227505D02*
G01*
X9148706Y1227505D01*
X9148706Y796691D01*
X8689383Y1227505D02*
G01*
X8862034Y1227505D01*
X8435383Y1227505D02*
G01*
X8608037Y1227505D01*
X8148708Y796691D02*
G01*
X8148708Y1227505D01*
X8354037Y1227505D01*
X9123306Y3550389D02*
G01*
X9123306Y3603391D01*
X9123306Y2834208D02*
G01*
X9123306Y3212020D01*
X8123308Y3212025D02*
G01*
X8123308Y2834208D01*
X8123308Y3603391D02*
G01*
X8123308Y3550394D01*
X9123306Y2834208D02*
G01*
X8126308Y2834208D01*
X8124309Y2836207D01*
X8917980Y4034205D02*
G01*
X9123306Y4034205D01*
X9123306Y3603391D01*
X8663983Y4034205D02*
G01*
X8836634Y4034205D01*
X8409983Y4034205D02*
G01*
X8582637Y4034205D01*
X8123308Y3603391D02*
G01*
X8123308Y4034205D01*
X8328637Y4034205D01*
X3979806Y3550389D02*
G01*
X3979806Y3603391D01*
X3979806Y2834208D02*
G01*
X3979806Y3212020D01*
X2979808Y3212025D02*
G01*
X2979808Y2834208D01*
X2979808Y3603391D02*
G01*
X2979808Y3550394D01*
X3979806Y2834208D02*
G01*
X2982808Y2834208D01*
X2980809Y2836207D01*
X3774480Y4034205D02*
G01*
X3979806Y4034205D01*
X3979806Y3603391D01*
X3520483Y4034205D02*
G01*
X3693134Y4034205D01*
X3266483Y4034205D02*
G01*
X3439137Y4034205D01*
X2979808Y3603391D02*
G01*
X2979808Y4034205D01*
X3185137Y4034205D01*
X3979806Y743689D02*
G01*
X3979806Y796691D01*
X3979806Y27508D02*
G01*
X3979806Y405320D01*
X2979808Y405325D02*
G01*
X2979808Y27508D01*
X2979808Y796691D02*
G01*
X2979808Y743694D01*
X3979806Y27508D02*
G01*
X2982808Y27508D01*
X2980809Y29507D01*
X3774480Y1227505D02*
G01*
X3979806Y1227505D01*
X3979806Y796691D01*
X3520483Y1227505D02*
G01*
X3693134Y1227505D01*
X3266483Y1227505D02*
G01*
X3439137Y1227505D01*
X2979808Y796691D02*
G01*
X2979808Y1227505D01*
X3185137Y1227505D01*
X3979806Y-2037610D02*
G01*
X3979806Y-1984608D01*
X3979806Y-2753791D02*
G01*
X3979806Y-2375979D01*
X2979808Y-2375974D02*
G01*
X2979808Y-2753791D01*
X2979808Y-1984608D02*
G01*
X2979808Y-2037605D01*
X3979806Y-2753791D02*
G01*
X2982808Y-2753791D01*
X2980809Y-2751792D01*
X3774480Y-1553794D02*
G01*
X3979806Y-1553794D01*
X3979806Y-1984608D01*
X3520483Y-1553794D02*
G01*
X3693134Y-1553794D01*
X3266483Y-1553794D02*
G01*
X3439137Y-1553794D01*
X2979808Y-1984608D02*
G01*
X2979808Y-1553794D01*
X3185137Y-1553794D01*
X3979806Y-4844310D02*
G01*
X3979806Y-4791308D01*
X3979806Y-5560491D02*
G01*
X3979806Y-5182679D01*
X2979808Y-5182674D02*
G01*
X2979808Y-5560491D01*
X2979808Y-4791308D02*
G01*
X2979808Y-4844305D01*
X3979806Y-5560491D02*
G01*
X2982808Y-5560491D01*
X2980809Y-5558492D01*
X3774480Y-4360494D02*
G01*
X3979806Y-4360494D01*
X3979806Y-4791308D01*
X3520483Y-4360494D02*
G01*
X3693134Y-4360494D01*
X3266483Y-4360494D02*
G01*
X3439137Y-4360494D01*
X2979808Y-4791308D02*
G01*
X2979808Y-4360494D01*
X3185137Y-4360494D01*
X6519806Y3563089D02*
G01*
X6519806Y3616091D01*
X6519806Y2846908D02*
G01*
X6519806Y3224720D01*
X5519808Y3224725D02*
G01*
X5519808Y2846908D01*
X5519808Y3616091D02*
G01*
X5519808Y3563094D01*
X6519806Y2846908D02*
G01*
X5522808Y2846908D01*
X5520809Y2848907D01*
X6314480Y4046905D02*
G01*
X6519806Y4046905D01*
X6519806Y3616091D01*
X6060483Y4046905D02*
G01*
X6233134Y4046905D01*
X5806483Y4046905D02*
G01*
X5979137Y4046905D01*
X5519808Y3616091D02*
G01*
X5519808Y4046905D01*
X5725137Y4046905D01*
X6507106Y756389D02*
G01*
X6507106Y809391D01*
X6507106Y40208D02*
G01*
X6507106Y418020D01*
X5507108Y418025D02*
G01*
X5507108Y40208D01*
X5507108Y809391D02*
G01*
X5507108Y756394D01*
X6507106Y40208D02*
G01*
X5510108Y40208D01*
X5508109Y42207D01*
X6301780Y1240205D02*
G01*
X6507106Y1240205D01*
X6507106Y809391D01*
X6047783Y1240205D02*
G01*
X6220434Y1240205D01*
X5793783Y1240205D02*
G01*
X5966437Y1240205D01*
X5507108Y809391D02*
G01*
X5507108Y1240205D01*
X5712437Y1240205D01*
X6519806Y-2012210D02*
G01*
X6519806Y-1959208D01*
X6519806Y-2728391D02*
G01*
X6519806Y-2350579D01*
X5519808Y-2350574D02*
G01*
X5519808Y-2728391D01*
X5519808Y-1959208D02*
G01*
X5519808Y-2012205D01*
X6519806Y-2728391D02*
G01*
X5522808Y-2728391D01*
X5520809Y-2726392D01*
X6314480Y-1528394D02*
G01*
X6519806Y-1528394D01*
X6519806Y-1959208D01*
X6060483Y-1528394D02*
G01*
X6233134Y-1528394D01*
X5806483Y-1528394D02*
G01*
X5979137Y-1528394D01*
X5519808Y-1959208D02*
G01*
X5519808Y-1528394D01*
X5725137Y-1528394D01*
X6519806Y-4818910D02*
G01*
X6519806Y-4765908D01*
X6519806Y-5535091D02*
G01*
X6519806Y-5157279D01*
X5519808Y-5157274D02*
G01*
X5519808Y-5535091D01*
X5519808Y-4765908D02*
G01*
X5519808Y-4818905D01*
X6519806Y-5535091D02*
G01*
X5522808Y-5535091D01*
X5520809Y-5533092D01*
X6314480Y-4335094D02*
G01*
X6519806Y-4335094D01*
X6519806Y-4765908D01*
X6060483Y-4335094D02*
G01*
X6233134Y-4335094D01*
X5806483Y-4335094D02*
G01*
X5979137Y-4335094D01*
X5519808Y-4765908D02*
G01*
X5519808Y-4335094D01*
X5725137Y-4335094D01*
D14*
G75*
G01
X10828198Y6515100D02*
G03X10828198Y6515100I-15011J0D01*
G75*
G01
X10618572Y6590436D02*
G03X10618572Y6590436I-15011J0D01*
G75*
G01
X4681398Y6515100D02*
G03X4681398Y6515100I-15011J0D01*
G75*
G01
X4471772Y6590436D02*
G03X4471772Y6590436I-15011J0D01*
D13*
G75*
G01
X11408867Y-4946802D02*
G03X11408867Y-4946802I-220167J0D01*
G75*
G01
X11421567Y-2127402D02*
G03X11421567Y-2127402I-220167J0D01*
G75*
G01
X11421567Y628498D02*
G03X11421567Y628498I-220167J0D01*
G75*
G01
X11434267Y3460598D02*
G03X11434267Y3460598I-220167J0D01*
G75*
G01
X8881567Y-4946802D02*
G03X8881567Y-4946802I-220167J0D01*
G75*
G01
X8856167Y-2152802D02*
G03X8856167Y-2152802I-220167J0D01*
G75*
G01
X8868867Y628498D02*
G03X8868867Y628498I-220167J0D01*
G75*
G01
X8843467Y3435198D02*
G03X8843467Y3435198I-220167J0D01*
G75*
G01
X3699967Y3435198D02*
G03X3699967Y3435198I-220167J0D01*
G75*
G01
X3699967Y628498D02*
G03X3699967Y628498I-220167J0D01*
G75*
G01
X3699967Y-2152802D02*
G03X3699967Y-2152802I-220167J0D01*
G75*
G01
X3699967Y-4959502D02*
G03X3699967Y-4959502I-220167J0D01*
G75*
G01
X6239967Y3447898D02*
G03X6239967Y3447898I-220167J0D01*
G75*
G01
X6227267Y641198D02*
G03X6227267Y641198I-220167J0D01*
G75*
G01
X6239967Y-2127402D02*
G03X6239967Y-2127402I-220167J0D01*
G75*
G01
X6239967Y-4934102D02*
G03X6239967Y-4934102I-220167J0D01*
M02*
