G04 Layer: TopSolderMaskLayer*
G04 EasyEDA v6.5.22, 2022-11-21 05:39:22*
G04 79285abd2fff4639a077ca8fd26d3c4e,5e732c2b7d5540c8836deda47cd93de7,10*
G04 Gerber Generator version 0.2*
G04 Scale: 100 percent, Rotated: No, Reflected: No *
G04 Dimensions in millimeters *
G04 leading zeros omitted , absolute positions ,4 integer and 5 decimal *
%FSLAX45Y45*%
%MOMM*%

%ADD10O,2.332609X0.7036053999999999*%
%ADD11C,1.8000*%
%ADD12C,3.3000*%
%ADD13C,1.7272*%

%LPD*%
G36*
X6490715Y7217663D02*
G01*
X6483858Y7218171D01*
X6476745Y7219442D01*
X6469634Y7221728D01*
X6463029Y7224521D01*
X6456934Y7228331D01*
X6451091Y7232904D01*
X6446011Y7237984D01*
X6441693Y7243826D01*
X6437884Y7249921D01*
X6434836Y7256526D01*
X6432550Y7263384D01*
X6431279Y7270750D01*
X6431025Y7277608D01*
X6431025Y7378192D01*
X6431279Y7385050D01*
X6432550Y7392415D01*
X6434836Y7399273D01*
X6437884Y7405878D01*
X6441693Y7412228D01*
X6446011Y7417815D01*
X6451091Y7422895D01*
X6456934Y7427468D01*
X6463029Y7431278D01*
X6469634Y7434071D01*
X6476745Y7436358D01*
X6483858Y7437628D01*
X6490715Y7438136D01*
X6666484Y7438136D01*
X6673341Y7437628D01*
X6680454Y7436358D01*
X6687311Y7434071D01*
X6694170Y7431278D01*
X6700265Y7427468D01*
X6706108Y7422895D01*
X6711188Y7417815D01*
X6715506Y7411973D01*
X6719315Y7405878D01*
X6722363Y7399273D01*
X6724650Y7392415D01*
X6725920Y7385050D01*
X6726174Y7378192D01*
X6726174Y7277608D01*
X6725920Y7270750D01*
X6724650Y7263637D01*
X6722363Y7256526D01*
X6719315Y7249921D01*
X6715506Y7243826D01*
X6711188Y7237984D01*
X6706108Y7232904D01*
X6700265Y7228331D01*
X6694170Y7224521D01*
X6687311Y7221728D01*
X6680454Y7219442D01*
X6673341Y7218171D01*
X6666484Y7217663D01*
G37*
G36*
X6490715Y6963663D02*
G01*
X6483858Y6964171D01*
X6476745Y6965442D01*
X6469634Y6967728D01*
X6463029Y6970521D01*
X6456934Y6974331D01*
X6451091Y6978904D01*
X6446011Y6983984D01*
X6441693Y6989826D01*
X6437884Y6995921D01*
X6434836Y7002526D01*
X6432550Y7009384D01*
X6431279Y7016750D01*
X6431025Y7023608D01*
X6431025Y7124192D01*
X6431279Y7131050D01*
X6432550Y7138415D01*
X6434836Y7145273D01*
X6437884Y7151878D01*
X6441693Y7158228D01*
X6446011Y7163815D01*
X6451091Y7168895D01*
X6456934Y7173468D01*
X6463029Y7177278D01*
X6469634Y7180071D01*
X6476745Y7182358D01*
X6483858Y7183628D01*
X6490715Y7184136D01*
X6666484Y7184136D01*
X6673341Y7183628D01*
X6680454Y7182358D01*
X6687311Y7180071D01*
X6694170Y7177278D01*
X6700265Y7173468D01*
X6706108Y7168895D01*
X6711188Y7163815D01*
X6715506Y7157973D01*
X6719315Y7151878D01*
X6722363Y7145273D01*
X6724650Y7138415D01*
X6725920Y7131050D01*
X6726174Y7124192D01*
X6726174Y7023608D01*
X6725920Y7016750D01*
X6724650Y7009637D01*
X6722363Y7002526D01*
X6719315Y6995921D01*
X6715506Y6989826D01*
X6711188Y6983984D01*
X6706108Y6978904D01*
X6700265Y6974331D01*
X6694170Y6970521D01*
X6687311Y6967728D01*
X6680454Y6965442D01*
X6673341Y6964171D01*
X6666484Y6963663D01*
G37*
G36*
X6490715Y6709663D02*
G01*
X6483858Y6710171D01*
X6476745Y6711442D01*
X6469634Y6713728D01*
X6463029Y6716521D01*
X6456934Y6720331D01*
X6451091Y6724904D01*
X6446011Y6729984D01*
X6441693Y6735826D01*
X6437884Y6741921D01*
X6434836Y6748526D01*
X6432550Y6755384D01*
X6431279Y6762750D01*
X6431025Y6769608D01*
X6431025Y6870192D01*
X6431279Y6877050D01*
X6432550Y6884415D01*
X6434836Y6891273D01*
X6437884Y6897878D01*
X6441693Y6904228D01*
X6446011Y6909815D01*
X6451091Y6914895D01*
X6456934Y6919468D01*
X6463029Y6923278D01*
X6469634Y6926071D01*
X6476745Y6928358D01*
X6483858Y6929628D01*
X6490715Y6930136D01*
X6666484Y6930136D01*
X6673341Y6929628D01*
X6680454Y6928358D01*
X6687311Y6926071D01*
X6694170Y6923278D01*
X6700265Y6919468D01*
X6706108Y6914895D01*
X6711188Y6909815D01*
X6715506Y6903973D01*
X6719315Y6897878D01*
X6722363Y6891273D01*
X6724650Y6884415D01*
X6725920Y6877050D01*
X6726174Y6870192D01*
X6726174Y6769608D01*
X6725920Y6762750D01*
X6724650Y6755637D01*
X6722363Y6748526D01*
X6719315Y6741921D01*
X6715506Y6735826D01*
X6711188Y6729984D01*
X6706108Y6724904D01*
X6700265Y6720331D01*
X6694170Y6716521D01*
X6687311Y6713728D01*
X6680454Y6711442D01*
X6673341Y6710171D01*
X6666484Y6709663D01*
G37*
G36*
X6490715Y6455663D02*
G01*
X6483858Y6456171D01*
X6476745Y6457442D01*
X6469634Y6459728D01*
X6463029Y6462521D01*
X6456934Y6466331D01*
X6451091Y6470904D01*
X6446011Y6475984D01*
X6441693Y6481826D01*
X6437884Y6487921D01*
X6434836Y6494526D01*
X6432550Y6501384D01*
X6431279Y6508750D01*
X6431025Y6515607D01*
X6431025Y6616192D01*
X6431279Y6623050D01*
X6432550Y6630415D01*
X6434836Y6637273D01*
X6437884Y6643878D01*
X6441693Y6650228D01*
X6446011Y6655815D01*
X6451091Y6660895D01*
X6456934Y6665468D01*
X6463029Y6669278D01*
X6469634Y6672071D01*
X6476745Y6674358D01*
X6483858Y6675628D01*
X6490715Y6676136D01*
X6666484Y6676136D01*
X6673341Y6675628D01*
X6680454Y6674358D01*
X6687311Y6672071D01*
X6694170Y6669278D01*
X6700265Y6665468D01*
X6706108Y6660895D01*
X6711188Y6655815D01*
X6715506Y6649973D01*
X6719315Y6643878D01*
X6722363Y6637273D01*
X6724650Y6630415D01*
X6725920Y6623050D01*
X6726174Y6616192D01*
X6726174Y6515607D01*
X6725920Y6508750D01*
X6724650Y6501637D01*
X6722363Y6494526D01*
X6719315Y6487921D01*
X6715506Y6481826D01*
X6711188Y6475984D01*
X6706108Y6470904D01*
X6700265Y6466331D01*
X6694170Y6462521D01*
X6687311Y6459728D01*
X6680454Y6457442D01*
X6673341Y6456171D01*
X6666484Y6455663D01*
G37*
G36*
X6490715Y6201663D02*
G01*
X6483858Y6202171D01*
X6476745Y6203442D01*
X6469634Y6205728D01*
X6463029Y6208521D01*
X6456934Y6212331D01*
X6451091Y6216904D01*
X6446011Y6221984D01*
X6441693Y6227826D01*
X6437884Y6233921D01*
X6434836Y6240526D01*
X6432550Y6247384D01*
X6431279Y6254750D01*
X6431025Y6261607D01*
X6431025Y6362192D01*
X6431279Y6369050D01*
X6432550Y6376415D01*
X6434836Y6383273D01*
X6437884Y6389878D01*
X6441693Y6396228D01*
X6446011Y6401815D01*
X6451091Y6406895D01*
X6456934Y6411468D01*
X6463029Y6415278D01*
X6469634Y6418071D01*
X6476745Y6420357D01*
X6483858Y6421628D01*
X6490715Y6422136D01*
X6666484Y6422136D01*
X6673341Y6421628D01*
X6680454Y6420357D01*
X6687311Y6418071D01*
X6694170Y6415278D01*
X6700265Y6411468D01*
X6706108Y6406895D01*
X6711188Y6401815D01*
X6715506Y6395973D01*
X6719315Y6389878D01*
X6722363Y6383273D01*
X6724650Y6376415D01*
X6725920Y6369050D01*
X6726174Y6362192D01*
X6726174Y6261607D01*
X6725920Y6254750D01*
X6724650Y6247637D01*
X6722363Y6240526D01*
X6719315Y6233921D01*
X6715506Y6227826D01*
X6711188Y6221984D01*
X6706108Y6216904D01*
X6700265Y6212331D01*
X6694170Y6208521D01*
X6687311Y6205728D01*
X6680454Y6203442D01*
X6673341Y6202171D01*
X6666484Y6201663D01*
G37*
G36*
X6490715Y5947663D02*
G01*
X6483858Y5948171D01*
X6476745Y5949442D01*
X6469634Y5951728D01*
X6463029Y5954521D01*
X6456934Y5958331D01*
X6451091Y5962904D01*
X6446011Y5967984D01*
X6441693Y5973826D01*
X6437884Y5979921D01*
X6434836Y5986526D01*
X6432550Y5993384D01*
X6431279Y6000750D01*
X6431025Y6007607D01*
X6431025Y6108192D01*
X6431279Y6115050D01*
X6432550Y6122415D01*
X6434836Y6129273D01*
X6437884Y6135878D01*
X6441693Y6142228D01*
X6446011Y6147815D01*
X6451091Y6152895D01*
X6456934Y6157468D01*
X6463029Y6161278D01*
X6469634Y6164071D01*
X6476745Y6166357D01*
X6483858Y6167628D01*
X6490715Y6168136D01*
X6666484Y6168136D01*
X6673341Y6167628D01*
X6680454Y6166357D01*
X6687311Y6164071D01*
X6694170Y6161278D01*
X6700265Y6157468D01*
X6706108Y6152895D01*
X6711188Y6147815D01*
X6715506Y6141973D01*
X6719315Y6135878D01*
X6722363Y6129273D01*
X6724650Y6122415D01*
X6725920Y6115050D01*
X6726174Y6108192D01*
X6726174Y6007607D01*
X6725920Y6000750D01*
X6724650Y5993637D01*
X6722363Y5986526D01*
X6719315Y5979921D01*
X6715506Y5973826D01*
X6711188Y5967984D01*
X6706108Y5962904D01*
X6700265Y5958331D01*
X6694170Y5954521D01*
X6687311Y5951728D01*
X6680454Y5949442D01*
X6673341Y5948171D01*
X6666484Y5947663D01*
G37*
G36*
X6490715Y5693663D02*
G01*
X6483858Y5694171D01*
X6476745Y5695442D01*
X6469634Y5697728D01*
X6463029Y5700521D01*
X6456934Y5704331D01*
X6451091Y5708904D01*
X6446011Y5713984D01*
X6441693Y5719826D01*
X6437884Y5725921D01*
X6434836Y5732526D01*
X6432550Y5739384D01*
X6431279Y5746750D01*
X6431025Y5753607D01*
X6431025Y5854192D01*
X6431279Y5861050D01*
X6432550Y5868415D01*
X6434836Y5875273D01*
X6437884Y5881878D01*
X6441693Y5888228D01*
X6446011Y5893815D01*
X6451091Y5898895D01*
X6456934Y5903468D01*
X6463029Y5907278D01*
X6469634Y5910071D01*
X6476745Y5912357D01*
X6483858Y5913628D01*
X6490715Y5914136D01*
X6666484Y5914136D01*
X6673341Y5913628D01*
X6680454Y5912357D01*
X6687311Y5910071D01*
X6694170Y5907278D01*
X6700265Y5903468D01*
X6706108Y5898895D01*
X6711188Y5893815D01*
X6715506Y5887973D01*
X6719315Y5881878D01*
X6722363Y5875273D01*
X6724650Y5868415D01*
X6725920Y5861050D01*
X6726174Y5854192D01*
X6726174Y5753607D01*
X6725920Y5746750D01*
X6724650Y5739637D01*
X6722363Y5732526D01*
X6719315Y5725921D01*
X6715506Y5719826D01*
X6711188Y5713984D01*
X6706108Y5708904D01*
X6700265Y5704331D01*
X6694170Y5700521D01*
X6687311Y5697728D01*
X6680454Y5695442D01*
X6673341Y5694171D01*
X6666484Y5693663D01*
G37*
G36*
X8014715Y5693663D02*
G01*
X8007858Y5694171D01*
X8000745Y5695442D01*
X7993634Y5697728D01*
X7987029Y5700521D01*
X7980934Y5704331D01*
X7975091Y5708904D01*
X7970011Y5713984D01*
X7965693Y5719826D01*
X7961884Y5725921D01*
X7958836Y5732526D01*
X7956550Y5739384D01*
X7955279Y5746750D01*
X7955025Y5753607D01*
X7955025Y5854192D01*
X7955279Y5861050D01*
X7956550Y5868415D01*
X7958836Y5875273D01*
X7961884Y5881878D01*
X7965693Y5888228D01*
X7970011Y5893815D01*
X7975091Y5898895D01*
X7980934Y5903468D01*
X7987029Y5907278D01*
X7993634Y5910071D01*
X8000745Y5912357D01*
X8007858Y5913628D01*
X8014715Y5914136D01*
X8190484Y5914136D01*
X8197341Y5913628D01*
X8204454Y5912357D01*
X8211311Y5910071D01*
X8218170Y5907278D01*
X8224265Y5903468D01*
X8230108Y5898895D01*
X8235188Y5893815D01*
X8239506Y5887973D01*
X8243315Y5881878D01*
X8246363Y5875273D01*
X8248650Y5868415D01*
X8249920Y5861050D01*
X8250174Y5854192D01*
X8250174Y5753607D01*
X8249920Y5746750D01*
X8248650Y5739637D01*
X8246363Y5732526D01*
X8243315Y5725921D01*
X8239506Y5719826D01*
X8235188Y5713984D01*
X8230108Y5708904D01*
X8224265Y5704331D01*
X8218170Y5700521D01*
X8211311Y5697728D01*
X8204454Y5695442D01*
X8197341Y5694171D01*
X8190484Y5693663D01*
G37*
G36*
X8014715Y5947663D02*
G01*
X8007858Y5948171D01*
X8000745Y5949442D01*
X7993634Y5951728D01*
X7987029Y5954521D01*
X7980934Y5958331D01*
X7975091Y5962904D01*
X7970011Y5967984D01*
X7965693Y5973826D01*
X7961884Y5979921D01*
X7958836Y5986526D01*
X7956550Y5993384D01*
X7955279Y6000750D01*
X7955025Y6007607D01*
X7955025Y6108192D01*
X7955279Y6115050D01*
X7956550Y6122415D01*
X7958836Y6129273D01*
X7961884Y6135878D01*
X7965693Y6142228D01*
X7970011Y6147815D01*
X7975091Y6152895D01*
X7980934Y6157468D01*
X7987029Y6161278D01*
X7993634Y6164071D01*
X8000745Y6166357D01*
X8007858Y6167628D01*
X8014715Y6168136D01*
X8190484Y6168136D01*
X8197341Y6167628D01*
X8204454Y6166357D01*
X8211311Y6164071D01*
X8218170Y6161278D01*
X8224265Y6157468D01*
X8230108Y6152895D01*
X8235188Y6147815D01*
X8239506Y6141973D01*
X8243315Y6135878D01*
X8246363Y6129273D01*
X8248650Y6122415D01*
X8249920Y6115050D01*
X8250174Y6108192D01*
X8250174Y6007607D01*
X8249920Y6000750D01*
X8248650Y5993637D01*
X8246363Y5986526D01*
X8243315Y5979921D01*
X8239506Y5973826D01*
X8235188Y5967984D01*
X8230108Y5962904D01*
X8224265Y5958331D01*
X8218170Y5954521D01*
X8211311Y5951728D01*
X8204454Y5949442D01*
X8197341Y5948171D01*
X8190484Y5947663D01*
G37*
G36*
X8014715Y6201663D02*
G01*
X8007858Y6202171D01*
X8000745Y6203442D01*
X7993634Y6205728D01*
X7987029Y6208521D01*
X7980934Y6212331D01*
X7975091Y6216904D01*
X7970011Y6221984D01*
X7965693Y6227826D01*
X7961884Y6233921D01*
X7958836Y6240526D01*
X7956550Y6247384D01*
X7955279Y6254750D01*
X7955025Y6261607D01*
X7955025Y6362192D01*
X7955279Y6369050D01*
X7956550Y6376415D01*
X7958836Y6383273D01*
X7961884Y6389878D01*
X7965693Y6396228D01*
X7970011Y6401815D01*
X7975091Y6406895D01*
X7980934Y6411468D01*
X7987029Y6415278D01*
X7993634Y6418071D01*
X8000745Y6420357D01*
X8007858Y6421628D01*
X8014715Y6422136D01*
X8190484Y6422136D01*
X8197341Y6421628D01*
X8204454Y6420357D01*
X8211311Y6418071D01*
X8218170Y6415278D01*
X8224265Y6411468D01*
X8230108Y6406895D01*
X8235188Y6401815D01*
X8239506Y6395973D01*
X8243315Y6389878D01*
X8246363Y6383273D01*
X8248650Y6376415D01*
X8249920Y6369050D01*
X8250174Y6362192D01*
X8250174Y6261607D01*
X8249920Y6254750D01*
X8248650Y6247637D01*
X8246363Y6240526D01*
X8243315Y6233921D01*
X8239506Y6227826D01*
X8235188Y6221984D01*
X8230108Y6216904D01*
X8224265Y6212331D01*
X8218170Y6208521D01*
X8211311Y6205728D01*
X8204454Y6203442D01*
X8197341Y6202171D01*
X8190484Y6201663D01*
G37*
G36*
X8014715Y6455663D02*
G01*
X8007858Y6456171D01*
X8000745Y6457442D01*
X7993634Y6459728D01*
X7987029Y6462521D01*
X7980934Y6466331D01*
X7975091Y6470904D01*
X7970011Y6475984D01*
X7965693Y6481826D01*
X7961884Y6487921D01*
X7958836Y6494526D01*
X7956550Y6501384D01*
X7955279Y6508750D01*
X7955025Y6515607D01*
X7955025Y6616192D01*
X7955279Y6623050D01*
X7956550Y6630415D01*
X7958836Y6637273D01*
X7961884Y6643878D01*
X7965693Y6650228D01*
X7970011Y6655815D01*
X7975091Y6660895D01*
X7980934Y6665468D01*
X7987029Y6669278D01*
X7993634Y6672071D01*
X8000745Y6674358D01*
X8007858Y6675628D01*
X8014715Y6676136D01*
X8190484Y6676136D01*
X8197341Y6675628D01*
X8204454Y6674358D01*
X8211311Y6672071D01*
X8218170Y6669278D01*
X8224265Y6665468D01*
X8230108Y6660895D01*
X8235188Y6655815D01*
X8239506Y6649973D01*
X8243315Y6643878D01*
X8246363Y6637273D01*
X8248650Y6630415D01*
X8249920Y6623050D01*
X8250174Y6616192D01*
X8250174Y6515607D01*
X8249920Y6508750D01*
X8248650Y6501637D01*
X8246363Y6494526D01*
X8243315Y6487921D01*
X8239506Y6481826D01*
X8235188Y6475984D01*
X8230108Y6470904D01*
X8224265Y6466331D01*
X8218170Y6462521D01*
X8211311Y6459728D01*
X8204454Y6457442D01*
X8197341Y6456171D01*
X8190484Y6455663D01*
G37*
G36*
X8014715Y6709663D02*
G01*
X8007858Y6710171D01*
X8000745Y6711442D01*
X7993634Y6713728D01*
X7987029Y6716521D01*
X7980934Y6720331D01*
X7975091Y6724904D01*
X7970011Y6729984D01*
X7965693Y6735826D01*
X7961884Y6741921D01*
X7958836Y6748526D01*
X7956550Y6755384D01*
X7955279Y6762750D01*
X7955025Y6769608D01*
X7955025Y6870192D01*
X7955279Y6877050D01*
X7956550Y6884415D01*
X7958836Y6891273D01*
X7961884Y6897878D01*
X7965693Y6904228D01*
X7970011Y6909815D01*
X7975091Y6914895D01*
X7980934Y6919468D01*
X7987029Y6923278D01*
X7993634Y6926071D01*
X8000745Y6928358D01*
X8007858Y6929628D01*
X8014715Y6930136D01*
X8190484Y6930136D01*
X8197341Y6929628D01*
X8204454Y6928358D01*
X8211311Y6926071D01*
X8218170Y6923278D01*
X8224265Y6919468D01*
X8230108Y6914895D01*
X8235188Y6909815D01*
X8239506Y6903973D01*
X8243315Y6897878D01*
X8246363Y6891273D01*
X8248650Y6884415D01*
X8249920Y6877050D01*
X8250174Y6870192D01*
X8250174Y6769608D01*
X8249920Y6762750D01*
X8248650Y6755637D01*
X8246363Y6748526D01*
X8243315Y6741921D01*
X8239506Y6735826D01*
X8235188Y6729984D01*
X8230108Y6724904D01*
X8224265Y6720331D01*
X8218170Y6716521D01*
X8211311Y6713728D01*
X8204454Y6711442D01*
X8197341Y6710171D01*
X8190484Y6709663D01*
G37*
G36*
X8014715Y6963663D02*
G01*
X8007858Y6964171D01*
X8000745Y6965442D01*
X7993634Y6967728D01*
X7987029Y6970521D01*
X7980934Y6974331D01*
X7975091Y6978904D01*
X7970011Y6983984D01*
X7965693Y6989826D01*
X7961884Y6995921D01*
X7958836Y7002526D01*
X7956550Y7009384D01*
X7955279Y7016750D01*
X7955025Y7023608D01*
X7955025Y7124192D01*
X7955279Y7131050D01*
X7956550Y7138415D01*
X7958836Y7145273D01*
X7961884Y7151878D01*
X7965693Y7158228D01*
X7970011Y7163815D01*
X7975091Y7168895D01*
X7980934Y7173468D01*
X7987029Y7177278D01*
X7993634Y7180071D01*
X8000745Y7182358D01*
X8007858Y7183628D01*
X8014715Y7184136D01*
X8190484Y7184136D01*
X8197341Y7183628D01*
X8204454Y7182358D01*
X8211311Y7180071D01*
X8218170Y7177278D01*
X8224265Y7173468D01*
X8230108Y7168895D01*
X8235188Y7163815D01*
X8239506Y7157973D01*
X8243315Y7151878D01*
X8246363Y7145273D01*
X8248650Y7138415D01*
X8249920Y7131050D01*
X8250174Y7124192D01*
X8250174Y7023608D01*
X8249920Y7016750D01*
X8248650Y7009637D01*
X8246363Y7002526D01*
X8243315Y6995921D01*
X8239506Y6989826D01*
X8235188Y6983984D01*
X8230108Y6978904D01*
X8224265Y6974331D01*
X8218170Y6970521D01*
X8211311Y6967728D01*
X8204454Y6965442D01*
X8197341Y6964171D01*
X8190484Y6963663D01*
G37*
G36*
X8014715Y7217663D02*
G01*
X8007858Y7218171D01*
X8000745Y7219442D01*
X7993634Y7221728D01*
X7987029Y7224521D01*
X7980934Y7228331D01*
X7975091Y7232904D01*
X7970011Y7237984D01*
X7965693Y7243826D01*
X7961884Y7249921D01*
X7958836Y7256526D01*
X7956550Y7263384D01*
X7955279Y7270750D01*
X7955025Y7277608D01*
X7955025Y7378192D01*
X7955279Y7385050D01*
X7956550Y7392415D01*
X7958836Y7399273D01*
X7961884Y7405878D01*
X7965693Y7412228D01*
X7970011Y7417815D01*
X7975091Y7422895D01*
X7980934Y7427468D01*
X7987029Y7431278D01*
X7993634Y7434071D01*
X8000745Y7436358D01*
X8007858Y7437628D01*
X8014715Y7438136D01*
X8190484Y7438136D01*
X8197341Y7437628D01*
X8204454Y7436358D01*
X8211311Y7434071D01*
X8218170Y7431278D01*
X8224265Y7427468D01*
X8230108Y7422895D01*
X8235188Y7417815D01*
X8239506Y7411973D01*
X8243315Y7405878D01*
X8246363Y7399273D01*
X8248650Y7392415D01*
X8249920Y7385050D01*
X8250174Y7378192D01*
X8250174Y7277608D01*
X8249920Y7270750D01*
X8248650Y7263637D01*
X8246363Y7256526D01*
X8243315Y7249921D01*
X8239506Y7243826D01*
X8235188Y7237984D01*
X8230108Y7232904D01*
X8224265Y7228331D01*
X8218170Y7224521D01*
X8211311Y7221728D01*
X8204454Y7219442D01*
X8197341Y7218171D01*
X8190484Y7217663D01*
G37*
D10*
G01*
X10603560Y6515100D03*
G01*
X10603560Y6388100D03*
G01*
X10603560Y6261100D03*
G01*
X10603560Y6134100D03*
G01*
X10603560Y6007100D03*
G01*
X10603560Y5880100D03*
G01*
X10603560Y5753100D03*
G01*
X10603560Y5626100D03*
G01*
X11316639Y6515100D03*
G01*
X11316639Y6388100D03*
G01*
X11316639Y6261100D03*
G01*
X11316639Y6134100D03*
G01*
X11316639Y6007100D03*
G01*
X11316639Y5880100D03*
G01*
X11316639Y5753100D03*
G01*
X11316639Y5626100D03*
G01*
X4456760Y6515100D03*
G01*
X4456760Y6388100D03*
G01*
X4456760Y6261100D03*
G01*
X4456760Y6134100D03*
G01*
X4456760Y6007100D03*
G01*
X4456760Y5880100D03*
G01*
X4456760Y5753100D03*
G01*
X4456760Y5626100D03*
G01*
X5169839Y6515100D03*
G01*
X5169839Y6388100D03*
G01*
X5169839Y6261100D03*
G01*
X5169839Y6134100D03*
G01*
X5169839Y6007100D03*
G01*
X5169839Y5880100D03*
G01*
X5169839Y5753100D03*
G01*
X5169839Y5626100D03*
D11*
G01*
X11442700Y-4247794D03*
G01*
X11188700Y-4247794D03*
G01*
X10934700Y-4247794D03*
D12*
G01*
X10628706Y-4997780D03*
G01*
X11748693Y-4997805D03*
D11*
G01*
X11455400Y-1428394D03*
G01*
X11201400Y-1428394D03*
G01*
X10947400Y-1428394D03*
D12*
G01*
X10641406Y-2178380D03*
G01*
X11761393Y-2178405D03*
D11*
G01*
X11455400Y1327505D03*
G01*
X11201400Y1327505D03*
G01*
X10947400Y1327505D03*
D12*
G01*
X10641406Y577519D03*
G01*
X11761393Y577494D03*
D11*
G01*
X11468100Y4159605D03*
G01*
X11214100Y4159605D03*
G01*
X10960100Y4159605D03*
D12*
G01*
X10654106Y3409619D03*
G01*
X11774093Y3409594D03*
D11*
G01*
X8915400Y-4247794D03*
G01*
X8661400Y-4247794D03*
G01*
X8407400Y-4247794D03*
D12*
G01*
X8101406Y-4997780D03*
G01*
X9221393Y-4997805D03*
D11*
G01*
X8890000Y-1453794D03*
G01*
X8636000Y-1453794D03*
G01*
X8382000Y-1453794D03*
D12*
G01*
X8076006Y-2203780D03*
G01*
X9195993Y-2203805D03*
D11*
G01*
X8902700Y1327505D03*
G01*
X8648700Y1327505D03*
G01*
X8394700Y1327505D03*
D12*
G01*
X8088706Y577519D03*
G01*
X9208693Y577494D03*
D11*
G01*
X8877300Y4134205D03*
G01*
X8623300Y4134205D03*
G01*
X8369300Y4134205D03*
D12*
G01*
X8063306Y3384219D03*
G01*
X9183293Y3384194D03*
D11*
G01*
X3733800Y4134205D03*
G01*
X3479800Y4134205D03*
G01*
X3225800Y4134205D03*
D12*
G01*
X2919806Y3384219D03*
G01*
X4039793Y3384194D03*
D11*
G01*
X3733800Y1327505D03*
G01*
X3479800Y1327505D03*
G01*
X3225800Y1327505D03*
D12*
G01*
X2919806Y577519D03*
G01*
X4039793Y577494D03*
D11*
G01*
X3733800Y-1453794D03*
G01*
X3479800Y-1453794D03*
G01*
X3225800Y-1453794D03*
D12*
G01*
X2919806Y-2203780D03*
G01*
X4039793Y-2203805D03*
D11*
G01*
X3733800Y-4260494D03*
G01*
X3479800Y-4260494D03*
G01*
X3225800Y-4260494D03*
D12*
G01*
X2919806Y-5010480D03*
G01*
X4039793Y-5010505D03*
D11*
G01*
X6273800Y4146905D03*
G01*
X6019800Y4146905D03*
G01*
X5765800Y4146905D03*
D12*
G01*
X5459806Y3396919D03*
G01*
X6579793Y3396894D03*
D11*
G01*
X6261100Y1340205D03*
G01*
X6007100Y1340205D03*
G01*
X5753100Y1340205D03*
D12*
G01*
X5447106Y590219D03*
G01*
X6567093Y590194D03*
D11*
G01*
X6273800Y-1428394D03*
G01*
X6019800Y-1428394D03*
G01*
X5765800Y-1428394D03*
D12*
G01*
X5459806Y-2178380D03*
G01*
X6579793Y-2178405D03*
D11*
G01*
X6273800Y-4235094D03*
G01*
X6019800Y-4235094D03*
G01*
X5765800Y-4235094D03*
D12*
G01*
X5459806Y-4985080D03*
G01*
X6579793Y-4985105D03*
D13*
G01*
X11328400Y5334000D03*
G01*
X11049000Y5080000D03*
G01*
X10845800Y4838700D03*
G01*
X6578600Y7327900D03*
G01*
X6578600Y7073900D03*
G01*
X6578600Y6819900D03*
G01*
X6578600Y6565900D03*
G01*
X6578600Y6311900D03*
G01*
X6578600Y6057900D03*
G01*
X6578600Y5803900D03*
G01*
X8102600Y7327900D03*
G01*
X8102600Y7073900D03*
G01*
X8102600Y6565900D03*
G01*
X8102600Y6311900D03*
G01*
X8102600Y6057900D03*
G01*
X8102600Y5803900D03*
G01*
X5435600Y5461000D03*
G01*
X4762500Y6743700D03*
G01*
X10934700Y7302500D03*
G01*
X10655300Y7086600D03*
G01*
X10972800Y6083300D03*
G01*
X4445000Y5168900D03*
G01*
X10604500Y3822700D03*
M02*
