G04 Layer: BottomLayer*
G04 EasyEDA v6.5.22, 2022-11-21 05:39:22*
G04 79285abd2fff4639a077ca8fd26d3c4e,5e732c2b7d5540c8836deda47cd93de7,10*
G04 Gerber Generator version 0.2*
G04 Scale: 100 percent, Rotated: No, Reflected: No *
G04 Dimensions in millimeters *
G04 leading zeros omitted , absolute positions ,4 integer and 5 decimal *
%FSLAX45Y45*%
%MOMM*%

%ADD10C,0.7000*%
%ADD11C,1.7000*%
%ADD12C,3.2000*%
%ADD13C,1.5240*%
%ADD14C,0.6096*%
%ADD15C,0.0110*%

%LPD*%
G36*
X1995322Y-6489700D02*
G01*
X1991360Y-6488887D01*
X1986737Y-6485229D01*
X1974037Y-6469430D01*
X1962861Y-6452565D01*
X1953260Y-6434734D01*
X1945284Y-6416141D01*
X1939036Y-6396888D01*
X1934514Y-6377127D01*
X1931822Y-6357061D01*
X1930907Y-6336538D01*
X1930907Y7450734D01*
X1931822Y7471460D01*
X1934413Y7490815D01*
X1938680Y7509865D01*
X1944624Y7528509D01*
X1952142Y7546543D01*
X1961184Y7563866D01*
X1971700Y7580325D01*
X1983638Y7595819D01*
X1996897Y7610195D01*
X2011324Y7623403D01*
X2026869Y7635240D01*
X2043379Y7645704D01*
X2060702Y7654696D01*
X2078786Y7662164D01*
X2097430Y7668006D01*
X2116531Y7672171D01*
X2129282Y7673848D01*
X2133854Y7673390D01*
X2141270Y7670901D01*
X2146858Y7670292D01*
X12445644Y7670292D01*
X12449098Y7670546D01*
X12455956Y7672425D01*
X12458446Y7673340D01*
X12461036Y7673594D01*
X12469926Y7673136D01*
X12489332Y7670546D01*
X12508382Y7666278D01*
X12527026Y7660386D01*
X12545060Y7652867D01*
X12562382Y7643774D01*
X12578842Y7633258D01*
X12594336Y7621320D01*
X12608712Y7608112D01*
X12621869Y7593685D01*
X12633756Y7578140D01*
X12644221Y7561630D01*
X12653213Y7544257D01*
X12660680Y7526172D01*
X12666522Y7507528D01*
X12670688Y7488478D01*
X12673228Y7469073D01*
X12674092Y7449058D01*
X12674092Y-6336538D01*
X12673126Y-6358788D01*
X12670536Y-6378143D01*
X12666268Y-6397193D01*
X12660376Y-6415836D01*
X12652857Y-6433870D01*
X12643764Y-6451193D01*
X12633248Y-6467652D01*
X12621310Y-6483146D01*
X12618313Y-6486398D01*
X12614910Y-6488836D01*
X12610846Y-6489700D01*
G37*

%LPC*%
G36*
X4030370Y-5196128D02*
G01*
X4049217Y-5196128D01*
X4067962Y-5194249D01*
X4086402Y-5190439D01*
X4104386Y-5184800D01*
X4121658Y-5177383D01*
X4138117Y-5168239D01*
X4153611Y-5157470D01*
X4167886Y-5145227D01*
X4180840Y-5131562D01*
X4192371Y-5116677D01*
X4202328Y-5100726D01*
X4210659Y-5083810D01*
X4217162Y-5066131D01*
X4221886Y-5047894D01*
X4224731Y-5029301D01*
X4225696Y-5010505D01*
X4224731Y-4991709D01*
X4221886Y-4973066D01*
X4217162Y-4954828D01*
X4210659Y-4937201D01*
X4202328Y-4920284D01*
X4192371Y-4904282D01*
X4180840Y-4889398D01*
X4167886Y-4875733D01*
X4153611Y-4863490D01*
X4138117Y-4852720D01*
X4121658Y-4843576D01*
X4104386Y-4836160D01*
X4086402Y-4830521D01*
X4067962Y-4826762D01*
X4049217Y-4824831D01*
X4030370Y-4824831D01*
X4011676Y-4826762D01*
X3993235Y-4830521D01*
X3975252Y-4836160D01*
X3957929Y-4843576D01*
X3941470Y-4852720D01*
X3926027Y-4863490D01*
X3911752Y-4875733D01*
X3898747Y-4889398D01*
X3887215Y-4904282D01*
X3877259Y-4920284D01*
X3868978Y-4937201D01*
X3862425Y-4954828D01*
X3857701Y-4973066D01*
X3854856Y-4991709D01*
X3853891Y-5010505D01*
X3854856Y-5029301D01*
X3857701Y-5047894D01*
X3862425Y-5066131D01*
X3868978Y-5083810D01*
X3877259Y-5100726D01*
X3887215Y-5116677D01*
X3898747Y-5131562D01*
X3911752Y-5145227D01*
X3926027Y-5157470D01*
X3941470Y-5168239D01*
X3957929Y-5177383D01*
X3975252Y-5184800D01*
X3993235Y-5190439D01*
X4011676Y-5194249D01*
G37*
G36*
X2910382Y-5196128D02*
G01*
X2929229Y-5196128D01*
X2947974Y-5194249D01*
X2966415Y-5190439D01*
X2984347Y-5184800D01*
X3001670Y-5177383D01*
X3018129Y-5168239D01*
X3033572Y-5157470D01*
X3047898Y-5145227D01*
X3060852Y-5131562D01*
X3072384Y-5116677D01*
X3082340Y-5100726D01*
X3090621Y-5083810D01*
X3097174Y-5066131D01*
X3101898Y-5047894D01*
X3104743Y-5029301D01*
X3105708Y-5010505D01*
X3104743Y-4991658D01*
X3101898Y-4973066D01*
X3097174Y-4954828D01*
X3090621Y-4937201D01*
X3082340Y-4920284D01*
X3072384Y-4904282D01*
X3060852Y-4889398D01*
X3047898Y-4875733D01*
X3033572Y-4863490D01*
X3018129Y-4852720D01*
X3001670Y-4843576D01*
X2984347Y-4836160D01*
X2966415Y-4830521D01*
X2947974Y-4826762D01*
X2929229Y-4824831D01*
X2910382Y-4824831D01*
X2891637Y-4826762D01*
X2873197Y-4830521D01*
X2855264Y-4836160D01*
X2837942Y-4843576D01*
X2821482Y-4852720D01*
X2806039Y-4863490D01*
X2791714Y-4875733D01*
X2778760Y-4889398D01*
X2767228Y-4904282D01*
X2757271Y-4920284D01*
X2748991Y-4937201D01*
X2742438Y-4954828D01*
X2737713Y-4973066D01*
X2734868Y-4991658D01*
X2733903Y-5010505D01*
X2734868Y-5029301D01*
X2737713Y-5047894D01*
X2742438Y-5066131D01*
X2748991Y-5083810D01*
X2757271Y-5100726D01*
X2767228Y-5116677D01*
X2778760Y-5131562D01*
X2791714Y-5145227D01*
X2806039Y-5157470D01*
X2821482Y-5168239D01*
X2837942Y-5177383D01*
X2855264Y-5184800D01*
X2873197Y-5190439D01*
X2891637Y-5194249D01*
G37*
G36*
X8091982Y-5183428D02*
G01*
X8110829Y-5183428D01*
X8129574Y-5181549D01*
X8148015Y-5177739D01*
X8165947Y-5172100D01*
X8183270Y-5164683D01*
X8199729Y-5155539D01*
X8215172Y-5144770D01*
X8229498Y-5132527D01*
X8242452Y-5118862D01*
X8253984Y-5103977D01*
X8263940Y-5088026D01*
X8272221Y-5071110D01*
X8278774Y-5053431D01*
X8283498Y-5035194D01*
X8286343Y-5016601D01*
X8287308Y-4997805D01*
X8286343Y-4978958D01*
X8283498Y-4960366D01*
X8278774Y-4942128D01*
X8272221Y-4924501D01*
X8263940Y-4907584D01*
X8253984Y-4891582D01*
X8242452Y-4876698D01*
X8229498Y-4863033D01*
X8215172Y-4850790D01*
X8199729Y-4840020D01*
X8183270Y-4830876D01*
X8165947Y-4823460D01*
X8148015Y-4817821D01*
X8129574Y-4814062D01*
X8110829Y-4812131D01*
X8091982Y-4812131D01*
X8073237Y-4814062D01*
X8054797Y-4817821D01*
X8036864Y-4823460D01*
X8019542Y-4830876D01*
X8003082Y-4840020D01*
X7987639Y-4850790D01*
X7973314Y-4863033D01*
X7960359Y-4876698D01*
X7948828Y-4891582D01*
X7938871Y-4907584D01*
X7930591Y-4924501D01*
X7924038Y-4942128D01*
X7919313Y-4960366D01*
X7916468Y-4978958D01*
X7915503Y-4997805D01*
X7916468Y-5016601D01*
X7919313Y-5035194D01*
X7924038Y-5053431D01*
X7930591Y-5071110D01*
X7938871Y-5088026D01*
X7948828Y-5103977D01*
X7960359Y-5118862D01*
X7973314Y-5132527D01*
X7987639Y-5144770D01*
X8003082Y-5155539D01*
X8019542Y-5164683D01*
X8036864Y-5172100D01*
X8054797Y-5177739D01*
X8073237Y-5181549D01*
G37*
G36*
X10619282Y-5183428D02*
G01*
X10638129Y-5183428D01*
X10656874Y-5181549D01*
X10675315Y-5177739D01*
X10693247Y-5172100D01*
X10710570Y-5164683D01*
X10727029Y-5155539D01*
X10742472Y-5144770D01*
X10756798Y-5132527D01*
X10769752Y-5118862D01*
X10781284Y-5103977D01*
X10791240Y-5088026D01*
X10799521Y-5071110D01*
X10806074Y-5053431D01*
X10810798Y-5035194D01*
X10813643Y-5016601D01*
X10814608Y-4997805D01*
X10813643Y-4978958D01*
X10810798Y-4960366D01*
X10806074Y-4942128D01*
X10799521Y-4924501D01*
X10791240Y-4907584D01*
X10781284Y-4891582D01*
X10769752Y-4876698D01*
X10756798Y-4863033D01*
X10742472Y-4850790D01*
X10727029Y-4840020D01*
X10710570Y-4830876D01*
X10693247Y-4823460D01*
X10675315Y-4817821D01*
X10656874Y-4814062D01*
X10638129Y-4812131D01*
X10619282Y-4812131D01*
X10600537Y-4814062D01*
X10582097Y-4817821D01*
X10564164Y-4823460D01*
X10546842Y-4830876D01*
X10530382Y-4840020D01*
X10514939Y-4850790D01*
X10500614Y-4863033D01*
X10487660Y-4876698D01*
X10476128Y-4891582D01*
X10466171Y-4907584D01*
X10457891Y-4924501D01*
X10451338Y-4942128D01*
X10446613Y-4960366D01*
X10443768Y-4978958D01*
X10442803Y-4997805D01*
X10443768Y-5016601D01*
X10446613Y-5035194D01*
X10451338Y-5053431D01*
X10457891Y-5071110D01*
X10466171Y-5088026D01*
X10476128Y-5103977D01*
X10487660Y-5118862D01*
X10500614Y-5132527D01*
X10514939Y-5144770D01*
X10530382Y-5155539D01*
X10546842Y-5164683D01*
X10564164Y-5172100D01*
X10582097Y-5177739D01*
X10600537Y-5181549D01*
G37*
G36*
X9211970Y-5183428D02*
G01*
X9230817Y-5183428D01*
X9249562Y-5181549D01*
X9268002Y-5177739D01*
X9285986Y-5172100D01*
X9303258Y-5164683D01*
X9319717Y-5155539D01*
X9335211Y-5144770D01*
X9349486Y-5132527D01*
X9362440Y-5118862D01*
X9373971Y-5103977D01*
X9383928Y-5088026D01*
X9392259Y-5071110D01*
X9398762Y-5053431D01*
X9403486Y-5035194D01*
X9406331Y-5016601D01*
X9407296Y-4997805D01*
X9406331Y-4979009D01*
X9403486Y-4960366D01*
X9398762Y-4942128D01*
X9392259Y-4924501D01*
X9383928Y-4907584D01*
X9373971Y-4891582D01*
X9362440Y-4876698D01*
X9349486Y-4863033D01*
X9335211Y-4850790D01*
X9319717Y-4840020D01*
X9303258Y-4830876D01*
X9285986Y-4823460D01*
X9268002Y-4817821D01*
X9249562Y-4814062D01*
X9230817Y-4812131D01*
X9211970Y-4812131D01*
X9193276Y-4814062D01*
X9174835Y-4817821D01*
X9156852Y-4823460D01*
X9139529Y-4830876D01*
X9123070Y-4840020D01*
X9107627Y-4850790D01*
X9093352Y-4863033D01*
X9080347Y-4876698D01*
X9068816Y-4891582D01*
X9058859Y-4907584D01*
X9050578Y-4924501D01*
X9044025Y-4942128D01*
X9039301Y-4960366D01*
X9036456Y-4979009D01*
X9035491Y-4997805D01*
X9036456Y-5016601D01*
X9039301Y-5035194D01*
X9044025Y-5053431D01*
X9050578Y-5071110D01*
X9058859Y-5088026D01*
X9068816Y-5103977D01*
X9080347Y-5118862D01*
X9093352Y-5132527D01*
X9107627Y-5144770D01*
X9123070Y-5155539D01*
X9139529Y-5164683D01*
X9156852Y-5172100D01*
X9174835Y-5177739D01*
X9193276Y-5181549D01*
G37*
G36*
X11739270Y-5183428D02*
G01*
X11758117Y-5183428D01*
X11776862Y-5181549D01*
X11795302Y-5177739D01*
X11813286Y-5172100D01*
X11830558Y-5164683D01*
X11847017Y-5155539D01*
X11862511Y-5144770D01*
X11876786Y-5132527D01*
X11889740Y-5118862D01*
X11901271Y-5103977D01*
X11911228Y-5088026D01*
X11919559Y-5071110D01*
X11926062Y-5053431D01*
X11930786Y-5035194D01*
X11933631Y-5016601D01*
X11934596Y-4997805D01*
X11933631Y-4979009D01*
X11930786Y-4960366D01*
X11926062Y-4942128D01*
X11919559Y-4924501D01*
X11911228Y-4907584D01*
X11901271Y-4891582D01*
X11889740Y-4876698D01*
X11876786Y-4863033D01*
X11862511Y-4850790D01*
X11847017Y-4840020D01*
X11830558Y-4830876D01*
X11813286Y-4823460D01*
X11795302Y-4817821D01*
X11776862Y-4814062D01*
X11758117Y-4812131D01*
X11739270Y-4812131D01*
X11720576Y-4814062D01*
X11702135Y-4817821D01*
X11684152Y-4823460D01*
X11666829Y-4830876D01*
X11650370Y-4840020D01*
X11634927Y-4850790D01*
X11620652Y-4863033D01*
X11607647Y-4876698D01*
X11596116Y-4891582D01*
X11586159Y-4907584D01*
X11577878Y-4924501D01*
X11571325Y-4942128D01*
X11566601Y-4960366D01*
X11563756Y-4979009D01*
X11562791Y-4997805D01*
X11563756Y-5016601D01*
X11566601Y-5035194D01*
X11571325Y-5053431D01*
X11577878Y-5071110D01*
X11586159Y-5088026D01*
X11596116Y-5103977D01*
X11607647Y-5118862D01*
X11620652Y-5132527D01*
X11634927Y-5144770D01*
X11650370Y-5155539D01*
X11666829Y-5164683D01*
X11684152Y-5172100D01*
X11702135Y-5177739D01*
X11720576Y-5181549D01*
G37*
G36*
X6570370Y-5170728D02*
G01*
X6589217Y-5170728D01*
X6607962Y-5168849D01*
X6626402Y-5165039D01*
X6644386Y-5159400D01*
X6661658Y-5151983D01*
X6678117Y-5142839D01*
X6693611Y-5132070D01*
X6707886Y-5119827D01*
X6720840Y-5106162D01*
X6732371Y-5091277D01*
X6742328Y-5075326D01*
X6750659Y-5058410D01*
X6757162Y-5040731D01*
X6761886Y-5022494D01*
X6764731Y-5003901D01*
X6765696Y-4985105D01*
X6764731Y-4966309D01*
X6761886Y-4947666D01*
X6757162Y-4929428D01*
X6750659Y-4911801D01*
X6742328Y-4894884D01*
X6732371Y-4878882D01*
X6720840Y-4863998D01*
X6707886Y-4850333D01*
X6693611Y-4838090D01*
X6678117Y-4827320D01*
X6661658Y-4818176D01*
X6644386Y-4810760D01*
X6626402Y-4805121D01*
X6607962Y-4801362D01*
X6589217Y-4799431D01*
X6570370Y-4799431D01*
X6551676Y-4801362D01*
X6533235Y-4805121D01*
X6515252Y-4810760D01*
X6497929Y-4818176D01*
X6481470Y-4827320D01*
X6466027Y-4838090D01*
X6451752Y-4850333D01*
X6438747Y-4863998D01*
X6427216Y-4878882D01*
X6417259Y-4894884D01*
X6408978Y-4911801D01*
X6402425Y-4929428D01*
X6397701Y-4947666D01*
X6394856Y-4966309D01*
X6393891Y-4985105D01*
X6394856Y-5003901D01*
X6397701Y-5022494D01*
X6402425Y-5040731D01*
X6408978Y-5058410D01*
X6417259Y-5075326D01*
X6427216Y-5091277D01*
X6438747Y-5106162D01*
X6451752Y-5119827D01*
X6466027Y-5132070D01*
X6481470Y-5142839D01*
X6497929Y-5151983D01*
X6515252Y-5159400D01*
X6533235Y-5165039D01*
X6551676Y-5168849D01*
G37*
G36*
X5450382Y-5170728D02*
G01*
X5469229Y-5170728D01*
X5487974Y-5168849D01*
X5506415Y-5165039D01*
X5524347Y-5159400D01*
X5541670Y-5151983D01*
X5558129Y-5142839D01*
X5573572Y-5132070D01*
X5587898Y-5119827D01*
X5600852Y-5106162D01*
X5612384Y-5091277D01*
X5622340Y-5075326D01*
X5630621Y-5058410D01*
X5637174Y-5040731D01*
X5641898Y-5022494D01*
X5644743Y-5003901D01*
X5645708Y-4985105D01*
X5644743Y-4966258D01*
X5641898Y-4947666D01*
X5637174Y-4929428D01*
X5630621Y-4911801D01*
X5622340Y-4894884D01*
X5612384Y-4878882D01*
X5600852Y-4863998D01*
X5587898Y-4850333D01*
X5573572Y-4838090D01*
X5558129Y-4827320D01*
X5541670Y-4818176D01*
X5524347Y-4810760D01*
X5506415Y-4805121D01*
X5487974Y-4801362D01*
X5469229Y-4799431D01*
X5450382Y-4799431D01*
X5431637Y-4801362D01*
X5413197Y-4805121D01*
X5395264Y-4810760D01*
X5377942Y-4818176D01*
X5361482Y-4827320D01*
X5346039Y-4838090D01*
X5331714Y-4850333D01*
X5318760Y-4863998D01*
X5307228Y-4878882D01*
X5297271Y-4894884D01*
X5288991Y-4911801D01*
X5282438Y-4929428D01*
X5277713Y-4947666D01*
X5274868Y-4966258D01*
X5273903Y-4985105D01*
X5274868Y-5003901D01*
X5277713Y-5022494D01*
X5282438Y-5040731D01*
X5288991Y-5058410D01*
X5297271Y-5075326D01*
X5307228Y-5091277D01*
X5318760Y-5106162D01*
X5331714Y-5119827D01*
X5346039Y-5132070D01*
X5361482Y-5142839D01*
X5377942Y-5151983D01*
X5395264Y-5159400D01*
X5413197Y-5165039D01*
X5431637Y-5168849D01*
G37*
G36*
X3222244Y-4371340D02*
G01*
X3236468Y-4370882D01*
X3250488Y-4368596D01*
X3264103Y-4364583D01*
X3277108Y-4358792D01*
X3289249Y-4351426D01*
X3300374Y-4342587D01*
X3310229Y-4332376D01*
X3318764Y-4320997D01*
X3325723Y-4308602D01*
X3331057Y-4295444D01*
X3334664Y-4281678D01*
X3336493Y-4267606D01*
X3336493Y-4253382D01*
X3334664Y-4239310D01*
X3331057Y-4225544D01*
X3325723Y-4212386D01*
X3318764Y-4199991D01*
X3310229Y-4188612D01*
X3300374Y-4178401D01*
X3289249Y-4169562D01*
X3277108Y-4162196D01*
X3264103Y-4156456D01*
X3250488Y-4152392D01*
X3236468Y-4150106D01*
X3222244Y-4149648D01*
X3208121Y-4151020D01*
X3194253Y-4154170D01*
X3180943Y-4159097D01*
X3168345Y-4165650D01*
X3156661Y-4173778D01*
X3146145Y-4183329D01*
X3136950Y-4194149D01*
X3129178Y-4206087D01*
X3123031Y-4218889D01*
X3118561Y-4232351D01*
X3115818Y-4246321D01*
X3114903Y-4260494D01*
X3115818Y-4274667D01*
X3118561Y-4288637D01*
X3123031Y-4302099D01*
X3129178Y-4314901D01*
X3136950Y-4326839D01*
X3146145Y-4337659D01*
X3156661Y-4347210D01*
X3168345Y-4355338D01*
X3180943Y-4361891D01*
X3194253Y-4366818D01*
X3208121Y-4369968D01*
G37*
G36*
X3476244Y-4371340D02*
G01*
X3490468Y-4370882D01*
X3504488Y-4368596D01*
X3518103Y-4364583D01*
X3531108Y-4358792D01*
X3543249Y-4351426D01*
X3554374Y-4342587D01*
X3564229Y-4332376D01*
X3572764Y-4320997D01*
X3579723Y-4308602D01*
X3585057Y-4295444D01*
X3588664Y-4281678D01*
X3590493Y-4267606D01*
X3590493Y-4253382D01*
X3588664Y-4239310D01*
X3585057Y-4225544D01*
X3579723Y-4212386D01*
X3572764Y-4199991D01*
X3564229Y-4188612D01*
X3554374Y-4178401D01*
X3543249Y-4169562D01*
X3531108Y-4162196D01*
X3518103Y-4156456D01*
X3504488Y-4152392D01*
X3490468Y-4150106D01*
X3476244Y-4149648D01*
X3462121Y-4151020D01*
X3448253Y-4154170D01*
X3434943Y-4159097D01*
X3422345Y-4165650D01*
X3410661Y-4173778D01*
X3400145Y-4183329D01*
X3390950Y-4194149D01*
X3383178Y-4206087D01*
X3377031Y-4218889D01*
X3372561Y-4232351D01*
X3369818Y-4246321D01*
X3368903Y-4260494D01*
X3369818Y-4274667D01*
X3372561Y-4288637D01*
X3377031Y-4302099D01*
X3383178Y-4314901D01*
X3390950Y-4326839D01*
X3400145Y-4337659D01*
X3410661Y-4347210D01*
X3422345Y-4355338D01*
X3434943Y-4361891D01*
X3448253Y-4366818D01*
X3462121Y-4369968D01*
G37*
G36*
X3730244Y-4371340D02*
G01*
X3744468Y-4370882D01*
X3758488Y-4368596D01*
X3772103Y-4364583D01*
X3785108Y-4358792D01*
X3797249Y-4351426D01*
X3808374Y-4342587D01*
X3818229Y-4332376D01*
X3826764Y-4320997D01*
X3833723Y-4308602D01*
X3839057Y-4295444D01*
X3842664Y-4281678D01*
X3844442Y-4267606D01*
X3844442Y-4253382D01*
X3842664Y-4239310D01*
X3839057Y-4225544D01*
X3833723Y-4212386D01*
X3826764Y-4199991D01*
X3818229Y-4188612D01*
X3808374Y-4178401D01*
X3798519Y-4170578D01*
X3796487Y-4168343D01*
X3795166Y-4165600D01*
X3794709Y-4162653D01*
X3794709Y-1551635D01*
X3795166Y-1548688D01*
X3796487Y-1545945D01*
X3798519Y-1543710D01*
X3808374Y-1535887D01*
X3818229Y-1525676D01*
X3826764Y-1514297D01*
X3833723Y-1501902D01*
X3839057Y-1488744D01*
X3842664Y-1474978D01*
X3844442Y-1460906D01*
X3844442Y-1446682D01*
X3842664Y-1432610D01*
X3839057Y-1418844D01*
X3833723Y-1405686D01*
X3826764Y-1393291D01*
X3818229Y-1381912D01*
X3808374Y-1371701D01*
X3797249Y-1362862D01*
X3785108Y-1355496D01*
X3772103Y-1349756D01*
X3758488Y-1345692D01*
X3744468Y-1343406D01*
X3730244Y-1342948D01*
X3716121Y-1344320D01*
X3702253Y-1347470D01*
X3688943Y-1352397D01*
X3676345Y-1358950D01*
X3664661Y-1367078D01*
X3654145Y-1376629D01*
X3644950Y-1387449D01*
X3637178Y-1399387D01*
X3631031Y-1412189D01*
X3626561Y-1425651D01*
X3623818Y-1439621D01*
X3622903Y-1453794D01*
X3623818Y-1467967D01*
X3626561Y-1481937D01*
X3631031Y-1495399D01*
X3637178Y-1508201D01*
X3644950Y-1520139D01*
X3654145Y-1530959D01*
X3664661Y-1540510D01*
X3668522Y-1543202D01*
X3670858Y-1545437D01*
X3672382Y-1548333D01*
X3672890Y-1551533D01*
X3672890Y-4162755D01*
X3672382Y-4165955D01*
X3670858Y-4168851D01*
X3668522Y-4171086D01*
X3664661Y-4173778D01*
X3654145Y-4183329D01*
X3644950Y-4194149D01*
X3637178Y-4206087D01*
X3631031Y-4218889D01*
X3626561Y-4232351D01*
X3623818Y-4246321D01*
X3622903Y-4260494D01*
X3623818Y-4274667D01*
X3626561Y-4288637D01*
X3631031Y-4302099D01*
X3637178Y-4314901D01*
X3644950Y-4326839D01*
X3654145Y-4337659D01*
X3664661Y-4347210D01*
X3676345Y-4355338D01*
X3688943Y-4361891D01*
X3702253Y-4366818D01*
X3716121Y-4369968D01*
G37*
G36*
X8657844Y-4358640D02*
G01*
X8672068Y-4358182D01*
X8686088Y-4355896D01*
X8699703Y-4351883D01*
X8712708Y-4346092D01*
X8724849Y-4338726D01*
X8735974Y-4329887D01*
X8745829Y-4319676D01*
X8754364Y-4308297D01*
X8761323Y-4295902D01*
X8766657Y-4282744D01*
X8770264Y-4268978D01*
X8772093Y-4254906D01*
X8772093Y-4240682D01*
X8770264Y-4226610D01*
X8766657Y-4212844D01*
X8761323Y-4199686D01*
X8754364Y-4187291D01*
X8745829Y-4175912D01*
X8735974Y-4165701D01*
X8724849Y-4156862D01*
X8712708Y-4149496D01*
X8699703Y-4143756D01*
X8686088Y-4139692D01*
X8672068Y-4137406D01*
X8657844Y-4136948D01*
X8643721Y-4138320D01*
X8629853Y-4141470D01*
X8616543Y-4146397D01*
X8603945Y-4152950D01*
X8592261Y-4161078D01*
X8581745Y-4170629D01*
X8572550Y-4181449D01*
X8564778Y-4193387D01*
X8558631Y-4206189D01*
X8554161Y-4219651D01*
X8551418Y-4233621D01*
X8550503Y-4247794D01*
X8551418Y-4261967D01*
X8554161Y-4275937D01*
X8558631Y-4289399D01*
X8564778Y-4302201D01*
X8572550Y-4314139D01*
X8581745Y-4324959D01*
X8592261Y-4334510D01*
X8603945Y-4342638D01*
X8616543Y-4349191D01*
X8629853Y-4354118D01*
X8643721Y-4357268D01*
G37*
G36*
X10931144Y-4358640D02*
G01*
X10945368Y-4358182D01*
X10959388Y-4355896D01*
X10973003Y-4351883D01*
X10986008Y-4346092D01*
X10998149Y-4338726D01*
X11009274Y-4329887D01*
X11019129Y-4319676D01*
X11027664Y-4308297D01*
X11034623Y-4295902D01*
X11039957Y-4282744D01*
X11043564Y-4268978D01*
X11045393Y-4254906D01*
X11045393Y-4240682D01*
X11043564Y-4226610D01*
X11039957Y-4212844D01*
X11034623Y-4199686D01*
X11027664Y-4187291D01*
X11019129Y-4175912D01*
X11009274Y-4165701D01*
X10998149Y-4156862D01*
X10986008Y-4149496D01*
X10973003Y-4143756D01*
X10959388Y-4139692D01*
X10945368Y-4137406D01*
X10931144Y-4136948D01*
X10917021Y-4138320D01*
X10903153Y-4141470D01*
X10889843Y-4146397D01*
X10877245Y-4152950D01*
X10865561Y-4161078D01*
X10855045Y-4170629D01*
X10845850Y-4181449D01*
X10838078Y-4193387D01*
X10831931Y-4206189D01*
X10827461Y-4219651D01*
X10824718Y-4233621D01*
X10823803Y-4247794D01*
X10824718Y-4261967D01*
X10827461Y-4275937D01*
X10831931Y-4289399D01*
X10838078Y-4302201D01*
X10845850Y-4314139D01*
X10855045Y-4324959D01*
X10865561Y-4334510D01*
X10877245Y-4342638D01*
X10889843Y-4349191D01*
X10903153Y-4354118D01*
X10917021Y-4357268D01*
G37*
G36*
X11185144Y-4358640D02*
G01*
X11199368Y-4358182D01*
X11213388Y-4355896D01*
X11227003Y-4351883D01*
X11240008Y-4346092D01*
X11252149Y-4338726D01*
X11263274Y-4329887D01*
X11273129Y-4319676D01*
X11281664Y-4308297D01*
X11288623Y-4295902D01*
X11293957Y-4282744D01*
X11297564Y-4268978D01*
X11299393Y-4254906D01*
X11299393Y-4240682D01*
X11297564Y-4226610D01*
X11293957Y-4212844D01*
X11288623Y-4199686D01*
X11281664Y-4187291D01*
X11273129Y-4175912D01*
X11263274Y-4165701D01*
X11252149Y-4156862D01*
X11240008Y-4149496D01*
X11227003Y-4143756D01*
X11213388Y-4139692D01*
X11199368Y-4137406D01*
X11185144Y-4136948D01*
X11171021Y-4138320D01*
X11157153Y-4141470D01*
X11143843Y-4146397D01*
X11131245Y-4152950D01*
X11119561Y-4161078D01*
X11109045Y-4170629D01*
X11099850Y-4181449D01*
X11092078Y-4193387D01*
X11085931Y-4206189D01*
X11081461Y-4219651D01*
X11078718Y-4233621D01*
X11077803Y-4247794D01*
X11078718Y-4261967D01*
X11081461Y-4275937D01*
X11085931Y-4289399D01*
X11092078Y-4302201D01*
X11099850Y-4314139D01*
X11109045Y-4324959D01*
X11119561Y-4334510D01*
X11131245Y-4342638D01*
X11143843Y-4349191D01*
X11157153Y-4354118D01*
X11171021Y-4357268D01*
G37*
G36*
X8403844Y-4358640D02*
G01*
X8418068Y-4358182D01*
X8432088Y-4355896D01*
X8445703Y-4351883D01*
X8458708Y-4346092D01*
X8470849Y-4338726D01*
X8481974Y-4329887D01*
X8491829Y-4319676D01*
X8500364Y-4308297D01*
X8507323Y-4295902D01*
X8512657Y-4282744D01*
X8516264Y-4268978D01*
X8518093Y-4254906D01*
X8518093Y-4240682D01*
X8516264Y-4226610D01*
X8512657Y-4212844D01*
X8507323Y-4199686D01*
X8500364Y-4187291D01*
X8491829Y-4175912D01*
X8481974Y-4165701D01*
X8470849Y-4156862D01*
X8458708Y-4149496D01*
X8445703Y-4143756D01*
X8432088Y-4139692D01*
X8418068Y-4137406D01*
X8403844Y-4136948D01*
X8389721Y-4138320D01*
X8375853Y-4141470D01*
X8362543Y-4146397D01*
X8349945Y-4152950D01*
X8338261Y-4161078D01*
X8327745Y-4170629D01*
X8318550Y-4181449D01*
X8310778Y-4193387D01*
X8304631Y-4206189D01*
X8300161Y-4219651D01*
X8297418Y-4233621D01*
X8296503Y-4247794D01*
X8297418Y-4261967D01*
X8300161Y-4275937D01*
X8304631Y-4289399D01*
X8310778Y-4302201D01*
X8318550Y-4314139D01*
X8327745Y-4324959D01*
X8338261Y-4334510D01*
X8349945Y-4342638D01*
X8362543Y-4349191D01*
X8375853Y-4354118D01*
X8389721Y-4357268D01*
G37*
G36*
X8911844Y-4358640D02*
G01*
X8926068Y-4358182D01*
X8940088Y-4355896D01*
X8953703Y-4351883D01*
X8966708Y-4346092D01*
X8978849Y-4338726D01*
X8989974Y-4329887D01*
X8999829Y-4319676D01*
X9008364Y-4308297D01*
X9015323Y-4295902D01*
X9020657Y-4282744D01*
X9024264Y-4268978D01*
X9026042Y-4254906D01*
X9026042Y-4240682D01*
X9024264Y-4226610D01*
X9020657Y-4212844D01*
X9015323Y-4199686D01*
X9008364Y-4187291D01*
X8999829Y-4175912D01*
X8989974Y-4165701D01*
X8978849Y-4156862D01*
X8966708Y-4149496D01*
X8956954Y-4145178D01*
X8953754Y-4142943D01*
X8951671Y-4139692D01*
X8950909Y-4135882D01*
X8950909Y-1551635D01*
X8951366Y-1548688D01*
X8952687Y-1545945D01*
X8954719Y-1543710D01*
X8964574Y-1535887D01*
X8974429Y-1525676D01*
X8982964Y-1514297D01*
X8989923Y-1501902D01*
X8995257Y-1488744D01*
X8998864Y-1474978D01*
X9000642Y-1460906D01*
X9000642Y-1446682D01*
X8998864Y-1432610D01*
X8995257Y-1418844D01*
X8989923Y-1405686D01*
X8982964Y-1393291D01*
X8974429Y-1381912D01*
X8964574Y-1371701D01*
X8953449Y-1362862D01*
X8941308Y-1355496D01*
X8928303Y-1349756D01*
X8914688Y-1345692D01*
X8900668Y-1343406D01*
X8886444Y-1342948D01*
X8872321Y-1344320D01*
X8858453Y-1347470D01*
X8845143Y-1352397D01*
X8832545Y-1358950D01*
X8820861Y-1367078D01*
X8810345Y-1376629D01*
X8801150Y-1387449D01*
X8793378Y-1399387D01*
X8787231Y-1412189D01*
X8782761Y-1425651D01*
X8780018Y-1439621D01*
X8779103Y-1453794D01*
X8780018Y-1467967D01*
X8782761Y-1481937D01*
X8787231Y-1495399D01*
X8793378Y-1508201D01*
X8801150Y-1520139D01*
X8810345Y-1530959D01*
X8820861Y-1540510D01*
X8824722Y-1543202D01*
X8827058Y-1545437D01*
X8828582Y-1548333D01*
X8829090Y-1551533D01*
X8829090Y-4174744D01*
X8828481Y-4178249D01*
X8818778Y-4193387D01*
X8812631Y-4206189D01*
X8808161Y-4219651D01*
X8805418Y-4233621D01*
X8804503Y-4247794D01*
X8805418Y-4261967D01*
X8808161Y-4275937D01*
X8812631Y-4289399D01*
X8818778Y-4302201D01*
X8826550Y-4314139D01*
X8835745Y-4324959D01*
X8846261Y-4334510D01*
X8857945Y-4342638D01*
X8870543Y-4349191D01*
X8883853Y-4354118D01*
X8897721Y-4357268D01*
G37*
G36*
X11491569Y-4347210D02*
G01*
X11494008Y-4346092D01*
X11506149Y-4338726D01*
X11517274Y-4329887D01*
X11527129Y-4319676D01*
X11535664Y-4308297D01*
X11542217Y-4296664D01*
X11491569Y-4296664D01*
G37*
G36*
X11393881Y-4347108D02*
G01*
X11393881Y-4296664D01*
X11343386Y-4296664D01*
X11346078Y-4302201D01*
X11353850Y-4314139D01*
X11363045Y-4324959D01*
X11373561Y-4334510D01*
X11385245Y-4342638D01*
G37*
G36*
X6016244Y-4345940D02*
G01*
X6030468Y-4345482D01*
X6044488Y-4343196D01*
X6058103Y-4339183D01*
X6071108Y-4333392D01*
X6083249Y-4326026D01*
X6094374Y-4317187D01*
X6104229Y-4306976D01*
X6112764Y-4295597D01*
X6119723Y-4283202D01*
X6125057Y-4270044D01*
X6128664Y-4256278D01*
X6130493Y-4242206D01*
X6130493Y-4227982D01*
X6128664Y-4213910D01*
X6125057Y-4200144D01*
X6119723Y-4186986D01*
X6112764Y-4174591D01*
X6104229Y-4163212D01*
X6094374Y-4153001D01*
X6083249Y-4144162D01*
X6071108Y-4136796D01*
X6058103Y-4131056D01*
X6044488Y-4126992D01*
X6030468Y-4124706D01*
X6016244Y-4124248D01*
X6002121Y-4125620D01*
X5988253Y-4128770D01*
X5974943Y-4133697D01*
X5962345Y-4140250D01*
X5950661Y-4148378D01*
X5940145Y-4157929D01*
X5930950Y-4168749D01*
X5923178Y-4180687D01*
X5917031Y-4193489D01*
X5912561Y-4206951D01*
X5909818Y-4220921D01*
X5908903Y-4235094D01*
X5909818Y-4249267D01*
X5912561Y-4263237D01*
X5917031Y-4276699D01*
X5923178Y-4289501D01*
X5930950Y-4301439D01*
X5940145Y-4312259D01*
X5950661Y-4321810D01*
X5962345Y-4329938D01*
X5974943Y-4336491D01*
X5988253Y-4341418D01*
X6002121Y-4344568D01*
G37*
G36*
X5762244Y-4345940D02*
G01*
X5776468Y-4345482D01*
X5790488Y-4343196D01*
X5804103Y-4339183D01*
X5817108Y-4333392D01*
X5829249Y-4326026D01*
X5840374Y-4317187D01*
X5850229Y-4306976D01*
X5858764Y-4295597D01*
X5865723Y-4283202D01*
X5871057Y-4270044D01*
X5874664Y-4256278D01*
X5876493Y-4242206D01*
X5876493Y-4227982D01*
X5874664Y-4213910D01*
X5871057Y-4200144D01*
X5865723Y-4186986D01*
X5858764Y-4174591D01*
X5850229Y-4163212D01*
X5840374Y-4153001D01*
X5830519Y-4145178D01*
X5828487Y-4142943D01*
X5827166Y-4140200D01*
X5826709Y-4137202D01*
X5826709Y-1526286D01*
X5827166Y-1523288D01*
X5828487Y-1520545D01*
X5830519Y-1518310D01*
X5840374Y-1510487D01*
X5850229Y-1500276D01*
X5858764Y-1488897D01*
X5865723Y-1476502D01*
X5871057Y-1463344D01*
X5874664Y-1449578D01*
X5876493Y-1435506D01*
X5876493Y-1421282D01*
X5874664Y-1407210D01*
X5871057Y-1393444D01*
X5865723Y-1380286D01*
X5858764Y-1367891D01*
X5850229Y-1356512D01*
X5840374Y-1346301D01*
X5829249Y-1337462D01*
X5817108Y-1330096D01*
X5804103Y-1324356D01*
X5790488Y-1320292D01*
X5776468Y-1318006D01*
X5762244Y-1317548D01*
X5748121Y-1318920D01*
X5734253Y-1322070D01*
X5720943Y-1326997D01*
X5708345Y-1333550D01*
X5696661Y-1341678D01*
X5686145Y-1351229D01*
X5676950Y-1362049D01*
X5669178Y-1373987D01*
X5663031Y-1386789D01*
X5658561Y-1400251D01*
X5655818Y-1414221D01*
X5654903Y-1428394D01*
X5655818Y-1442567D01*
X5658561Y-1456537D01*
X5663031Y-1469999D01*
X5669178Y-1482801D01*
X5676950Y-1494739D01*
X5686145Y-1505559D01*
X5696661Y-1515110D01*
X5700522Y-1517802D01*
X5702858Y-1520037D01*
X5704382Y-1522933D01*
X5704890Y-1526133D01*
X5704890Y-4137355D01*
X5704382Y-4140555D01*
X5702858Y-4143451D01*
X5700522Y-4145686D01*
X5696661Y-4148378D01*
X5686145Y-4157929D01*
X5676950Y-4168749D01*
X5669178Y-4180687D01*
X5663031Y-4193489D01*
X5658561Y-4206951D01*
X5655818Y-4220921D01*
X5654903Y-4235094D01*
X5655818Y-4249267D01*
X5658561Y-4263237D01*
X5663031Y-4276699D01*
X5669178Y-4289501D01*
X5676950Y-4301439D01*
X5686145Y-4312259D01*
X5696661Y-4321810D01*
X5708345Y-4329938D01*
X5720943Y-4336491D01*
X5734253Y-4341418D01*
X5748121Y-4344568D01*
G37*
G36*
X6322669Y-4334510D02*
G01*
X6325108Y-4333392D01*
X6337249Y-4326026D01*
X6348374Y-4317187D01*
X6358229Y-4306976D01*
X6366764Y-4295597D01*
X6373317Y-4283964D01*
X6322669Y-4283964D01*
G37*
G36*
X6224981Y-4334408D02*
G01*
X6224981Y-4283964D01*
X6174486Y-4283964D01*
X6177178Y-4289501D01*
X6184950Y-4301439D01*
X6194145Y-4312259D01*
X6204661Y-4321810D01*
X6216345Y-4329938D01*
G37*
G36*
X11343386Y-4198924D02*
G01*
X11393881Y-4198924D01*
X11393881Y-4148480D01*
X11385245Y-4152950D01*
X11373561Y-4161078D01*
X11363045Y-4170629D01*
X11353850Y-4181449D01*
X11346078Y-4193387D01*
G37*
G36*
X11491569Y-4198924D02*
G01*
X11542217Y-4198924D01*
X11535664Y-4187291D01*
X11527129Y-4175912D01*
X11517274Y-4165701D01*
X11506149Y-4156862D01*
X11494008Y-4149496D01*
X11491569Y-4148378D01*
G37*
G36*
X6174486Y-4186224D02*
G01*
X6224981Y-4186224D01*
X6224981Y-4135780D01*
X6216345Y-4140250D01*
X6204661Y-4148378D01*
X6194145Y-4157929D01*
X6184950Y-4168749D01*
X6177178Y-4180687D01*
G37*
G36*
X6322669Y-4186224D02*
G01*
X6373317Y-4186224D01*
X6366764Y-4174591D01*
X6358229Y-4163212D01*
X6348374Y-4153001D01*
X6337249Y-4144162D01*
X6325108Y-4136796D01*
X6322669Y-4135678D01*
G37*
G36*
X2910382Y-2389428D02*
G01*
X2929229Y-2389428D01*
X2947974Y-2387549D01*
X2966415Y-2383739D01*
X2984347Y-2378100D01*
X3001670Y-2370683D01*
X3018129Y-2361539D01*
X3033572Y-2350770D01*
X3047898Y-2338527D01*
X3060852Y-2324862D01*
X3072384Y-2309977D01*
X3082340Y-2294026D01*
X3090621Y-2277110D01*
X3097174Y-2259431D01*
X3101898Y-2241194D01*
X3104743Y-2222601D01*
X3105708Y-2203805D01*
X3104743Y-2184958D01*
X3101898Y-2166366D01*
X3097174Y-2148128D01*
X3090621Y-2130501D01*
X3082340Y-2113584D01*
X3072384Y-2097582D01*
X3060852Y-2082698D01*
X3047898Y-2069033D01*
X3033572Y-2056790D01*
X3018129Y-2046020D01*
X3001670Y-2036876D01*
X2984347Y-2029460D01*
X2966415Y-2023821D01*
X2947974Y-2020062D01*
X2929229Y-2018131D01*
X2910382Y-2018131D01*
X2891637Y-2020062D01*
X2873197Y-2023821D01*
X2855264Y-2029460D01*
X2837942Y-2036876D01*
X2821482Y-2046020D01*
X2806039Y-2056790D01*
X2791714Y-2069033D01*
X2778760Y-2082698D01*
X2767228Y-2097582D01*
X2757271Y-2113584D01*
X2748991Y-2130501D01*
X2742438Y-2148128D01*
X2737713Y-2166366D01*
X2734868Y-2184958D01*
X2733903Y-2203805D01*
X2734868Y-2222601D01*
X2737713Y-2241194D01*
X2742438Y-2259431D01*
X2748991Y-2277110D01*
X2757271Y-2294026D01*
X2767228Y-2309977D01*
X2778760Y-2324862D01*
X2791714Y-2338527D01*
X2806039Y-2350770D01*
X2821482Y-2361539D01*
X2837942Y-2370683D01*
X2855264Y-2378100D01*
X2873197Y-2383739D01*
X2891637Y-2387549D01*
G37*
G36*
X9186570Y-2389428D02*
G01*
X9205417Y-2389428D01*
X9224162Y-2387549D01*
X9242602Y-2383739D01*
X9260586Y-2378100D01*
X9277858Y-2370683D01*
X9294317Y-2361539D01*
X9309811Y-2350770D01*
X9324086Y-2338527D01*
X9337040Y-2324862D01*
X9348571Y-2309977D01*
X9358528Y-2294026D01*
X9366859Y-2277110D01*
X9373362Y-2259431D01*
X9378086Y-2241194D01*
X9380931Y-2222601D01*
X9381896Y-2203805D01*
X9380931Y-2185009D01*
X9378086Y-2166366D01*
X9373362Y-2148128D01*
X9366859Y-2130501D01*
X9358528Y-2113584D01*
X9348571Y-2097582D01*
X9337040Y-2082698D01*
X9324086Y-2069033D01*
X9309811Y-2056790D01*
X9294317Y-2046020D01*
X9277858Y-2036876D01*
X9260586Y-2029460D01*
X9242602Y-2023821D01*
X9224162Y-2020062D01*
X9205417Y-2018131D01*
X9186570Y-2018131D01*
X9167876Y-2020062D01*
X9149435Y-2023821D01*
X9131452Y-2029460D01*
X9114129Y-2036876D01*
X9097670Y-2046020D01*
X9082227Y-2056790D01*
X9067952Y-2069033D01*
X9054947Y-2082698D01*
X9043416Y-2097582D01*
X9033459Y-2113584D01*
X9025178Y-2130501D01*
X9018625Y-2148128D01*
X9013901Y-2166366D01*
X9011056Y-2185009D01*
X9010091Y-2203805D01*
X9011056Y-2222601D01*
X9013901Y-2241194D01*
X9018625Y-2259431D01*
X9025178Y-2277110D01*
X9033459Y-2294026D01*
X9043416Y-2309977D01*
X9054947Y-2324862D01*
X9067952Y-2338527D01*
X9082227Y-2350770D01*
X9097670Y-2361539D01*
X9114129Y-2370683D01*
X9131452Y-2378100D01*
X9149435Y-2383739D01*
X9167876Y-2387549D01*
G37*
G36*
X4030370Y-2389428D02*
G01*
X4049217Y-2389428D01*
X4067962Y-2387549D01*
X4086402Y-2383739D01*
X4104386Y-2378100D01*
X4121658Y-2370683D01*
X4138117Y-2361539D01*
X4153611Y-2350770D01*
X4167886Y-2338527D01*
X4180840Y-2324862D01*
X4192371Y-2309977D01*
X4202328Y-2294026D01*
X4210659Y-2277110D01*
X4217162Y-2259431D01*
X4221886Y-2241194D01*
X4224731Y-2222601D01*
X4225696Y-2203805D01*
X4224731Y-2185009D01*
X4221886Y-2166366D01*
X4217162Y-2148128D01*
X4210659Y-2130501D01*
X4202328Y-2113584D01*
X4192371Y-2097582D01*
X4180840Y-2082698D01*
X4167886Y-2069033D01*
X4153611Y-2056790D01*
X4138117Y-2046020D01*
X4121658Y-2036876D01*
X4104386Y-2029460D01*
X4086402Y-2023821D01*
X4067962Y-2020062D01*
X4049217Y-2018131D01*
X4030370Y-2018131D01*
X4011676Y-2020062D01*
X3993235Y-2023821D01*
X3975252Y-2029460D01*
X3957929Y-2036876D01*
X3941470Y-2046020D01*
X3926027Y-2056790D01*
X3911752Y-2069033D01*
X3898747Y-2082698D01*
X3887215Y-2097582D01*
X3877259Y-2113584D01*
X3868978Y-2130501D01*
X3862425Y-2148128D01*
X3857701Y-2166366D01*
X3854856Y-2185009D01*
X3853891Y-2203805D01*
X3854856Y-2222601D01*
X3857701Y-2241194D01*
X3862425Y-2259431D01*
X3868978Y-2277110D01*
X3877259Y-2294026D01*
X3887215Y-2309977D01*
X3898747Y-2324862D01*
X3911752Y-2338527D01*
X3926027Y-2350770D01*
X3941470Y-2361539D01*
X3957929Y-2370683D01*
X3975252Y-2378100D01*
X3993235Y-2383739D01*
X4011676Y-2387549D01*
G37*
G36*
X8066582Y-2389428D02*
G01*
X8085429Y-2389428D01*
X8104174Y-2387549D01*
X8122615Y-2383739D01*
X8140547Y-2378100D01*
X8157870Y-2370683D01*
X8174329Y-2361539D01*
X8189772Y-2350770D01*
X8204098Y-2338527D01*
X8217052Y-2324862D01*
X8228584Y-2309977D01*
X8238540Y-2294026D01*
X8246821Y-2277110D01*
X8253374Y-2259431D01*
X8258098Y-2241194D01*
X8260943Y-2222601D01*
X8261908Y-2203805D01*
X8260943Y-2184958D01*
X8258098Y-2166366D01*
X8253374Y-2148128D01*
X8246821Y-2130501D01*
X8238540Y-2113584D01*
X8228584Y-2097582D01*
X8217052Y-2082698D01*
X8204098Y-2069033D01*
X8189772Y-2056790D01*
X8174329Y-2046020D01*
X8157870Y-2036876D01*
X8140547Y-2029460D01*
X8122615Y-2023821D01*
X8104174Y-2020062D01*
X8085429Y-2018131D01*
X8066582Y-2018131D01*
X8047837Y-2020062D01*
X8029397Y-2023821D01*
X8011464Y-2029460D01*
X7994142Y-2036876D01*
X7977682Y-2046020D01*
X7962239Y-2056790D01*
X7947914Y-2069033D01*
X7934959Y-2082698D01*
X7923428Y-2097582D01*
X7913471Y-2113584D01*
X7905191Y-2130501D01*
X7898638Y-2148128D01*
X7893913Y-2166366D01*
X7891068Y-2184958D01*
X7890103Y-2203805D01*
X7891068Y-2222601D01*
X7893913Y-2241194D01*
X7898638Y-2259431D01*
X7905191Y-2277110D01*
X7913471Y-2294026D01*
X7923428Y-2309977D01*
X7934959Y-2324862D01*
X7947914Y-2338527D01*
X7962239Y-2350770D01*
X7977682Y-2361539D01*
X7994142Y-2370683D01*
X8011464Y-2378100D01*
X8029397Y-2383739D01*
X8047837Y-2387549D01*
G37*
G36*
X11751970Y-2364028D02*
G01*
X11770817Y-2364028D01*
X11789562Y-2362149D01*
X11808002Y-2358339D01*
X11825986Y-2352700D01*
X11843258Y-2345283D01*
X11859717Y-2336139D01*
X11875211Y-2325370D01*
X11889486Y-2313127D01*
X11902440Y-2299462D01*
X11913971Y-2284577D01*
X11923928Y-2268626D01*
X11932259Y-2251710D01*
X11938762Y-2234031D01*
X11943486Y-2215794D01*
X11946331Y-2197201D01*
X11947296Y-2178405D01*
X11946331Y-2159609D01*
X11943486Y-2140966D01*
X11938762Y-2122728D01*
X11932259Y-2105101D01*
X11923928Y-2088184D01*
X11913971Y-2072182D01*
X11902440Y-2057298D01*
X11889486Y-2043633D01*
X11875211Y-2031390D01*
X11859717Y-2020620D01*
X11843258Y-2011476D01*
X11825986Y-2004060D01*
X11808002Y-1998421D01*
X11789562Y-1994662D01*
X11770817Y-1992731D01*
X11751970Y-1992731D01*
X11733276Y-1994662D01*
X11714835Y-1998421D01*
X11696852Y-2004060D01*
X11679529Y-2011476D01*
X11663070Y-2020620D01*
X11647627Y-2031390D01*
X11633352Y-2043633D01*
X11620347Y-2057298D01*
X11608816Y-2072182D01*
X11598859Y-2088184D01*
X11590578Y-2105101D01*
X11584025Y-2122728D01*
X11579301Y-2140966D01*
X11576456Y-2159609D01*
X11575491Y-2178405D01*
X11576456Y-2197201D01*
X11579301Y-2215794D01*
X11584025Y-2234031D01*
X11590578Y-2251710D01*
X11598859Y-2268626D01*
X11608816Y-2284577D01*
X11620347Y-2299462D01*
X11633352Y-2313127D01*
X11647627Y-2325370D01*
X11663070Y-2336139D01*
X11679529Y-2345283D01*
X11696852Y-2352700D01*
X11714835Y-2358339D01*
X11733276Y-2362149D01*
G37*
G36*
X5450382Y-2364028D02*
G01*
X5469229Y-2364028D01*
X5487974Y-2362149D01*
X5506415Y-2358339D01*
X5524347Y-2352700D01*
X5541670Y-2345283D01*
X5558129Y-2336139D01*
X5573572Y-2325370D01*
X5587898Y-2313127D01*
X5600852Y-2299462D01*
X5612384Y-2284577D01*
X5622340Y-2268626D01*
X5630621Y-2251710D01*
X5637174Y-2234031D01*
X5641898Y-2215794D01*
X5644743Y-2197201D01*
X5645708Y-2178405D01*
X5644743Y-2159558D01*
X5641898Y-2140966D01*
X5637174Y-2122728D01*
X5630621Y-2105101D01*
X5622340Y-2088184D01*
X5612384Y-2072182D01*
X5600852Y-2057298D01*
X5587898Y-2043633D01*
X5573572Y-2031390D01*
X5558129Y-2020620D01*
X5541670Y-2011476D01*
X5524347Y-2004060D01*
X5506415Y-1998421D01*
X5487974Y-1994662D01*
X5469229Y-1992731D01*
X5450382Y-1992731D01*
X5431637Y-1994662D01*
X5413197Y-1998421D01*
X5395264Y-2004060D01*
X5377942Y-2011476D01*
X5361482Y-2020620D01*
X5346039Y-2031390D01*
X5331714Y-2043633D01*
X5318760Y-2057298D01*
X5307228Y-2072182D01*
X5297271Y-2088184D01*
X5288991Y-2105101D01*
X5282438Y-2122728D01*
X5277713Y-2140966D01*
X5274868Y-2159558D01*
X5273903Y-2178405D01*
X5274868Y-2197201D01*
X5277713Y-2215794D01*
X5282438Y-2234031D01*
X5288991Y-2251710D01*
X5297271Y-2268626D01*
X5307228Y-2284577D01*
X5318760Y-2299462D01*
X5331714Y-2313127D01*
X5346039Y-2325370D01*
X5361482Y-2336139D01*
X5377942Y-2345283D01*
X5395264Y-2352700D01*
X5413197Y-2358339D01*
X5431637Y-2362149D01*
G37*
G36*
X6570370Y-2364028D02*
G01*
X6589217Y-2364028D01*
X6607962Y-2362149D01*
X6626402Y-2358339D01*
X6644386Y-2352700D01*
X6661658Y-2345283D01*
X6678117Y-2336139D01*
X6693611Y-2325370D01*
X6707886Y-2313127D01*
X6720840Y-2299462D01*
X6732371Y-2284577D01*
X6742328Y-2268626D01*
X6750659Y-2251710D01*
X6757162Y-2234031D01*
X6761886Y-2215794D01*
X6764731Y-2197201D01*
X6765696Y-2178405D01*
X6764731Y-2159609D01*
X6761886Y-2140966D01*
X6757162Y-2122728D01*
X6750659Y-2105101D01*
X6742328Y-2088184D01*
X6732371Y-2072182D01*
X6720840Y-2057298D01*
X6707886Y-2043633D01*
X6693611Y-2031390D01*
X6678117Y-2020620D01*
X6661658Y-2011476D01*
X6644386Y-2004060D01*
X6626402Y-1998421D01*
X6607962Y-1994662D01*
X6589217Y-1992731D01*
X6570370Y-1992731D01*
X6551676Y-1994662D01*
X6533235Y-1998421D01*
X6515252Y-2004060D01*
X6497929Y-2011476D01*
X6481470Y-2020620D01*
X6466027Y-2031390D01*
X6451752Y-2043633D01*
X6438747Y-2057298D01*
X6427216Y-2072182D01*
X6417259Y-2088184D01*
X6408978Y-2105101D01*
X6402425Y-2122728D01*
X6397701Y-2140966D01*
X6394856Y-2159609D01*
X6393891Y-2178405D01*
X6394856Y-2197201D01*
X6397701Y-2215794D01*
X6402425Y-2234031D01*
X6408978Y-2251710D01*
X6417259Y-2268626D01*
X6427216Y-2284577D01*
X6438747Y-2299462D01*
X6451752Y-2313127D01*
X6466027Y-2325370D01*
X6481470Y-2336139D01*
X6497929Y-2345283D01*
X6515252Y-2352700D01*
X6533235Y-2358339D01*
X6551676Y-2362149D01*
G37*
G36*
X10631982Y-2364028D02*
G01*
X10650829Y-2364028D01*
X10669574Y-2362149D01*
X10688015Y-2358339D01*
X10705947Y-2352700D01*
X10723270Y-2345283D01*
X10739729Y-2336139D01*
X10755172Y-2325370D01*
X10769498Y-2313127D01*
X10782452Y-2299462D01*
X10793984Y-2284577D01*
X10803940Y-2268626D01*
X10812221Y-2251710D01*
X10818774Y-2234031D01*
X10823498Y-2215794D01*
X10826343Y-2197201D01*
X10827308Y-2178405D01*
X10826343Y-2159558D01*
X10823498Y-2140966D01*
X10818774Y-2122728D01*
X10812221Y-2105101D01*
X10803940Y-2088184D01*
X10793984Y-2072182D01*
X10782452Y-2057298D01*
X10769498Y-2043633D01*
X10755172Y-2031390D01*
X10739729Y-2020620D01*
X10723270Y-2011476D01*
X10705947Y-2004060D01*
X10688015Y-1998421D01*
X10669574Y-1994662D01*
X10650829Y-1992731D01*
X10631982Y-1992731D01*
X10613237Y-1994662D01*
X10594797Y-1998421D01*
X10576864Y-2004060D01*
X10559542Y-2011476D01*
X10543082Y-2020620D01*
X10527639Y-2031390D01*
X10513314Y-2043633D01*
X10500360Y-2057298D01*
X10488828Y-2072182D01*
X10478871Y-2088184D01*
X10470591Y-2105101D01*
X10464038Y-2122728D01*
X10459313Y-2140966D01*
X10456468Y-2159558D01*
X10455503Y-2178405D01*
X10456468Y-2197201D01*
X10459313Y-2215794D01*
X10464038Y-2234031D01*
X10470591Y-2251710D01*
X10478871Y-2268626D01*
X10488828Y-2284577D01*
X10500360Y-2299462D01*
X10513314Y-2313127D01*
X10527639Y-2325370D01*
X10543082Y-2336139D01*
X10559542Y-2345283D01*
X10576864Y-2352700D01*
X10594797Y-2358339D01*
X10613237Y-2362149D01*
G37*
G36*
X3476244Y-1564640D02*
G01*
X3490468Y-1564182D01*
X3504488Y-1561896D01*
X3518103Y-1557883D01*
X3531108Y-1552092D01*
X3543249Y-1544726D01*
X3554374Y-1535887D01*
X3564229Y-1525676D01*
X3572764Y-1514297D01*
X3579723Y-1501902D01*
X3585057Y-1488744D01*
X3588664Y-1474978D01*
X3590493Y-1460906D01*
X3590493Y-1446682D01*
X3588664Y-1432610D01*
X3585057Y-1418844D01*
X3579723Y-1405686D01*
X3572764Y-1393291D01*
X3564229Y-1381912D01*
X3554374Y-1371701D01*
X3543249Y-1362862D01*
X3531108Y-1355496D01*
X3518103Y-1349756D01*
X3504488Y-1345692D01*
X3490468Y-1343406D01*
X3476244Y-1342948D01*
X3462121Y-1344320D01*
X3448253Y-1347470D01*
X3434943Y-1352397D01*
X3422345Y-1358950D01*
X3410661Y-1367078D01*
X3400145Y-1376629D01*
X3390950Y-1387449D01*
X3383178Y-1399387D01*
X3377031Y-1412189D01*
X3372561Y-1425651D01*
X3369818Y-1439621D01*
X3368903Y-1453794D01*
X3369818Y-1467967D01*
X3372561Y-1481937D01*
X3377031Y-1495399D01*
X3383178Y-1508201D01*
X3390950Y-1520139D01*
X3400145Y-1530959D01*
X3410661Y-1540510D01*
X3422345Y-1548638D01*
X3434943Y-1555191D01*
X3448253Y-1560118D01*
X3462121Y-1563268D01*
G37*
G36*
X8632444Y-1564640D02*
G01*
X8646668Y-1564182D01*
X8660688Y-1561896D01*
X8674303Y-1557883D01*
X8687308Y-1552092D01*
X8699449Y-1544726D01*
X8710574Y-1535887D01*
X8720429Y-1525676D01*
X8728964Y-1514297D01*
X8735923Y-1501902D01*
X8741257Y-1488744D01*
X8744864Y-1474978D01*
X8746693Y-1460906D01*
X8746693Y-1446682D01*
X8744864Y-1432610D01*
X8741257Y-1418844D01*
X8735923Y-1405686D01*
X8728964Y-1393291D01*
X8720429Y-1381912D01*
X8710574Y-1371701D01*
X8699449Y-1362862D01*
X8687308Y-1355496D01*
X8674303Y-1349756D01*
X8660688Y-1345692D01*
X8646668Y-1343406D01*
X8632444Y-1342948D01*
X8618321Y-1344320D01*
X8604453Y-1347470D01*
X8591143Y-1352397D01*
X8578545Y-1358950D01*
X8566861Y-1367078D01*
X8556345Y-1376629D01*
X8547150Y-1387449D01*
X8539378Y-1399387D01*
X8533231Y-1412189D01*
X8528761Y-1425651D01*
X8526018Y-1439621D01*
X8525103Y-1453794D01*
X8526018Y-1467967D01*
X8528761Y-1481937D01*
X8533231Y-1495399D01*
X8539378Y-1508201D01*
X8547150Y-1520139D01*
X8556345Y-1530959D01*
X8566861Y-1540510D01*
X8578545Y-1548638D01*
X8591143Y-1555191D01*
X8604453Y-1560118D01*
X8618321Y-1563268D01*
G37*
G36*
X8378444Y-1564640D02*
G01*
X8392668Y-1564182D01*
X8406688Y-1561896D01*
X8420303Y-1557883D01*
X8433308Y-1552092D01*
X8445449Y-1544726D01*
X8456574Y-1535887D01*
X8466429Y-1525676D01*
X8474964Y-1514297D01*
X8481923Y-1501902D01*
X8487257Y-1488744D01*
X8490864Y-1474978D01*
X8492693Y-1460906D01*
X8492693Y-1446682D01*
X8490864Y-1432610D01*
X8487257Y-1418844D01*
X8481923Y-1405686D01*
X8474964Y-1393291D01*
X8466429Y-1381912D01*
X8456574Y-1371701D01*
X8445449Y-1362862D01*
X8433308Y-1355496D01*
X8420303Y-1349756D01*
X8406688Y-1345692D01*
X8392668Y-1343406D01*
X8378444Y-1342948D01*
X8364321Y-1344320D01*
X8350453Y-1347470D01*
X8337143Y-1352397D01*
X8324545Y-1358950D01*
X8312861Y-1367078D01*
X8302345Y-1376629D01*
X8293150Y-1387449D01*
X8285378Y-1399387D01*
X8279231Y-1412189D01*
X8274761Y-1425651D01*
X8272018Y-1439621D01*
X8271103Y-1453794D01*
X8272018Y-1467967D01*
X8274761Y-1481937D01*
X8279231Y-1495399D01*
X8285378Y-1508201D01*
X8293150Y-1520139D01*
X8302345Y-1530959D01*
X8312861Y-1540510D01*
X8324545Y-1548638D01*
X8337143Y-1555191D01*
X8350453Y-1560118D01*
X8364321Y-1563268D01*
G37*
G36*
X3222244Y-1564640D02*
G01*
X3236468Y-1564182D01*
X3250488Y-1561896D01*
X3264103Y-1557883D01*
X3277108Y-1552092D01*
X3289249Y-1544726D01*
X3300374Y-1535887D01*
X3310229Y-1525676D01*
X3318764Y-1514297D01*
X3325723Y-1501902D01*
X3331057Y-1488744D01*
X3334664Y-1474978D01*
X3336493Y-1460906D01*
X3336493Y-1446682D01*
X3334664Y-1432610D01*
X3331057Y-1418844D01*
X3325723Y-1405686D01*
X3318764Y-1393291D01*
X3310229Y-1381912D01*
X3300374Y-1371701D01*
X3289249Y-1362862D01*
X3277108Y-1355496D01*
X3264103Y-1349756D01*
X3250488Y-1345692D01*
X3236468Y-1343406D01*
X3222244Y-1342948D01*
X3208121Y-1344320D01*
X3194253Y-1347470D01*
X3180943Y-1352397D01*
X3168345Y-1358950D01*
X3156661Y-1367078D01*
X3146145Y-1376629D01*
X3136950Y-1387449D01*
X3129178Y-1399387D01*
X3123031Y-1412189D01*
X3118561Y-1425651D01*
X3115818Y-1439621D01*
X3114903Y-1453794D01*
X3115818Y-1467967D01*
X3118561Y-1481937D01*
X3123031Y-1495399D01*
X3129178Y-1508201D01*
X3136950Y-1520139D01*
X3146145Y-1530959D01*
X3156661Y-1540510D01*
X3168345Y-1548638D01*
X3180943Y-1555191D01*
X3194253Y-1560118D01*
X3208121Y-1563268D01*
G37*
G36*
X10943844Y-1539240D02*
G01*
X10958068Y-1538782D01*
X10972088Y-1536496D01*
X10985703Y-1532483D01*
X10998708Y-1526692D01*
X11010849Y-1519326D01*
X11021974Y-1510487D01*
X11031829Y-1500276D01*
X11040364Y-1488897D01*
X11047323Y-1476502D01*
X11052657Y-1463344D01*
X11056264Y-1449578D01*
X11058093Y-1435506D01*
X11058093Y-1421282D01*
X11056264Y-1407210D01*
X11052657Y-1393444D01*
X11047323Y-1380286D01*
X11040364Y-1367891D01*
X11031829Y-1356512D01*
X11021974Y-1346301D01*
X11010849Y-1337462D01*
X10998708Y-1330096D01*
X10985703Y-1324356D01*
X10972088Y-1320292D01*
X10958068Y-1318006D01*
X10943844Y-1317548D01*
X10929721Y-1318920D01*
X10915853Y-1322070D01*
X10902543Y-1326997D01*
X10889945Y-1333550D01*
X10878261Y-1341678D01*
X10867745Y-1351229D01*
X10858550Y-1362049D01*
X10850778Y-1373987D01*
X10844631Y-1386789D01*
X10840161Y-1400251D01*
X10837418Y-1414221D01*
X10836503Y-1428394D01*
X10837418Y-1442567D01*
X10840161Y-1456537D01*
X10844631Y-1469999D01*
X10850778Y-1482801D01*
X10858550Y-1494739D01*
X10867745Y-1505559D01*
X10878261Y-1515110D01*
X10889945Y-1523238D01*
X10902543Y-1529791D01*
X10915853Y-1534718D01*
X10929721Y-1537868D01*
G37*
G36*
X6016244Y-1539240D02*
G01*
X6030468Y-1538782D01*
X6044488Y-1536496D01*
X6058103Y-1532483D01*
X6071108Y-1526692D01*
X6083249Y-1519326D01*
X6094374Y-1510487D01*
X6104229Y-1500276D01*
X6112764Y-1488897D01*
X6119723Y-1476502D01*
X6125057Y-1463344D01*
X6128664Y-1449578D01*
X6130493Y-1435506D01*
X6130493Y-1421282D01*
X6128664Y-1407210D01*
X6125057Y-1393444D01*
X6119723Y-1380286D01*
X6112764Y-1367891D01*
X6104229Y-1356512D01*
X6094374Y-1346301D01*
X6083249Y-1337462D01*
X6071108Y-1330096D01*
X6058103Y-1324356D01*
X6044488Y-1320292D01*
X6030468Y-1318006D01*
X6016244Y-1317548D01*
X6002121Y-1318920D01*
X5988253Y-1322070D01*
X5974943Y-1326997D01*
X5962345Y-1333550D01*
X5950661Y-1341678D01*
X5940145Y-1351229D01*
X5930950Y-1362049D01*
X5923178Y-1373987D01*
X5917031Y-1386789D01*
X5912561Y-1400251D01*
X5909818Y-1414221D01*
X5908903Y-1428394D01*
X5909818Y-1442567D01*
X5912561Y-1456537D01*
X5917031Y-1469999D01*
X5923178Y-1482801D01*
X5930950Y-1494739D01*
X5940145Y-1505559D01*
X5950661Y-1515110D01*
X5962345Y-1523238D01*
X5974943Y-1529791D01*
X5988253Y-1534718D01*
X6002121Y-1537868D01*
G37*
G36*
X11197844Y-1539240D02*
G01*
X11212068Y-1538782D01*
X11226088Y-1536496D01*
X11239703Y-1532483D01*
X11252708Y-1526692D01*
X11264849Y-1519326D01*
X11275974Y-1510487D01*
X11285829Y-1500276D01*
X11294364Y-1488897D01*
X11301323Y-1476502D01*
X11306657Y-1463344D01*
X11310264Y-1449578D01*
X11312093Y-1435506D01*
X11312093Y-1421282D01*
X11310264Y-1407210D01*
X11306657Y-1393444D01*
X11301323Y-1380286D01*
X11294364Y-1367891D01*
X11285829Y-1356512D01*
X11275974Y-1346301D01*
X11264849Y-1337462D01*
X11252708Y-1330096D01*
X11239703Y-1324356D01*
X11226088Y-1320292D01*
X11212068Y-1318006D01*
X11197844Y-1317548D01*
X11183721Y-1318920D01*
X11169853Y-1322070D01*
X11156543Y-1326997D01*
X11143945Y-1333550D01*
X11132261Y-1341678D01*
X11121745Y-1351229D01*
X11112550Y-1362049D01*
X11104778Y-1373987D01*
X11098631Y-1386789D01*
X11094161Y-1400251D01*
X11091418Y-1414221D01*
X11090503Y-1428394D01*
X11091418Y-1442567D01*
X11094161Y-1456537D01*
X11098631Y-1469999D01*
X11104778Y-1482801D01*
X11112550Y-1494739D01*
X11121745Y-1505559D01*
X11132261Y-1515110D01*
X11143945Y-1523238D01*
X11156543Y-1529791D01*
X11169853Y-1534718D01*
X11183721Y-1537868D01*
G37*
G36*
X6322669Y-1527810D02*
G01*
X6325108Y-1526692D01*
X6337249Y-1519326D01*
X6348374Y-1510487D01*
X6358229Y-1500276D01*
X6366764Y-1488897D01*
X6373317Y-1477264D01*
X6322669Y-1477264D01*
G37*
G36*
X11504269Y-1527810D02*
G01*
X11506708Y-1526692D01*
X11518849Y-1519326D01*
X11529974Y-1510487D01*
X11539829Y-1500276D01*
X11548364Y-1488897D01*
X11554917Y-1477264D01*
X11504269Y-1477264D01*
G37*
G36*
X11406581Y-1527708D02*
G01*
X11406581Y-1477264D01*
X11356086Y-1477264D01*
X11358778Y-1482801D01*
X11366550Y-1494739D01*
X11375745Y-1505559D01*
X11386261Y-1515110D01*
X11397945Y-1523238D01*
G37*
G36*
X6224981Y-1527708D02*
G01*
X6224981Y-1477264D01*
X6174486Y-1477264D01*
X6177178Y-1482801D01*
X6184950Y-1494739D01*
X6194145Y-1505559D01*
X6204661Y-1515110D01*
X6216345Y-1523238D01*
G37*
G36*
X6174486Y-1379524D02*
G01*
X6224981Y-1379524D01*
X6224981Y-1329080D01*
X6216345Y-1333550D01*
X6204661Y-1341678D01*
X6194145Y-1351229D01*
X6184950Y-1362049D01*
X6177178Y-1373987D01*
G37*
G36*
X11356086Y-1379524D02*
G01*
X11406581Y-1379524D01*
X11406581Y-1329080D01*
X11397945Y-1333550D01*
X11386261Y-1341678D01*
X11375745Y-1351229D01*
X11366550Y-1362049D01*
X11358778Y-1373987D01*
G37*
G36*
X6322669Y-1379524D02*
G01*
X6373317Y-1379524D01*
X6366764Y-1367891D01*
X6358229Y-1356512D01*
X6348374Y-1346301D01*
X6337249Y-1337462D01*
X6325108Y-1330096D01*
X6322669Y-1328978D01*
G37*
G36*
X11504269Y-1379524D02*
G01*
X11554917Y-1379524D01*
X11548364Y-1367891D01*
X11539829Y-1356512D01*
X11529974Y-1346301D01*
X11518849Y-1337462D01*
X11506708Y-1330096D01*
X11504269Y-1328978D01*
G37*
G36*
X2910382Y391871D02*
G01*
X2929229Y391871D01*
X2947974Y393750D01*
X2966415Y397560D01*
X2984347Y403199D01*
X3001670Y410616D01*
X3018129Y419760D01*
X3033572Y430530D01*
X3047898Y442772D01*
X3060852Y456438D01*
X3072384Y471322D01*
X3082340Y487273D01*
X3090621Y504190D01*
X3097174Y521868D01*
X3101898Y540105D01*
X3104743Y558698D01*
X3105708Y577494D01*
X3104743Y596341D01*
X3101898Y614934D01*
X3097174Y633171D01*
X3090621Y650798D01*
X3082340Y667715D01*
X3072384Y683717D01*
X3060852Y698601D01*
X3047898Y712266D01*
X3033572Y724509D01*
X3018129Y735279D01*
X3001670Y744423D01*
X2984347Y751840D01*
X2966415Y757478D01*
X2947974Y761238D01*
X2929229Y763168D01*
X2910382Y763168D01*
X2891637Y761238D01*
X2873197Y757478D01*
X2855264Y751840D01*
X2837942Y744423D01*
X2821482Y735279D01*
X2806039Y724509D01*
X2791714Y712266D01*
X2778760Y698601D01*
X2767228Y683717D01*
X2757271Y667715D01*
X2748991Y650798D01*
X2742438Y633171D01*
X2737713Y614934D01*
X2734868Y596341D01*
X2733903Y577494D01*
X2734868Y558698D01*
X2737713Y540105D01*
X2742438Y521868D01*
X2748991Y504190D01*
X2757271Y487273D01*
X2767228Y471322D01*
X2778760Y456438D01*
X2791714Y442772D01*
X2806039Y430530D01*
X2821482Y419760D01*
X2837942Y410616D01*
X2855264Y403199D01*
X2873197Y397560D01*
X2891637Y393750D01*
G37*
G36*
X11751970Y391871D02*
G01*
X11770817Y391871D01*
X11789562Y393750D01*
X11808002Y397560D01*
X11825986Y403199D01*
X11843258Y410616D01*
X11859717Y419760D01*
X11875211Y430530D01*
X11889486Y442772D01*
X11902440Y456438D01*
X11913971Y471322D01*
X11923928Y487273D01*
X11932259Y504190D01*
X11938762Y521868D01*
X11943486Y540105D01*
X11946331Y558698D01*
X11947296Y577494D01*
X11946331Y596290D01*
X11943486Y614934D01*
X11938762Y633171D01*
X11932259Y650798D01*
X11923928Y667715D01*
X11913971Y683717D01*
X11902440Y698601D01*
X11889486Y712266D01*
X11875211Y724509D01*
X11859717Y735279D01*
X11843258Y744423D01*
X11825986Y751840D01*
X11808002Y757478D01*
X11789562Y761238D01*
X11770817Y763168D01*
X11751970Y763168D01*
X11733276Y761238D01*
X11714835Y757478D01*
X11696852Y751840D01*
X11679529Y744423D01*
X11663070Y735279D01*
X11647627Y724509D01*
X11633352Y712266D01*
X11620347Y698601D01*
X11608816Y683717D01*
X11598859Y667715D01*
X11590578Y650798D01*
X11584025Y633171D01*
X11579301Y614934D01*
X11576456Y596290D01*
X11575491Y577494D01*
X11576456Y558698D01*
X11579301Y540105D01*
X11584025Y521868D01*
X11590578Y504190D01*
X11598859Y487273D01*
X11608816Y471322D01*
X11620347Y456438D01*
X11633352Y442772D01*
X11647627Y430530D01*
X11663070Y419760D01*
X11679529Y410616D01*
X11696852Y403199D01*
X11714835Y397560D01*
X11733276Y393750D01*
G37*
G36*
X8079282Y391871D02*
G01*
X8098129Y391871D01*
X8116874Y393750D01*
X8135315Y397560D01*
X8153247Y403199D01*
X8170570Y410616D01*
X8187029Y419760D01*
X8202472Y430530D01*
X8216798Y442772D01*
X8229752Y456438D01*
X8241284Y471322D01*
X8251240Y487273D01*
X8259521Y504190D01*
X8266074Y521868D01*
X8270798Y540105D01*
X8273643Y558698D01*
X8274608Y577494D01*
X8273643Y596341D01*
X8270798Y614934D01*
X8266074Y633171D01*
X8259521Y650798D01*
X8251240Y667715D01*
X8241284Y683717D01*
X8229752Y698601D01*
X8216798Y712266D01*
X8202472Y724509D01*
X8187029Y735279D01*
X8170570Y744423D01*
X8153247Y751840D01*
X8135315Y757478D01*
X8116874Y761238D01*
X8098129Y763168D01*
X8079282Y763168D01*
X8060537Y761238D01*
X8042097Y757478D01*
X8024164Y751840D01*
X8006842Y744423D01*
X7990382Y735279D01*
X7974939Y724509D01*
X7960614Y712266D01*
X7947659Y698601D01*
X7936128Y683717D01*
X7926171Y667715D01*
X7917891Y650798D01*
X7911338Y633171D01*
X7906613Y614934D01*
X7903768Y596341D01*
X7902803Y577494D01*
X7903768Y558698D01*
X7906613Y540105D01*
X7911338Y521868D01*
X7917891Y504190D01*
X7926171Y487273D01*
X7936128Y471322D01*
X7947659Y456438D01*
X7960614Y442772D01*
X7974939Y430530D01*
X7990382Y419760D01*
X8006842Y410616D01*
X8024164Y403199D01*
X8042097Y397560D01*
X8060537Y393750D01*
G37*
G36*
X4030370Y391871D02*
G01*
X4049217Y391871D01*
X4067962Y393750D01*
X4086402Y397560D01*
X4104386Y403199D01*
X4121658Y410616D01*
X4138117Y419760D01*
X4153611Y430530D01*
X4167886Y442772D01*
X4180840Y456438D01*
X4192371Y471322D01*
X4202328Y487273D01*
X4210659Y504190D01*
X4217162Y521868D01*
X4221886Y540105D01*
X4224731Y558698D01*
X4225696Y577494D01*
X4224731Y596290D01*
X4221886Y614934D01*
X4217162Y633171D01*
X4210659Y650798D01*
X4202328Y667715D01*
X4192371Y683717D01*
X4180840Y698601D01*
X4167886Y712266D01*
X4153611Y724509D01*
X4138117Y735279D01*
X4121658Y744423D01*
X4104386Y751840D01*
X4086402Y757478D01*
X4067962Y761238D01*
X4049217Y763168D01*
X4030370Y763168D01*
X4011676Y761238D01*
X3993235Y757478D01*
X3975252Y751840D01*
X3957929Y744423D01*
X3941470Y735279D01*
X3926027Y724509D01*
X3911752Y712266D01*
X3898747Y698601D01*
X3887215Y683717D01*
X3877259Y667715D01*
X3868978Y650798D01*
X3862425Y633171D01*
X3857701Y614934D01*
X3854856Y596290D01*
X3853891Y577494D01*
X3854856Y558698D01*
X3857701Y540105D01*
X3862425Y521868D01*
X3868978Y504190D01*
X3877259Y487273D01*
X3887215Y471322D01*
X3898747Y456438D01*
X3911752Y442772D01*
X3926027Y430530D01*
X3941470Y419760D01*
X3957929Y410616D01*
X3975252Y403199D01*
X3993235Y397560D01*
X4011676Y393750D01*
G37*
G36*
X10631982Y391871D02*
G01*
X10650829Y391871D01*
X10669574Y393750D01*
X10688015Y397560D01*
X10705947Y403199D01*
X10723270Y410616D01*
X10739729Y419760D01*
X10755172Y430530D01*
X10769498Y442772D01*
X10782452Y456438D01*
X10793984Y471322D01*
X10803940Y487273D01*
X10812221Y504190D01*
X10818774Y521868D01*
X10823498Y540105D01*
X10826343Y558698D01*
X10827308Y577494D01*
X10826343Y596341D01*
X10823498Y614934D01*
X10818774Y633171D01*
X10812221Y650798D01*
X10803940Y667715D01*
X10793984Y683717D01*
X10782452Y698601D01*
X10769498Y712266D01*
X10755172Y724509D01*
X10739729Y735279D01*
X10723270Y744423D01*
X10705947Y751840D01*
X10688015Y757478D01*
X10669574Y761238D01*
X10650829Y763168D01*
X10631982Y763168D01*
X10613237Y761238D01*
X10594797Y757478D01*
X10576864Y751840D01*
X10559542Y744423D01*
X10543082Y735279D01*
X10527639Y724509D01*
X10513314Y712266D01*
X10500360Y698601D01*
X10488828Y683717D01*
X10478871Y667715D01*
X10470591Y650798D01*
X10464038Y633171D01*
X10459313Y614934D01*
X10456468Y596341D01*
X10455503Y577494D01*
X10456468Y558698D01*
X10459313Y540105D01*
X10464038Y521868D01*
X10470591Y504190D01*
X10478871Y487273D01*
X10488828Y471322D01*
X10500360Y456438D01*
X10513314Y442772D01*
X10527639Y430530D01*
X10543082Y419760D01*
X10559542Y410616D01*
X10576864Y403199D01*
X10594797Y397560D01*
X10613237Y393750D01*
G37*
G36*
X9199270Y391871D02*
G01*
X9218117Y391871D01*
X9236862Y393750D01*
X9255302Y397560D01*
X9273286Y403199D01*
X9290558Y410616D01*
X9307017Y419760D01*
X9322511Y430530D01*
X9336786Y442772D01*
X9349740Y456438D01*
X9361271Y471322D01*
X9371228Y487273D01*
X9379559Y504190D01*
X9386062Y521868D01*
X9390786Y540105D01*
X9393631Y558698D01*
X9394596Y577494D01*
X9393631Y596290D01*
X9390786Y614934D01*
X9386062Y633171D01*
X9379559Y650798D01*
X9371228Y667715D01*
X9361271Y683717D01*
X9349740Y698601D01*
X9336786Y712266D01*
X9322511Y724509D01*
X9307017Y735279D01*
X9290558Y744423D01*
X9273286Y751840D01*
X9255302Y757478D01*
X9236862Y761238D01*
X9218117Y763168D01*
X9199270Y763168D01*
X9180576Y761238D01*
X9162135Y757478D01*
X9144152Y751840D01*
X9126829Y744423D01*
X9110370Y735279D01*
X9094927Y724509D01*
X9080652Y712266D01*
X9067647Y698601D01*
X9056116Y683717D01*
X9046159Y667715D01*
X9037878Y650798D01*
X9031325Y633171D01*
X9026601Y614934D01*
X9023756Y596290D01*
X9022791Y577494D01*
X9023756Y558698D01*
X9026601Y540105D01*
X9031325Y521868D01*
X9037878Y504190D01*
X9046159Y487273D01*
X9056116Y471322D01*
X9067647Y456438D01*
X9080652Y442772D01*
X9094927Y430530D01*
X9110370Y419760D01*
X9126829Y410616D01*
X9144152Y403199D01*
X9162135Y397560D01*
X9180576Y393750D01*
G37*
G36*
X6557670Y404571D02*
G01*
X6576517Y404571D01*
X6595262Y406450D01*
X6613702Y410260D01*
X6631686Y415899D01*
X6648958Y423316D01*
X6665417Y432460D01*
X6680911Y443230D01*
X6695186Y455472D01*
X6708140Y469138D01*
X6719671Y484022D01*
X6729628Y499973D01*
X6737959Y516890D01*
X6744462Y534568D01*
X6749186Y552805D01*
X6752031Y571398D01*
X6752996Y590194D01*
X6752031Y608990D01*
X6749186Y627634D01*
X6744462Y645871D01*
X6737959Y663498D01*
X6729628Y680415D01*
X6719671Y696417D01*
X6708140Y711301D01*
X6695186Y724966D01*
X6680911Y737209D01*
X6665417Y747979D01*
X6648958Y757123D01*
X6631686Y764540D01*
X6613702Y770178D01*
X6595262Y773938D01*
X6576517Y775868D01*
X6557670Y775868D01*
X6538976Y773938D01*
X6520535Y770178D01*
X6502552Y764540D01*
X6485229Y757123D01*
X6468770Y747979D01*
X6453327Y737209D01*
X6439052Y724966D01*
X6426047Y711301D01*
X6414516Y696417D01*
X6404559Y680415D01*
X6396278Y663498D01*
X6389725Y645871D01*
X6385001Y627634D01*
X6382156Y608990D01*
X6381191Y590194D01*
X6382156Y571398D01*
X6385001Y552805D01*
X6389725Y534568D01*
X6396278Y516890D01*
X6404559Y499973D01*
X6414516Y484022D01*
X6426047Y469138D01*
X6439052Y455472D01*
X6453327Y443230D01*
X6468770Y432460D01*
X6485229Y423316D01*
X6502552Y415899D01*
X6520535Y410260D01*
X6538976Y406450D01*
G37*
G36*
X5437682Y404571D02*
G01*
X5456529Y404571D01*
X5475274Y406450D01*
X5493715Y410260D01*
X5511647Y415899D01*
X5528970Y423316D01*
X5545429Y432460D01*
X5560872Y443230D01*
X5575198Y455472D01*
X5588152Y469138D01*
X5599684Y484022D01*
X5609640Y499973D01*
X5617921Y516890D01*
X5624474Y534568D01*
X5629198Y552805D01*
X5632043Y571398D01*
X5633008Y590194D01*
X5632043Y609041D01*
X5629198Y627634D01*
X5624474Y645871D01*
X5617921Y663498D01*
X5609640Y680415D01*
X5599684Y696417D01*
X5588152Y711301D01*
X5575198Y724966D01*
X5560872Y737209D01*
X5545429Y747979D01*
X5528970Y757123D01*
X5511647Y764540D01*
X5493715Y770178D01*
X5475274Y773938D01*
X5456529Y775868D01*
X5437682Y775868D01*
X5418937Y773938D01*
X5400497Y770178D01*
X5382564Y764540D01*
X5365242Y757123D01*
X5348782Y747979D01*
X5333339Y737209D01*
X5319014Y724966D01*
X5306060Y711301D01*
X5294528Y696417D01*
X5284571Y680415D01*
X5276291Y663498D01*
X5269738Y645871D01*
X5265013Y627634D01*
X5262168Y609041D01*
X5261203Y590194D01*
X5262168Y571398D01*
X5265013Y552805D01*
X5269738Y534568D01*
X5276291Y516890D01*
X5284571Y499973D01*
X5294528Y484022D01*
X5306060Y469138D01*
X5319014Y455472D01*
X5333339Y443230D01*
X5348782Y432460D01*
X5365242Y423316D01*
X5382564Y415899D01*
X5400497Y410260D01*
X5418937Y406450D01*
G37*
G36*
X3476244Y1216660D02*
G01*
X3490468Y1217117D01*
X3504488Y1219403D01*
X3518103Y1223416D01*
X3531108Y1229207D01*
X3543249Y1236573D01*
X3554374Y1245412D01*
X3564229Y1255623D01*
X3572764Y1267002D01*
X3579723Y1279398D01*
X3585057Y1292555D01*
X3588664Y1306322D01*
X3590493Y1320393D01*
X3590493Y1334617D01*
X3588664Y1348689D01*
X3585057Y1362456D01*
X3579723Y1375613D01*
X3572764Y1388008D01*
X3564229Y1399387D01*
X3554374Y1409598D01*
X3543249Y1418437D01*
X3531108Y1425803D01*
X3518103Y1431544D01*
X3504488Y1435608D01*
X3490468Y1437894D01*
X3476244Y1438351D01*
X3462121Y1436979D01*
X3448253Y1433830D01*
X3434943Y1428902D01*
X3422345Y1422349D01*
X3410661Y1414221D01*
X3400145Y1404670D01*
X3390950Y1393850D01*
X3383178Y1381912D01*
X3377031Y1369110D01*
X3372561Y1355648D01*
X3369818Y1341678D01*
X3368903Y1327505D01*
X3369818Y1313332D01*
X3372561Y1299362D01*
X3377031Y1285900D01*
X3383178Y1273098D01*
X3390950Y1261160D01*
X3400145Y1250340D01*
X3410661Y1240790D01*
X3422345Y1232662D01*
X3434943Y1226108D01*
X3448253Y1221181D01*
X3462121Y1218031D01*
G37*
G36*
X11197844Y1216660D02*
G01*
X11212068Y1217117D01*
X11226088Y1219403D01*
X11239703Y1223416D01*
X11252708Y1229207D01*
X11264849Y1236573D01*
X11275974Y1245412D01*
X11285829Y1255623D01*
X11294364Y1267002D01*
X11301323Y1279398D01*
X11306657Y1292555D01*
X11310264Y1306322D01*
X11312093Y1320393D01*
X11312093Y1334617D01*
X11310264Y1348689D01*
X11306657Y1362456D01*
X11301323Y1375613D01*
X11294364Y1388008D01*
X11285829Y1399387D01*
X11275974Y1409598D01*
X11264849Y1418437D01*
X11252708Y1425803D01*
X11239703Y1431544D01*
X11226088Y1435608D01*
X11212068Y1437894D01*
X11197844Y1438351D01*
X11183721Y1436979D01*
X11169853Y1433830D01*
X11156543Y1428902D01*
X11143945Y1422349D01*
X11132261Y1414221D01*
X11121745Y1404670D01*
X11112550Y1393850D01*
X11104778Y1381912D01*
X11098631Y1369110D01*
X11094161Y1355648D01*
X11091418Y1341678D01*
X11090503Y1327505D01*
X11091418Y1313332D01*
X11094161Y1299362D01*
X11098631Y1285900D01*
X11104778Y1273098D01*
X11112550Y1261160D01*
X11121745Y1250340D01*
X11132261Y1240790D01*
X11143945Y1232662D01*
X11156543Y1226108D01*
X11169853Y1221181D01*
X11183721Y1218031D01*
G37*
G36*
X8391144Y1216660D02*
G01*
X8405368Y1217117D01*
X8419388Y1219403D01*
X8433003Y1223416D01*
X8446008Y1229207D01*
X8458149Y1236573D01*
X8469274Y1245412D01*
X8479129Y1255623D01*
X8487664Y1267002D01*
X8494623Y1279398D01*
X8499957Y1292555D01*
X8503564Y1306322D01*
X8505393Y1320393D01*
X8505393Y1334617D01*
X8503564Y1348689D01*
X8499957Y1362456D01*
X8494623Y1375613D01*
X8487664Y1388008D01*
X8479129Y1399387D01*
X8469274Y1409598D01*
X8458149Y1418437D01*
X8446008Y1425803D01*
X8433003Y1431544D01*
X8419388Y1435608D01*
X8405368Y1437894D01*
X8391144Y1438351D01*
X8377021Y1436979D01*
X8363153Y1433830D01*
X8349843Y1428902D01*
X8337245Y1422349D01*
X8325561Y1414221D01*
X8315045Y1404670D01*
X8305850Y1393850D01*
X8298078Y1381912D01*
X8291931Y1369110D01*
X8287461Y1355648D01*
X8284718Y1341678D01*
X8283803Y1327505D01*
X8284718Y1313332D01*
X8287461Y1299362D01*
X8291931Y1285900D01*
X8298078Y1273098D01*
X8305850Y1261160D01*
X8315045Y1250340D01*
X8325561Y1240790D01*
X8337245Y1232662D01*
X8349843Y1226108D01*
X8363153Y1221181D01*
X8377021Y1218031D01*
G37*
G36*
X3222244Y1216660D02*
G01*
X3236468Y1217117D01*
X3250488Y1219403D01*
X3264103Y1223416D01*
X3277108Y1229207D01*
X3289249Y1236573D01*
X3300374Y1245412D01*
X3310229Y1255623D01*
X3318764Y1267002D01*
X3325723Y1279398D01*
X3331057Y1292555D01*
X3334664Y1306322D01*
X3336493Y1320393D01*
X3336493Y1334617D01*
X3334664Y1348689D01*
X3331057Y1362456D01*
X3325723Y1375613D01*
X3318764Y1388008D01*
X3310229Y1399387D01*
X3300374Y1409598D01*
X3289249Y1418437D01*
X3277108Y1425803D01*
X3264103Y1431544D01*
X3250488Y1435608D01*
X3236468Y1437894D01*
X3222244Y1438351D01*
X3208121Y1436979D01*
X3194253Y1433830D01*
X3180943Y1428902D01*
X3168345Y1422349D01*
X3156661Y1414221D01*
X3146145Y1404670D01*
X3136950Y1393850D01*
X3129178Y1381912D01*
X3123031Y1369110D01*
X3118561Y1355648D01*
X3115818Y1341678D01*
X3114903Y1327505D01*
X3115818Y1313332D01*
X3118561Y1299362D01*
X3123031Y1285900D01*
X3129178Y1273098D01*
X3136950Y1261160D01*
X3146145Y1250340D01*
X3156661Y1240790D01*
X3168345Y1232662D01*
X3180943Y1226108D01*
X3194253Y1221181D01*
X3208121Y1218031D01*
G37*
G36*
X8645144Y1216660D02*
G01*
X8659368Y1217117D01*
X8673388Y1219403D01*
X8687003Y1223416D01*
X8700008Y1229207D01*
X8712149Y1236573D01*
X8723274Y1245412D01*
X8733129Y1255623D01*
X8741664Y1267002D01*
X8748623Y1279398D01*
X8753957Y1292555D01*
X8757564Y1306322D01*
X8759393Y1320393D01*
X8759393Y1334617D01*
X8757564Y1348689D01*
X8753957Y1362456D01*
X8748623Y1375613D01*
X8741664Y1388008D01*
X8733129Y1399387D01*
X8723274Y1409598D01*
X8712149Y1418437D01*
X8700008Y1425803D01*
X8687003Y1431544D01*
X8673388Y1435608D01*
X8659368Y1437894D01*
X8645144Y1438351D01*
X8631021Y1436979D01*
X8617153Y1433830D01*
X8603843Y1428902D01*
X8591245Y1422349D01*
X8579561Y1414221D01*
X8569045Y1404670D01*
X8559850Y1393850D01*
X8552078Y1381912D01*
X8545931Y1369110D01*
X8541461Y1355648D01*
X8538718Y1341678D01*
X8537803Y1327505D01*
X8538718Y1313332D01*
X8541461Y1299362D01*
X8545931Y1285900D01*
X8552078Y1273098D01*
X8559850Y1261160D01*
X8569045Y1250340D01*
X8579561Y1240790D01*
X8591245Y1232662D01*
X8603843Y1226108D01*
X8617153Y1221181D01*
X8631021Y1218031D01*
G37*
G36*
X10943844Y1216660D02*
G01*
X10958068Y1217117D01*
X10972088Y1219403D01*
X10985703Y1223416D01*
X10998708Y1229207D01*
X11010849Y1236573D01*
X11021974Y1245412D01*
X11031829Y1255623D01*
X11040364Y1267002D01*
X11047323Y1279398D01*
X11052657Y1292555D01*
X11056264Y1306322D01*
X11058093Y1320393D01*
X11058093Y1334617D01*
X11056264Y1348689D01*
X11052657Y1362456D01*
X11047323Y1375613D01*
X11040364Y1388008D01*
X11031829Y1399387D01*
X11021974Y1409598D01*
X11010849Y1418437D01*
X10998708Y1425803D01*
X10985703Y1431544D01*
X10972088Y1435608D01*
X10958068Y1437894D01*
X10943844Y1438351D01*
X10929721Y1436979D01*
X10915853Y1433830D01*
X10902543Y1428902D01*
X10889945Y1422349D01*
X10878261Y1414221D01*
X10867745Y1404670D01*
X10858550Y1393850D01*
X10850778Y1381912D01*
X10844631Y1369110D01*
X10840161Y1355648D01*
X10837418Y1341678D01*
X10836503Y1327505D01*
X10837418Y1313332D01*
X10840161Y1299362D01*
X10844631Y1285900D01*
X10850778Y1273098D01*
X10858550Y1261160D01*
X10867745Y1250340D01*
X10878261Y1240790D01*
X10889945Y1232662D01*
X10902543Y1226108D01*
X10915853Y1221181D01*
X10929721Y1218031D01*
G37*
G36*
X11451844Y1216660D02*
G01*
X11466068Y1217117D01*
X11480088Y1219403D01*
X11493703Y1223416D01*
X11506708Y1229207D01*
X11518849Y1236573D01*
X11529974Y1245412D01*
X11539829Y1255623D01*
X11548364Y1267002D01*
X11555323Y1279398D01*
X11560657Y1292555D01*
X11564264Y1306322D01*
X11566042Y1320393D01*
X11566042Y1334617D01*
X11564264Y1348689D01*
X11560657Y1362456D01*
X11555323Y1375613D01*
X11548364Y1388008D01*
X11539829Y1399387D01*
X11529974Y1409598D01*
X11520627Y1417015D01*
X11518544Y1419250D01*
X11517223Y1421993D01*
X11516817Y1425041D01*
X11529009Y3810406D01*
X11529009Y4023715D01*
X11528145Y4034129D01*
X11525656Y4043883D01*
X11521897Y4052468D01*
X11521084Y4056024D01*
X11521541Y4059631D01*
X11523218Y4062831D01*
X11525961Y4065270D01*
X11531549Y4068673D01*
X11542674Y4077512D01*
X11552529Y4087723D01*
X11561064Y4099102D01*
X11567617Y4110736D01*
X11516969Y4110736D01*
X11516969Y4083710D01*
X11516106Y4079646D01*
X11513667Y4076242D01*
X11510111Y4074109D01*
X11505946Y4073601D01*
X11501983Y4074769D01*
X11492534Y4079849D01*
X11483035Y4083151D01*
X11473129Y4084777D01*
X11463070Y4084777D01*
X11453164Y4083151D01*
X11443665Y4079849D01*
X11434267Y4074769D01*
X11430254Y4073601D01*
X11426139Y4074109D01*
X11422532Y4076242D01*
X11420094Y4079646D01*
X11419281Y4083710D01*
X11419281Y4110736D01*
X11368786Y4110736D01*
X11371478Y4105198D01*
X11379250Y4093260D01*
X11388445Y4082440D01*
X11398961Y4072890D01*
X11410746Y4064711D01*
X11413185Y4062272D01*
X11414709Y4059123D01*
X11415064Y4055668D01*
X11414201Y4052315D01*
X11410543Y4043883D01*
X11408054Y4034129D01*
X11407190Y4023715D01*
X11407190Y3881069D01*
X11406428Y3877157D01*
X11404193Y3873906D01*
X11400942Y3871671D01*
X11397030Y3870909D01*
X10700308Y3870909D01*
X10697057Y3871417D01*
X10694162Y3872941D01*
X10691926Y3875328D01*
X10684611Y3885946D01*
X10675467Y3896106D01*
X10665053Y3904894D01*
X10653572Y3912209D01*
X10641177Y3917950D01*
X10628172Y3922014D01*
X10614710Y3924249D01*
X10601096Y3924706D01*
X10587532Y3923385D01*
X10574274Y3920185D01*
X10561523Y3915308D01*
X10549585Y3908755D01*
X10538612Y3900678D01*
X10528808Y3891178D01*
X10520324Y3880459D01*
X10513364Y3868724D01*
X10508081Y3856177D01*
X10504474Y3843020D01*
X10502646Y3829507D01*
X10502646Y3815892D01*
X10504474Y3802379D01*
X10508081Y3789222D01*
X10513364Y3776675D01*
X10520324Y3764940D01*
X10528808Y3754221D01*
X10538612Y3744722D01*
X10549585Y3736644D01*
X10561523Y3730091D01*
X10574274Y3725214D01*
X10587532Y3722014D01*
X10601096Y3720693D01*
X10614710Y3721150D01*
X10628172Y3723386D01*
X10641177Y3727450D01*
X10653572Y3733190D01*
X10665053Y3740505D01*
X10672368Y3746703D01*
X10675416Y3748481D01*
X10678922Y3749090D01*
X11396624Y3749090D01*
X11400485Y3748328D01*
X11403787Y3746093D01*
X11406022Y3742791D01*
X11406784Y3738879D01*
X11394998Y1425549D01*
X11394440Y1422349D01*
X11392966Y1419504D01*
X11390630Y1417269D01*
X11386261Y1414221D01*
X11375745Y1404670D01*
X11366550Y1393850D01*
X11358778Y1381912D01*
X11352631Y1369110D01*
X11348161Y1355648D01*
X11345418Y1341678D01*
X11344503Y1327505D01*
X11345418Y1313332D01*
X11348161Y1299362D01*
X11352631Y1285900D01*
X11358778Y1273098D01*
X11366550Y1261160D01*
X11375745Y1250340D01*
X11386261Y1240790D01*
X11397945Y1232662D01*
X11410543Y1226108D01*
X11423853Y1221181D01*
X11437721Y1218031D01*
G37*
G36*
X8951569Y1228090D02*
G01*
X8954008Y1229207D01*
X8966149Y1236573D01*
X8977274Y1245412D01*
X8987129Y1255623D01*
X8995664Y1267002D01*
X9002217Y1278636D01*
X8951569Y1278636D01*
G37*
G36*
X3782669Y1228090D02*
G01*
X3785108Y1229207D01*
X3797249Y1236573D01*
X3808374Y1245412D01*
X3818229Y1255623D01*
X3826764Y1267002D01*
X3833317Y1278636D01*
X3782669Y1278636D01*
G37*
G36*
X8853881Y1228191D02*
G01*
X8853881Y1278636D01*
X8803386Y1278636D01*
X8806078Y1273098D01*
X8813850Y1261160D01*
X8823045Y1250340D01*
X8833561Y1240790D01*
X8845245Y1232662D01*
G37*
G36*
X3684981Y1228191D02*
G01*
X3684981Y1278636D01*
X3634486Y1278636D01*
X3637178Y1273098D01*
X3644950Y1261160D01*
X3654145Y1250340D01*
X3664661Y1240790D01*
X3676345Y1232662D01*
G37*
G36*
X6003544Y1229360D02*
G01*
X6017768Y1229817D01*
X6031788Y1232103D01*
X6045403Y1236116D01*
X6058408Y1241907D01*
X6070549Y1249273D01*
X6081674Y1258112D01*
X6091529Y1268323D01*
X6100064Y1279702D01*
X6107023Y1292098D01*
X6112357Y1305255D01*
X6115964Y1319022D01*
X6117793Y1333093D01*
X6117793Y1347317D01*
X6115964Y1361389D01*
X6112357Y1375156D01*
X6107023Y1388313D01*
X6100064Y1400708D01*
X6091529Y1412087D01*
X6081674Y1422298D01*
X6070549Y1431137D01*
X6058408Y1438503D01*
X6045403Y1444244D01*
X6031788Y1448308D01*
X6017768Y1450594D01*
X6003544Y1451051D01*
X5989421Y1449679D01*
X5975553Y1446530D01*
X5962243Y1441602D01*
X5949645Y1435049D01*
X5937961Y1426921D01*
X5927445Y1417370D01*
X5918250Y1406550D01*
X5910478Y1394612D01*
X5904331Y1381810D01*
X5899861Y1368348D01*
X5897118Y1354378D01*
X5896203Y1340205D01*
X5897118Y1326032D01*
X5899861Y1312062D01*
X5904331Y1298600D01*
X5910478Y1285798D01*
X5918250Y1273860D01*
X5927445Y1263040D01*
X5937961Y1253490D01*
X5949645Y1245362D01*
X5962243Y1238808D01*
X5975553Y1233881D01*
X5989421Y1230731D01*
G37*
G36*
X5749544Y1229360D02*
G01*
X5763768Y1229817D01*
X5777788Y1232103D01*
X5791403Y1236116D01*
X5804408Y1241907D01*
X5816549Y1249273D01*
X5827674Y1258112D01*
X5837529Y1268323D01*
X5846064Y1279702D01*
X5853023Y1292098D01*
X5858357Y1305255D01*
X5861964Y1319022D01*
X5863793Y1333093D01*
X5863793Y1347317D01*
X5861964Y1361389D01*
X5858357Y1375156D01*
X5853023Y1388313D01*
X5846064Y1400708D01*
X5837529Y1412087D01*
X5827674Y1422298D01*
X5816549Y1431137D01*
X5804408Y1438503D01*
X5791403Y1444244D01*
X5777788Y1448308D01*
X5763768Y1450594D01*
X5749544Y1451051D01*
X5735421Y1449679D01*
X5721553Y1446530D01*
X5708243Y1441602D01*
X5695645Y1435049D01*
X5683961Y1426921D01*
X5673445Y1417370D01*
X5664250Y1406550D01*
X5656478Y1394612D01*
X5650331Y1381810D01*
X5645861Y1368348D01*
X5643118Y1354378D01*
X5642203Y1340205D01*
X5643118Y1326032D01*
X5645861Y1312062D01*
X5650331Y1298600D01*
X5656478Y1285798D01*
X5664250Y1273860D01*
X5673445Y1263040D01*
X5683961Y1253490D01*
X5695645Y1245362D01*
X5708243Y1238808D01*
X5721553Y1233881D01*
X5735421Y1230731D01*
G37*
G36*
X6257544Y1229360D02*
G01*
X6271768Y1229817D01*
X6285788Y1232103D01*
X6299403Y1236116D01*
X6312408Y1241907D01*
X6324549Y1249273D01*
X6335674Y1258112D01*
X6345529Y1268323D01*
X6354064Y1279702D01*
X6361023Y1292098D01*
X6366357Y1305255D01*
X6369964Y1319022D01*
X6371742Y1333093D01*
X6371742Y1347317D01*
X6369964Y1361389D01*
X6366357Y1375156D01*
X6361023Y1388313D01*
X6354064Y1400708D01*
X6345529Y1412087D01*
X6335674Y1422298D01*
X6324549Y1431137D01*
X6312408Y1438503D01*
X6299403Y1444244D01*
X6285788Y1448308D01*
X6271768Y1450594D01*
X6257544Y1451051D01*
X6243421Y1449679D01*
X6229553Y1446530D01*
X6216243Y1441602D01*
X6203645Y1435049D01*
X6191961Y1426921D01*
X6181445Y1417370D01*
X6172250Y1406550D01*
X6164478Y1394612D01*
X6158331Y1381810D01*
X6153861Y1368348D01*
X6151118Y1354378D01*
X6150203Y1340205D01*
X6151118Y1326032D01*
X6153861Y1312062D01*
X6158331Y1298600D01*
X6164478Y1285798D01*
X6172250Y1273860D01*
X6181445Y1263040D01*
X6191961Y1253490D01*
X6203645Y1245362D01*
X6216243Y1238808D01*
X6229553Y1233881D01*
X6243421Y1230731D01*
G37*
G36*
X8803386Y1376375D02*
G01*
X8853881Y1376375D01*
X8853881Y1426819D01*
X8845245Y1422349D01*
X8833561Y1414221D01*
X8823045Y1404670D01*
X8813850Y1393850D01*
X8806078Y1381912D01*
G37*
G36*
X3634486Y1376375D02*
G01*
X3684981Y1376375D01*
X3684981Y1426819D01*
X3676345Y1422349D01*
X3664661Y1414221D01*
X3654145Y1404670D01*
X3644950Y1393850D01*
X3637178Y1381912D01*
G37*
G36*
X8951569Y1376375D02*
G01*
X9002217Y1376375D01*
X8995664Y1388008D01*
X8987129Y1399387D01*
X8977274Y1409598D01*
X8966149Y1418437D01*
X8954008Y1425803D01*
X8951569Y1426921D01*
G37*
G36*
X3782669Y1376375D02*
G01*
X3833317Y1376375D01*
X3826764Y1388008D01*
X3818229Y1399387D01*
X3808374Y1409598D01*
X3797249Y1418437D01*
X3785108Y1425803D01*
X3782669Y1426921D01*
G37*
G36*
X9173870Y3198571D02*
G01*
X9192717Y3198571D01*
X9211462Y3200450D01*
X9229902Y3204260D01*
X9247886Y3209899D01*
X9265158Y3217316D01*
X9281617Y3226460D01*
X9297111Y3237230D01*
X9311386Y3249472D01*
X9324340Y3263138D01*
X9335871Y3278022D01*
X9345828Y3293973D01*
X9354159Y3310890D01*
X9360662Y3328568D01*
X9365386Y3346805D01*
X9368231Y3365398D01*
X9369196Y3384194D01*
X9368231Y3402990D01*
X9365386Y3421634D01*
X9360662Y3439871D01*
X9354159Y3457498D01*
X9345828Y3474415D01*
X9335871Y3490417D01*
X9324340Y3505301D01*
X9311386Y3518966D01*
X9297111Y3531209D01*
X9281617Y3541979D01*
X9265158Y3551123D01*
X9247886Y3558540D01*
X9229902Y3564178D01*
X9211462Y3567937D01*
X9192717Y3569868D01*
X9173870Y3569868D01*
X9155176Y3567937D01*
X9136735Y3564178D01*
X9118752Y3558540D01*
X9101429Y3551123D01*
X9084970Y3541979D01*
X9069527Y3531209D01*
X9055252Y3518966D01*
X9042247Y3505301D01*
X9030716Y3490417D01*
X9020759Y3474415D01*
X9012478Y3457498D01*
X9005925Y3439871D01*
X9001201Y3421634D01*
X8998356Y3402990D01*
X8997391Y3384194D01*
X8998356Y3365398D01*
X9001201Y3346805D01*
X9005925Y3328568D01*
X9012478Y3310890D01*
X9020759Y3293973D01*
X9030716Y3278022D01*
X9042247Y3263138D01*
X9055252Y3249472D01*
X9069527Y3237230D01*
X9084970Y3226460D01*
X9101429Y3217316D01*
X9118752Y3209899D01*
X9136735Y3204260D01*
X9155176Y3200450D01*
G37*
G36*
X2910382Y3198571D02*
G01*
X2929229Y3198571D01*
X2947974Y3200450D01*
X2966415Y3204260D01*
X2984347Y3209899D01*
X3001670Y3217316D01*
X3018129Y3226460D01*
X3033572Y3237230D01*
X3047898Y3249472D01*
X3060852Y3263138D01*
X3072384Y3278022D01*
X3082340Y3293973D01*
X3090621Y3310890D01*
X3097174Y3328568D01*
X3101898Y3346805D01*
X3104743Y3365398D01*
X3105708Y3384194D01*
X3104743Y3403041D01*
X3101898Y3421634D01*
X3097174Y3439871D01*
X3090621Y3457498D01*
X3082340Y3474415D01*
X3072384Y3490417D01*
X3060852Y3505301D01*
X3047898Y3518966D01*
X3033572Y3531209D01*
X3018129Y3541979D01*
X3001670Y3551123D01*
X2984347Y3558540D01*
X2966415Y3564178D01*
X2947974Y3567937D01*
X2929229Y3569868D01*
X2910382Y3569868D01*
X2891637Y3567937D01*
X2873197Y3564178D01*
X2855264Y3558540D01*
X2837942Y3551123D01*
X2821482Y3541979D01*
X2806039Y3531209D01*
X2791714Y3518966D01*
X2778760Y3505301D01*
X2767228Y3490417D01*
X2757271Y3474415D01*
X2748991Y3457498D01*
X2742438Y3439871D01*
X2737713Y3421634D01*
X2734868Y3403041D01*
X2733903Y3384194D01*
X2734868Y3365398D01*
X2737713Y3346805D01*
X2742438Y3328568D01*
X2748991Y3310890D01*
X2757271Y3293973D01*
X2767228Y3278022D01*
X2778760Y3263138D01*
X2791714Y3249472D01*
X2806039Y3237230D01*
X2821482Y3226460D01*
X2837942Y3217316D01*
X2855264Y3209899D01*
X2873197Y3204260D01*
X2891637Y3200450D01*
G37*
G36*
X4030370Y3198571D02*
G01*
X4049217Y3198571D01*
X4067962Y3200450D01*
X4086402Y3204260D01*
X4104386Y3209899D01*
X4121658Y3217316D01*
X4138117Y3226460D01*
X4153611Y3237230D01*
X4167886Y3249472D01*
X4180840Y3263138D01*
X4192371Y3278022D01*
X4202328Y3293973D01*
X4210659Y3310890D01*
X4217162Y3328568D01*
X4221886Y3346805D01*
X4224731Y3365398D01*
X4225696Y3384194D01*
X4224731Y3402990D01*
X4221886Y3421634D01*
X4217162Y3439871D01*
X4210659Y3457498D01*
X4202328Y3474415D01*
X4192371Y3490417D01*
X4180840Y3505301D01*
X4167886Y3518966D01*
X4153611Y3531209D01*
X4138117Y3541979D01*
X4121658Y3551123D01*
X4104386Y3558540D01*
X4086402Y3564178D01*
X4067962Y3567937D01*
X4049217Y3569868D01*
X4030370Y3569868D01*
X4011676Y3567937D01*
X3993235Y3564178D01*
X3975252Y3558540D01*
X3957929Y3551123D01*
X3941470Y3541979D01*
X3926027Y3531209D01*
X3911752Y3518966D01*
X3898747Y3505301D01*
X3887215Y3490417D01*
X3877259Y3474415D01*
X3868978Y3457498D01*
X3862425Y3439871D01*
X3857701Y3421634D01*
X3854856Y3402990D01*
X3853891Y3384194D01*
X3854856Y3365398D01*
X3857701Y3346805D01*
X3862425Y3328568D01*
X3868978Y3310890D01*
X3877259Y3293973D01*
X3887215Y3278022D01*
X3898747Y3263138D01*
X3911752Y3249472D01*
X3926027Y3237230D01*
X3941470Y3226460D01*
X3957929Y3217316D01*
X3975252Y3209899D01*
X3993235Y3204260D01*
X4011676Y3200450D01*
G37*
G36*
X8053882Y3198571D02*
G01*
X8072729Y3198571D01*
X8091474Y3200450D01*
X8109915Y3204260D01*
X8127847Y3209899D01*
X8145170Y3217316D01*
X8161629Y3226460D01*
X8177072Y3237230D01*
X8191398Y3249472D01*
X8204352Y3263138D01*
X8215884Y3278022D01*
X8225840Y3293973D01*
X8234121Y3310890D01*
X8240674Y3328568D01*
X8245398Y3346805D01*
X8248243Y3365398D01*
X8249208Y3384194D01*
X8248243Y3403041D01*
X8245398Y3421634D01*
X8240674Y3439871D01*
X8234121Y3457498D01*
X8225840Y3474415D01*
X8215884Y3490417D01*
X8204352Y3505301D01*
X8191398Y3518966D01*
X8177072Y3531209D01*
X8161629Y3541979D01*
X8145170Y3551123D01*
X8127847Y3558540D01*
X8109915Y3564178D01*
X8091474Y3567937D01*
X8072729Y3569868D01*
X8053882Y3569868D01*
X8035137Y3567937D01*
X8016697Y3564178D01*
X7998764Y3558540D01*
X7981442Y3551123D01*
X7964982Y3541979D01*
X7949539Y3531209D01*
X7935214Y3518966D01*
X7922259Y3505301D01*
X7910728Y3490417D01*
X7900771Y3474415D01*
X7892491Y3457498D01*
X7885938Y3439871D01*
X7881213Y3421634D01*
X7878368Y3403041D01*
X7877403Y3384194D01*
X7878368Y3365398D01*
X7881213Y3346805D01*
X7885938Y3328568D01*
X7892491Y3310890D01*
X7900771Y3293973D01*
X7910728Y3278022D01*
X7922259Y3263138D01*
X7935214Y3249472D01*
X7949539Y3237230D01*
X7964982Y3226460D01*
X7981442Y3217316D01*
X7998764Y3209899D01*
X8016697Y3204260D01*
X8035137Y3200450D01*
G37*
G36*
X5450382Y3211271D02*
G01*
X5469229Y3211271D01*
X5487974Y3213150D01*
X5506415Y3216960D01*
X5524347Y3222599D01*
X5541670Y3230016D01*
X5558129Y3239160D01*
X5573572Y3249930D01*
X5587898Y3262172D01*
X5600852Y3275838D01*
X5612384Y3290722D01*
X5622340Y3306673D01*
X5630621Y3323590D01*
X5637174Y3341268D01*
X5641898Y3359505D01*
X5644743Y3378098D01*
X5645708Y3396894D01*
X5644743Y3415741D01*
X5641898Y3434334D01*
X5637174Y3452571D01*
X5630621Y3470198D01*
X5622340Y3487115D01*
X5612384Y3503117D01*
X5600852Y3518001D01*
X5587898Y3531666D01*
X5573572Y3543909D01*
X5558129Y3554679D01*
X5541670Y3563823D01*
X5524347Y3571240D01*
X5506415Y3576878D01*
X5487974Y3580637D01*
X5469229Y3582568D01*
X5450382Y3582568D01*
X5431637Y3580637D01*
X5413197Y3576878D01*
X5395264Y3571240D01*
X5377942Y3563823D01*
X5361482Y3554679D01*
X5346039Y3543909D01*
X5331714Y3531666D01*
X5318760Y3518001D01*
X5307228Y3503117D01*
X5297271Y3487115D01*
X5288991Y3470198D01*
X5282438Y3452571D01*
X5277713Y3434334D01*
X5274868Y3415741D01*
X5273903Y3396894D01*
X5274868Y3378098D01*
X5277713Y3359505D01*
X5282438Y3341268D01*
X5288991Y3323590D01*
X5297271Y3306673D01*
X5307228Y3290722D01*
X5318760Y3275838D01*
X5331714Y3262172D01*
X5346039Y3249930D01*
X5361482Y3239160D01*
X5377942Y3230016D01*
X5395264Y3222599D01*
X5413197Y3216960D01*
X5431637Y3213150D01*
G37*
G36*
X6570370Y3211271D02*
G01*
X6589217Y3211271D01*
X6607962Y3213150D01*
X6626402Y3216960D01*
X6644386Y3222599D01*
X6661658Y3230016D01*
X6678117Y3239160D01*
X6693611Y3249930D01*
X6707886Y3262172D01*
X6720840Y3275838D01*
X6732371Y3290722D01*
X6742328Y3306673D01*
X6750659Y3323590D01*
X6757162Y3341268D01*
X6761886Y3359505D01*
X6764731Y3378098D01*
X6765696Y3396894D01*
X6764731Y3415690D01*
X6761886Y3434334D01*
X6757162Y3452571D01*
X6750659Y3470198D01*
X6742328Y3487115D01*
X6732371Y3503117D01*
X6720840Y3518001D01*
X6707886Y3531666D01*
X6693611Y3543909D01*
X6678117Y3554679D01*
X6661658Y3563823D01*
X6644386Y3571240D01*
X6626402Y3576878D01*
X6607962Y3580637D01*
X6589217Y3582568D01*
X6570370Y3582568D01*
X6551676Y3580637D01*
X6533235Y3576878D01*
X6515252Y3571240D01*
X6497929Y3563823D01*
X6481470Y3554679D01*
X6466027Y3543909D01*
X6451752Y3531666D01*
X6438747Y3518001D01*
X6427216Y3503117D01*
X6417259Y3487115D01*
X6408978Y3470198D01*
X6402425Y3452571D01*
X6397701Y3434334D01*
X6394856Y3415690D01*
X6393891Y3396894D01*
X6394856Y3378098D01*
X6397701Y3359505D01*
X6402425Y3341268D01*
X6408978Y3323590D01*
X6417259Y3306673D01*
X6427216Y3290722D01*
X6438747Y3275838D01*
X6451752Y3262172D01*
X6466027Y3249930D01*
X6481470Y3239160D01*
X6497929Y3230016D01*
X6515252Y3222599D01*
X6533235Y3216960D01*
X6551676Y3213150D01*
G37*
G36*
X11764670Y3223971D02*
G01*
X11783517Y3223971D01*
X11802262Y3225850D01*
X11820702Y3229660D01*
X11838686Y3235299D01*
X11855958Y3242716D01*
X11872417Y3251860D01*
X11887911Y3262629D01*
X11902186Y3274872D01*
X11915140Y3288537D01*
X11926671Y3303422D01*
X11936628Y3319373D01*
X11944959Y3336290D01*
X11951462Y3353968D01*
X11956186Y3372205D01*
X11959031Y3390798D01*
X11959996Y3409594D01*
X11959031Y3428390D01*
X11956186Y3447034D01*
X11951462Y3465271D01*
X11944959Y3482898D01*
X11936628Y3499815D01*
X11926671Y3515817D01*
X11915140Y3530701D01*
X11902186Y3544366D01*
X11887911Y3556609D01*
X11872417Y3567379D01*
X11855958Y3576523D01*
X11838686Y3583940D01*
X11820702Y3589578D01*
X11802262Y3593337D01*
X11783517Y3595268D01*
X11764670Y3595268D01*
X11745976Y3593337D01*
X11727535Y3589578D01*
X11709552Y3583940D01*
X11692229Y3576523D01*
X11675770Y3567379D01*
X11660327Y3556609D01*
X11646052Y3544366D01*
X11633047Y3530701D01*
X11621516Y3515817D01*
X11611559Y3499815D01*
X11603278Y3482898D01*
X11596725Y3465271D01*
X11592001Y3447034D01*
X11589156Y3428390D01*
X11588191Y3409594D01*
X11589156Y3390798D01*
X11592001Y3372205D01*
X11596725Y3353968D01*
X11603278Y3336290D01*
X11611559Y3319373D01*
X11621516Y3303422D01*
X11633047Y3288537D01*
X11646052Y3274872D01*
X11660327Y3262629D01*
X11675770Y3251860D01*
X11692229Y3242716D01*
X11709552Y3235299D01*
X11727535Y3229660D01*
X11745976Y3225850D01*
G37*
G36*
X10644682Y3223971D02*
G01*
X10663529Y3223971D01*
X10682274Y3225850D01*
X10700715Y3229660D01*
X10718647Y3235299D01*
X10735970Y3242716D01*
X10752429Y3251860D01*
X10767872Y3262629D01*
X10782198Y3274872D01*
X10795152Y3288537D01*
X10806684Y3303422D01*
X10816640Y3319373D01*
X10824921Y3336290D01*
X10831474Y3353968D01*
X10836198Y3372205D01*
X10839043Y3390798D01*
X10840008Y3409594D01*
X10839043Y3428441D01*
X10836198Y3447034D01*
X10831474Y3465271D01*
X10824921Y3482898D01*
X10816640Y3499815D01*
X10806684Y3515817D01*
X10795152Y3530701D01*
X10782198Y3544366D01*
X10767872Y3556609D01*
X10752429Y3567379D01*
X10735970Y3576523D01*
X10718647Y3583940D01*
X10700715Y3589578D01*
X10682274Y3593337D01*
X10663529Y3595268D01*
X10644682Y3595268D01*
X10625937Y3593337D01*
X10607497Y3589578D01*
X10589564Y3583940D01*
X10572242Y3576523D01*
X10555782Y3567379D01*
X10540339Y3556609D01*
X10526014Y3544366D01*
X10513060Y3530701D01*
X10501528Y3515817D01*
X10491571Y3499815D01*
X10483291Y3482898D01*
X10476738Y3465271D01*
X10472013Y3447034D01*
X10469168Y3428441D01*
X10468203Y3409594D01*
X10469168Y3390798D01*
X10472013Y3372205D01*
X10476738Y3353968D01*
X10483291Y3336290D01*
X10491571Y3319373D01*
X10501528Y3303422D01*
X10513060Y3288537D01*
X10526014Y3274872D01*
X10540339Y3262629D01*
X10555782Y3251860D01*
X10572242Y3242716D01*
X10589564Y3235299D01*
X10607497Y3229660D01*
X10625937Y3225850D01*
G37*
G36*
X3476244Y4023360D02*
G01*
X3490468Y4023817D01*
X3504488Y4026103D01*
X3518103Y4030116D01*
X3531108Y4035907D01*
X3543249Y4043273D01*
X3554374Y4052112D01*
X3564229Y4062323D01*
X3572764Y4073702D01*
X3579723Y4086098D01*
X3585057Y4099255D01*
X3588664Y4113022D01*
X3590493Y4127093D01*
X3590493Y4141317D01*
X3588664Y4155389D01*
X3585057Y4169156D01*
X3579723Y4182313D01*
X3572764Y4194708D01*
X3564229Y4206087D01*
X3554374Y4216298D01*
X3543249Y4225137D01*
X3531108Y4232503D01*
X3518103Y4238244D01*
X3504488Y4242308D01*
X3490468Y4244594D01*
X3476244Y4245051D01*
X3462121Y4243679D01*
X3448253Y4240530D01*
X3434943Y4235602D01*
X3422345Y4229049D01*
X3410661Y4220921D01*
X3400145Y4211370D01*
X3390950Y4200550D01*
X3383178Y4188612D01*
X3377031Y4175810D01*
X3372561Y4162348D01*
X3369818Y4148378D01*
X3368903Y4134205D01*
X3369818Y4120032D01*
X3372561Y4106062D01*
X3377031Y4092600D01*
X3383178Y4079798D01*
X3390950Y4067860D01*
X3400145Y4057040D01*
X3410661Y4047490D01*
X3422345Y4039362D01*
X3434943Y4032808D01*
X3448253Y4027881D01*
X3462121Y4024731D01*
G37*
G36*
X8619744Y4023360D02*
G01*
X8633968Y4023817D01*
X8647988Y4026103D01*
X8661603Y4030116D01*
X8674608Y4035907D01*
X8686749Y4043273D01*
X8697874Y4052112D01*
X8707729Y4062323D01*
X8716264Y4073702D01*
X8723223Y4086098D01*
X8728557Y4099255D01*
X8732164Y4113022D01*
X8733993Y4127093D01*
X8733993Y4141317D01*
X8732164Y4155389D01*
X8728557Y4169156D01*
X8723223Y4182313D01*
X8716264Y4194708D01*
X8707729Y4206087D01*
X8697874Y4216298D01*
X8686749Y4225137D01*
X8674608Y4232503D01*
X8661603Y4238244D01*
X8647988Y4242308D01*
X8633968Y4244594D01*
X8619744Y4245051D01*
X8605621Y4243679D01*
X8591753Y4240530D01*
X8578443Y4235602D01*
X8565845Y4229049D01*
X8554161Y4220921D01*
X8543645Y4211370D01*
X8534450Y4200550D01*
X8526678Y4188612D01*
X8520531Y4175810D01*
X8516061Y4162348D01*
X8513318Y4148378D01*
X8512403Y4134205D01*
X8513318Y4120032D01*
X8516061Y4106062D01*
X8520531Y4092600D01*
X8526678Y4079798D01*
X8534450Y4067860D01*
X8543645Y4057040D01*
X8554161Y4047490D01*
X8565845Y4039362D01*
X8578443Y4032808D01*
X8591753Y4027881D01*
X8605621Y4024731D01*
G37*
G36*
X8365744Y4023360D02*
G01*
X8379968Y4023817D01*
X8393988Y4026103D01*
X8407603Y4030116D01*
X8420608Y4035907D01*
X8432749Y4043273D01*
X8443874Y4052112D01*
X8453729Y4062323D01*
X8462264Y4073702D01*
X8469223Y4086098D01*
X8474557Y4099255D01*
X8478164Y4113022D01*
X8479993Y4127093D01*
X8479993Y4141317D01*
X8478164Y4155389D01*
X8474557Y4169156D01*
X8469223Y4182313D01*
X8462264Y4194708D01*
X8453729Y4206087D01*
X8443874Y4216298D01*
X8432749Y4225137D01*
X8420608Y4232503D01*
X8407603Y4238244D01*
X8393988Y4242308D01*
X8379968Y4244594D01*
X8365744Y4245051D01*
X8351621Y4243679D01*
X8337753Y4240530D01*
X8324443Y4235602D01*
X8311845Y4229049D01*
X8300161Y4220921D01*
X8289645Y4211370D01*
X8280450Y4200550D01*
X8272678Y4188612D01*
X8266531Y4175810D01*
X8262061Y4162348D01*
X8259318Y4148378D01*
X8258403Y4134205D01*
X8259318Y4120032D01*
X8262061Y4106062D01*
X8266531Y4092600D01*
X8272678Y4079798D01*
X8280450Y4067860D01*
X8289645Y4057040D01*
X8300161Y4047490D01*
X8311845Y4039362D01*
X8324443Y4032808D01*
X8337753Y4027881D01*
X8351621Y4024731D01*
G37*
G36*
X3222244Y4023360D02*
G01*
X3236468Y4023817D01*
X3250488Y4026103D01*
X3264103Y4030116D01*
X3277108Y4035907D01*
X3289249Y4043273D01*
X3300374Y4052112D01*
X3310229Y4062323D01*
X3318764Y4073702D01*
X3325723Y4086098D01*
X3331057Y4099255D01*
X3334664Y4113022D01*
X3336493Y4127093D01*
X3336493Y4141317D01*
X3334664Y4155389D01*
X3331057Y4169156D01*
X3325723Y4182313D01*
X3318764Y4194708D01*
X3310229Y4206087D01*
X3300374Y4216298D01*
X3289249Y4225137D01*
X3277108Y4232503D01*
X3264103Y4238244D01*
X3250488Y4242308D01*
X3236468Y4244594D01*
X3222244Y4245051D01*
X3208121Y4243679D01*
X3194253Y4240530D01*
X3180943Y4235602D01*
X3168345Y4229049D01*
X3156661Y4220921D01*
X3146145Y4211370D01*
X3136950Y4200550D01*
X3129178Y4188612D01*
X3123031Y4175810D01*
X3118561Y4162348D01*
X3115818Y4148378D01*
X3114903Y4134205D01*
X3115818Y4120032D01*
X3118561Y4106062D01*
X3123031Y4092600D01*
X3129178Y4079798D01*
X3136950Y4067860D01*
X3146145Y4057040D01*
X3156661Y4047490D01*
X3168345Y4039362D01*
X3180943Y4032808D01*
X3194253Y4027881D01*
X3208121Y4024731D01*
G37*
G36*
X8926169Y4034790D02*
G01*
X8928608Y4035907D01*
X8940749Y4043273D01*
X8951874Y4052112D01*
X8961729Y4062323D01*
X8970264Y4073702D01*
X8976817Y4085336D01*
X8926169Y4085336D01*
G37*
G36*
X3782669Y4034790D02*
G01*
X3785108Y4035907D01*
X3797249Y4043273D01*
X3808374Y4052112D01*
X3818229Y4062323D01*
X3826764Y4073702D01*
X3833317Y4085336D01*
X3793134Y4085336D01*
X3788867Y4086301D01*
X3785412Y4088892D01*
X3783380Y4092701D01*
X3783076Y4097020D01*
X3784600Y4101084D01*
X3787343Y4105249D01*
X3791356Y4114444D01*
X3793845Y4124198D01*
X3794709Y4134612D01*
X3794709Y4172915D01*
X3795471Y4176776D01*
X3797706Y4180078D01*
X3800957Y4182262D01*
X3804869Y4183075D01*
X3833317Y4183075D01*
X3826764Y4194708D01*
X3818229Y4206087D01*
X3808374Y4216298D01*
X3798519Y4224121D01*
X3796487Y4226356D01*
X3795166Y4229100D01*
X3794709Y4232046D01*
X3794709Y4428286D01*
X3795471Y4432147D01*
X3797706Y4435449D01*
X4426864Y5064607D01*
X4430623Y5066995D01*
X4435043Y5067554D01*
X4441596Y5066893D01*
X4455210Y5067350D01*
X4469079Y5069738D01*
X4472686Y5070144D01*
X4476242Y5069281D01*
X4479239Y5067198D01*
X4998618Y4547870D01*
X5004663Y4542485D01*
X5013096Y4537049D01*
X5014976Y4536084D01*
X5024323Y4532376D01*
X5032095Y4530598D01*
X5034178Y4530293D01*
X5042204Y4529785D01*
X6091986Y4529785D01*
X6095847Y4529023D01*
X6099149Y4526788D01*
X6209893Y4416044D01*
X6212128Y4412742D01*
X6212890Y4408881D01*
X6212890Y4244644D01*
X6212382Y4241444D01*
X6210858Y4238548D01*
X6208522Y4236313D01*
X6204661Y4233621D01*
X6194145Y4224070D01*
X6184950Y4213250D01*
X6177178Y4201312D01*
X6174486Y4195775D01*
X6202730Y4195775D01*
X6206642Y4194962D01*
X6209893Y4192778D01*
X6212128Y4189476D01*
X6212890Y4185615D01*
X6212890Y4166006D01*
X6213754Y4155592D01*
X6216243Y4145838D01*
X6220256Y4136644D01*
X6225743Y4128211D01*
X6232550Y4120794D01*
X6239967Y4114952D01*
X6249365Y4109872D01*
X6258864Y4106570D01*
X6268770Y4104944D01*
X6278829Y4104944D01*
X6288735Y4106570D01*
X6298234Y4109872D01*
X6308191Y4115104D01*
X6309156Y4116222D01*
X6315049Y4120794D01*
X6321856Y4128211D01*
X6327343Y4136644D01*
X6331356Y4145838D01*
X6333845Y4155592D01*
X6334709Y4166006D01*
X6334709Y4185615D01*
X6335471Y4189476D01*
X6337706Y4192778D01*
X6340957Y4194962D01*
X6344869Y4195775D01*
X6373317Y4195775D01*
X6366764Y4207408D01*
X6358229Y4218787D01*
X6348374Y4228998D01*
X6338519Y4236821D01*
X6336487Y4239056D01*
X6335166Y4241800D01*
X6334709Y4244746D01*
X6334709Y4437989D01*
X6334201Y4446016D01*
X6333896Y4448098D01*
X6332118Y4455871D01*
X6328410Y4465218D01*
X6327444Y4467098D01*
X6322009Y4475530D01*
X6316624Y4481576D01*
X6164681Y4633518D01*
X6158636Y4638903D01*
X6150203Y4644339D01*
X6148324Y4645304D01*
X6138976Y4649012D01*
X6131204Y4650790D01*
X6129121Y4651095D01*
X6121095Y4651603D01*
X5071313Y4651603D01*
X5067452Y4652365D01*
X5064150Y4654600D01*
X4549597Y5169154D01*
X4547514Y5172151D01*
X4546650Y5175656D01*
X4546193Y5182514D01*
X4543450Y5195874D01*
X4538980Y5208778D01*
X4532833Y5220919D01*
X4525111Y5232146D01*
X4515967Y5242306D01*
X4505553Y5251094D01*
X4494072Y5258409D01*
X4481677Y5264150D01*
X4468672Y5268214D01*
X4455210Y5270449D01*
X4441596Y5270906D01*
X4428032Y5269585D01*
X4414774Y5266385D01*
X4402023Y5261508D01*
X4390085Y5254955D01*
X4379112Y5246878D01*
X4369308Y5237378D01*
X4360824Y5226659D01*
X4353864Y5214924D01*
X4348581Y5202377D01*
X4344974Y5189220D01*
X4343146Y5175707D01*
X4343146Y5162092D01*
X4343552Y5159197D01*
X4343450Y5156098D01*
X4342485Y5153202D01*
X4340656Y5150662D01*
X3690975Y4500981D01*
X3685590Y4494936D01*
X3680155Y4486503D01*
X3679190Y4484624D01*
X3675481Y4475276D01*
X3673703Y4467504D01*
X3673398Y4465421D01*
X3672890Y4457395D01*
X3672890Y4231944D01*
X3672382Y4228744D01*
X3670858Y4225848D01*
X3668522Y4223613D01*
X3664661Y4220921D01*
X3654145Y4211370D01*
X3644950Y4200550D01*
X3637178Y4188612D01*
X3634486Y4183075D01*
X3662730Y4183075D01*
X3666642Y4182262D01*
X3669893Y4180078D01*
X3672128Y4176776D01*
X3672890Y4172915D01*
X3672890Y4134612D01*
X3673754Y4124198D01*
X3676243Y4114444D01*
X3680256Y4105249D01*
X3683000Y4101084D01*
X3684524Y4097020D01*
X3684219Y4092701D01*
X3682187Y4088892D01*
X3678732Y4086301D01*
X3674465Y4085336D01*
X3634486Y4085336D01*
X3637178Y4079798D01*
X3644950Y4067860D01*
X3654145Y4057040D01*
X3664661Y4047490D01*
X3676345Y4039362D01*
X3684981Y4034891D01*
X3684981Y4074617D01*
X3685794Y4078681D01*
X3688232Y4082084D01*
X3691839Y4084218D01*
X3695954Y4084726D01*
X3699967Y4083558D01*
X3709365Y4078478D01*
X3718864Y4075176D01*
X3728770Y4073550D01*
X3738829Y4073550D01*
X3748735Y4075176D01*
X3758234Y4078478D01*
X3767683Y4083558D01*
X3771646Y4084726D01*
X3775811Y4084218D01*
X3779367Y4082084D01*
X3781806Y4078681D01*
X3782669Y4074617D01*
G37*
G36*
X8828481Y4034891D02*
G01*
X8828481Y4085336D01*
X8777986Y4085336D01*
X8780678Y4079798D01*
X8788450Y4067860D01*
X8797645Y4057040D01*
X8808161Y4047490D01*
X8819845Y4039362D01*
G37*
G36*
X6016244Y4036060D02*
G01*
X6030468Y4036517D01*
X6044488Y4038803D01*
X6058103Y4042816D01*
X6071108Y4048607D01*
X6083249Y4055973D01*
X6094374Y4064812D01*
X6104229Y4075023D01*
X6112764Y4086402D01*
X6119723Y4098798D01*
X6125057Y4111955D01*
X6128664Y4125722D01*
X6130493Y4139793D01*
X6130493Y4154017D01*
X6128664Y4168089D01*
X6125057Y4181856D01*
X6119723Y4195013D01*
X6112764Y4207408D01*
X6104229Y4218787D01*
X6094374Y4228998D01*
X6083249Y4237837D01*
X6071108Y4245203D01*
X6058103Y4250944D01*
X6044488Y4255008D01*
X6030468Y4257294D01*
X6016244Y4257751D01*
X6002121Y4256379D01*
X5988253Y4253230D01*
X5974943Y4248302D01*
X5962345Y4241749D01*
X5950661Y4233621D01*
X5940145Y4224070D01*
X5930950Y4213250D01*
X5923178Y4201312D01*
X5917031Y4188510D01*
X5912561Y4175048D01*
X5909818Y4161078D01*
X5908903Y4146905D01*
X5909818Y4132732D01*
X5912561Y4118762D01*
X5917031Y4105300D01*
X5923178Y4092498D01*
X5930950Y4080560D01*
X5940145Y4069740D01*
X5950661Y4060190D01*
X5962345Y4052062D01*
X5974943Y4045508D01*
X5988253Y4040581D01*
X6002121Y4037431D01*
G37*
G36*
X5762244Y4036060D02*
G01*
X5776468Y4036517D01*
X5790488Y4038803D01*
X5804103Y4042816D01*
X5817108Y4048607D01*
X5829249Y4055973D01*
X5840374Y4064812D01*
X5850229Y4075023D01*
X5858764Y4086402D01*
X5865723Y4098798D01*
X5871057Y4111955D01*
X5874664Y4125722D01*
X5876493Y4139793D01*
X5876493Y4154017D01*
X5874664Y4168089D01*
X5871057Y4181856D01*
X5865723Y4195013D01*
X5858764Y4207408D01*
X5850229Y4218787D01*
X5840374Y4228998D01*
X5829249Y4237837D01*
X5817108Y4245203D01*
X5804103Y4250944D01*
X5790488Y4255008D01*
X5776468Y4257294D01*
X5762244Y4257751D01*
X5748121Y4256379D01*
X5734253Y4253230D01*
X5720943Y4248302D01*
X5708345Y4241749D01*
X5696661Y4233621D01*
X5686145Y4224070D01*
X5676950Y4213250D01*
X5669178Y4201312D01*
X5663031Y4188510D01*
X5658561Y4175048D01*
X5655818Y4161078D01*
X5654903Y4146905D01*
X5655818Y4132732D01*
X5658561Y4118762D01*
X5663031Y4105300D01*
X5669178Y4092498D01*
X5676950Y4080560D01*
X5686145Y4069740D01*
X5696661Y4060190D01*
X5708345Y4052062D01*
X5720943Y4045508D01*
X5734253Y4040581D01*
X5748121Y4037431D01*
G37*
G36*
X6322669Y4047490D02*
G01*
X6325108Y4048607D01*
X6337249Y4055973D01*
X6348374Y4064812D01*
X6358229Y4075023D01*
X6366764Y4086402D01*
X6373317Y4098036D01*
X6322669Y4098036D01*
G37*
G36*
X6224981Y4047591D02*
G01*
X6224981Y4098036D01*
X6174486Y4098036D01*
X6177178Y4092498D01*
X6184950Y4080560D01*
X6194145Y4069740D01*
X6204661Y4060190D01*
X6216345Y4052062D01*
G37*
G36*
X11210544Y4048760D02*
G01*
X11224768Y4049217D01*
X11238788Y4051503D01*
X11252403Y4055516D01*
X11265408Y4061307D01*
X11277549Y4068673D01*
X11288674Y4077512D01*
X11298529Y4087723D01*
X11307064Y4099102D01*
X11314023Y4111498D01*
X11319357Y4124655D01*
X11322964Y4138422D01*
X11324793Y4152493D01*
X11324793Y4166717D01*
X11322964Y4180789D01*
X11319357Y4194556D01*
X11314023Y4207713D01*
X11307064Y4220108D01*
X11298529Y4231487D01*
X11288674Y4241698D01*
X11277549Y4250537D01*
X11265408Y4257903D01*
X11252403Y4263644D01*
X11238788Y4267708D01*
X11224768Y4269994D01*
X11210544Y4270451D01*
X11196421Y4269079D01*
X11182553Y4265930D01*
X11169243Y4261002D01*
X11156645Y4254449D01*
X11144961Y4246321D01*
X11134445Y4236770D01*
X11125250Y4225950D01*
X11117478Y4214012D01*
X11111331Y4201210D01*
X11106861Y4187748D01*
X11104118Y4173778D01*
X11103203Y4159605D01*
X11104118Y4145432D01*
X11106861Y4131462D01*
X11111331Y4118000D01*
X11117478Y4105198D01*
X11125250Y4093260D01*
X11134445Y4082440D01*
X11144961Y4072890D01*
X11156645Y4064762D01*
X11169243Y4058208D01*
X11182553Y4053281D01*
X11196421Y4050131D01*
G37*
G36*
X10956544Y4048760D02*
G01*
X10970768Y4049217D01*
X10984788Y4051503D01*
X10998403Y4055516D01*
X11011408Y4061307D01*
X11023549Y4068673D01*
X11034674Y4077512D01*
X11044529Y4087723D01*
X11053064Y4099102D01*
X11060023Y4111498D01*
X11065357Y4124655D01*
X11068964Y4138422D01*
X11070793Y4152493D01*
X11070793Y4166717D01*
X11068964Y4180789D01*
X11065357Y4194556D01*
X11060023Y4207713D01*
X11053064Y4220108D01*
X11044529Y4231487D01*
X11034674Y4241698D01*
X11024819Y4249521D01*
X11022787Y4251756D01*
X11021466Y4254500D01*
X11021009Y4257497D01*
X11021009Y4428286D01*
X11021771Y4432147D01*
X11024006Y4435449D01*
X12082424Y5493918D01*
X12087809Y5499963D01*
X12093244Y5508396D01*
X12094210Y5510276D01*
X12097918Y5519623D01*
X12099696Y5527395D01*
X12100001Y5529478D01*
X12100509Y5537504D01*
X12100509Y6603695D01*
X12100001Y6611721D01*
X12099696Y6613804D01*
X12097918Y6621576D01*
X12094210Y6630924D01*
X12093244Y6632803D01*
X12087809Y6641236D01*
X12082424Y6647281D01*
X11384381Y7345324D01*
X11378336Y7350709D01*
X11369903Y7356144D01*
X11368024Y7357109D01*
X11358676Y7360818D01*
X11350904Y7362596D01*
X11348821Y7362901D01*
X11340795Y7363409D01*
X11021466Y7363409D01*
X11017351Y7364272D01*
X11013948Y7366762D01*
X11005667Y7375906D01*
X10995253Y7384694D01*
X10983772Y7392009D01*
X10971377Y7397750D01*
X10958372Y7401814D01*
X10944910Y7404049D01*
X10931296Y7404506D01*
X10917732Y7403185D01*
X10904474Y7399985D01*
X10891723Y7395108D01*
X10879785Y7388555D01*
X10868812Y7380478D01*
X10859008Y7370978D01*
X10850524Y7360259D01*
X10843564Y7348524D01*
X10838281Y7335977D01*
X10834674Y7322820D01*
X10832846Y7309307D01*
X10832846Y7295692D01*
X10834674Y7282180D01*
X10838281Y7269022D01*
X10843564Y7256475D01*
X10850524Y7244740D01*
X10859008Y7234021D01*
X10868812Y7224522D01*
X10879785Y7216444D01*
X10891723Y7209891D01*
X10904474Y7205014D01*
X10917732Y7201814D01*
X10931296Y7200493D01*
X10944910Y7200950D01*
X10958372Y7203186D01*
X10971377Y7207250D01*
X10983772Y7212990D01*
X10995253Y7220305D01*
X11005667Y7229094D01*
X11013948Y7238238D01*
X11017351Y7240727D01*
X11021466Y7241590D01*
X11311686Y7241590D01*
X11315547Y7240828D01*
X11318849Y7238593D01*
X11975693Y6581749D01*
X11977928Y6578447D01*
X11978690Y6574586D01*
X11978690Y5566613D01*
X11977928Y5562752D01*
X11975693Y5559450D01*
X10917275Y4500981D01*
X10911890Y4494936D01*
X10906455Y4486503D01*
X10905490Y4484624D01*
X10901781Y4475276D01*
X10900003Y4467504D01*
X10899698Y4465421D01*
X10899190Y4457395D01*
X10899190Y4257344D01*
X10898682Y4254144D01*
X10897158Y4251248D01*
X10894822Y4249013D01*
X10890961Y4246321D01*
X10880445Y4236770D01*
X10871250Y4225950D01*
X10863478Y4214012D01*
X10857331Y4201210D01*
X10852861Y4187748D01*
X10850118Y4173778D01*
X10849203Y4159605D01*
X10850118Y4145432D01*
X10852861Y4131462D01*
X10857331Y4118000D01*
X10863478Y4105198D01*
X10871250Y4093260D01*
X10880445Y4082440D01*
X10890961Y4072890D01*
X10902645Y4064762D01*
X10915243Y4058208D01*
X10928553Y4053281D01*
X10942421Y4050131D01*
G37*
G36*
X8777986Y4183075D02*
G01*
X8828481Y4183075D01*
X8828481Y4233519D01*
X8819845Y4229049D01*
X8808161Y4220921D01*
X8797645Y4211370D01*
X8788450Y4200550D01*
X8780678Y4188612D01*
G37*
G36*
X8926169Y4183075D02*
G01*
X8976817Y4183075D01*
X8970264Y4194708D01*
X8961729Y4206087D01*
X8951874Y4216298D01*
X8940749Y4225137D01*
X8928608Y4232503D01*
X8926169Y4233621D01*
G37*
G36*
X11368786Y4208475D02*
G01*
X11419281Y4208475D01*
X11419281Y4258919D01*
X11410645Y4254449D01*
X11398961Y4246321D01*
X11388445Y4236770D01*
X11379250Y4225950D01*
X11371478Y4214012D01*
G37*
G36*
X11516969Y4208475D02*
G01*
X11567617Y4208475D01*
X11561064Y4220108D01*
X11552529Y4231487D01*
X11542674Y4241698D01*
X11531549Y4250537D01*
X11519408Y4257903D01*
X11516969Y4259021D01*
G37*
G36*
X10842396Y4736693D02*
G01*
X10856010Y4737150D01*
X10869472Y4739386D01*
X10882477Y4743450D01*
X10894872Y4749190D01*
X10906353Y4756505D01*
X10916767Y4765294D01*
X10925911Y4775454D01*
X10933633Y4786680D01*
X10939780Y4798822D01*
X10944250Y4811725D01*
X10946993Y4825085D01*
X10947908Y4838700D01*
X10946993Y4852314D01*
X10944250Y4865674D01*
X10939780Y4878578D01*
X10933633Y4890719D01*
X10925911Y4901946D01*
X10916767Y4912106D01*
X10906353Y4920894D01*
X10894872Y4928209D01*
X10882477Y4933950D01*
X10869472Y4938014D01*
X10856010Y4940249D01*
X10842396Y4940706D01*
X10828832Y4939385D01*
X10815574Y4936185D01*
X10802823Y4931308D01*
X10790885Y4924755D01*
X10779912Y4916678D01*
X10770108Y4907178D01*
X10767161Y4903470D01*
X10764926Y4901387D01*
X10762183Y4900066D01*
X10759186Y4899609D01*
X6963613Y4899609D01*
X6959752Y4900371D01*
X6956450Y4902606D01*
X6642506Y5216550D01*
X6640271Y5219852D01*
X6639509Y5223713D01*
X6639509Y5667806D01*
X6640271Y5671718D01*
X6642455Y5675020D01*
X6645757Y5677204D01*
X6649618Y5677966D01*
X6668008Y5678068D01*
X6677152Y5678881D01*
X6685991Y5680710D01*
X6691172Y5682284D01*
X6694779Y5683656D01*
X6702958Y5687618D01*
X6710730Y5692546D01*
X6714947Y5695848D01*
X6717893Y5698439D01*
X6724142Y5705043D01*
X6729577Y5712358D01*
X6734098Y5720283D01*
X6737705Y5728766D01*
X6740245Y5737707D01*
X6741617Y5746496D01*
X6742023Y5754166D01*
X6742023Y5853633D01*
X6741617Y5861304D01*
X6740245Y5870143D01*
X6739280Y5873902D01*
X6736334Y5882589D01*
X6732371Y5890818D01*
X6727494Y5898489D01*
X6721652Y5905601D01*
X6715048Y5911900D01*
X6707631Y5917387D01*
X6699758Y5921908D01*
X6696405Y5924753D01*
X6694525Y5928715D01*
X6694525Y5933084D01*
X6696405Y5937097D01*
X6699758Y5939891D01*
X6707631Y5944412D01*
X6714947Y5949848D01*
X6717893Y5952439D01*
X6724142Y5959043D01*
X6729577Y5966358D01*
X6734098Y5974283D01*
X6737654Y5982665D01*
X6739737Y5989726D01*
X6741820Y5993485D01*
X6745274Y5996076D01*
X6749491Y5996990D01*
X6861962Y5996990D01*
X6866331Y5995974D01*
X6869887Y5993180D01*
X7610449Y5067452D01*
X7612938Y5064556D01*
X7617510Y5059984D01*
X7620253Y5057698D01*
X7625588Y5053939D01*
X7628636Y5052110D01*
X7634478Y5049266D01*
X7637780Y5047996D01*
X7644028Y5046167D01*
X7647533Y5045405D01*
X7653985Y5044643D01*
X10961928Y5019751D01*
X10966348Y5018684D01*
X10969853Y5015890D01*
X10973308Y5011521D01*
X10983112Y5002022D01*
X10994085Y4993944D01*
X11006023Y4987391D01*
X11018774Y4982514D01*
X11032032Y4979314D01*
X11045596Y4977993D01*
X11059210Y4978450D01*
X11072672Y4980686D01*
X11085677Y4984750D01*
X11098072Y4990490D01*
X11109553Y4997805D01*
X11119967Y5006594D01*
X11129111Y5016754D01*
X11136833Y5027980D01*
X11142980Y5040122D01*
X11147450Y5053025D01*
X11150193Y5066385D01*
X11151108Y5080000D01*
X11150193Y5093614D01*
X11147450Y5106974D01*
X11142980Y5119878D01*
X11136833Y5132019D01*
X11129111Y5143246D01*
X11119967Y5153406D01*
X11109553Y5162194D01*
X11098072Y5169509D01*
X11085677Y5175250D01*
X11072672Y5179314D01*
X11059210Y5181549D01*
X11045596Y5182006D01*
X11032032Y5180685D01*
X11018774Y5177485D01*
X11006023Y5172608D01*
X10994085Y5166055D01*
X10983112Y5157978D01*
X10973308Y5148478D01*
X10970869Y5145430D01*
X10968634Y5143347D01*
X10965840Y5141976D01*
X10962843Y5141569D01*
X7692390Y5166055D01*
X7688021Y5167071D01*
X7684516Y5169865D01*
X6940956Y6099098D01*
X6936689Y6103315D01*
X6933539Y6105906D01*
X6928662Y6109360D01*
X6925157Y6111443D01*
X6919772Y6114034D01*
X6915962Y6115456D01*
X6910171Y6117132D01*
X6906209Y6117945D01*
X6900265Y6118656D01*
X6895947Y6118809D01*
X6749491Y6118809D01*
X6745274Y6119723D01*
X6741820Y6122314D01*
X6739788Y6126073D01*
X6737654Y6133134D01*
X6734098Y6141516D01*
X6729577Y6149492D01*
X6724142Y6156756D01*
X6717792Y6163411D01*
X6710781Y6169253D01*
X6702958Y6174232D01*
X6699758Y6175908D01*
X6696405Y6178753D01*
X6694525Y6182715D01*
X6694525Y6187084D01*
X6696405Y6191097D01*
X6699758Y6193891D01*
X6707631Y6198412D01*
X6714947Y6203848D01*
X6717893Y6206439D01*
X6724142Y6213043D01*
X6729577Y6220358D01*
X6734098Y6228283D01*
X6737705Y6236766D01*
X6739280Y6241897D01*
X6740245Y6245860D01*
X6742226Y6249822D01*
X6745630Y6252565D01*
X6749897Y6253581D01*
X7128306Y6262827D01*
X7131456Y6262420D01*
X7134301Y6261049D01*
X7136587Y6258864D01*
X7889138Y5284266D01*
X7892897Y5279847D01*
X7896047Y5276697D01*
X7900314Y5273090D01*
X7903972Y5270449D01*
X7908747Y5267604D01*
X7912811Y5265623D01*
X7917992Y5263591D01*
X7922259Y5262321D01*
X7927746Y5261203D01*
X7932216Y5260644D01*
X7937957Y5260390D01*
X11241989Y5272786D01*
X11245037Y5272328D01*
X11247780Y5271008D01*
X11250015Y5268925D01*
X11252708Y5265521D01*
X11262512Y5256022D01*
X11273485Y5247944D01*
X11285423Y5241391D01*
X11298174Y5236514D01*
X11311432Y5233314D01*
X11324996Y5231993D01*
X11338610Y5232450D01*
X11352072Y5234686D01*
X11365077Y5238750D01*
X11377472Y5244490D01*
X11388953Y5251805D01*
X11399367Y5260594D01*
X11408511Y5270754D01*
X11416233Y5281980D01*
X11422380Y5294122D01*
X11426850Y5307025D01*
X11429593Y5320385D01*
X11430508Y5334000D01*
X11429593Y5347614D01*
X11426850Y5360974D01*
X11422380Y5373878D01*
X11416233Y5386019D01*
X11408511Y5397246D01*
X11399367Y5407406D01*
X11388953Y5416194D01*
X11377472Y5423509D01*
X11365077Y5429250D01*
X11352072Y5433314D01*
X11338610Y5435549D01*
X11324996Y5436006D01*
X11311432Y5434685D01*
X11298174Y5431485D01*
X11285423Y5426608D01*
X11273485Y5420055D01*
X11262512Y5411978D01*
X11252708Y5402478D01*
X11249507Y5398465D01*
X11247272Y5396382D01*
X11244580Y5395061D01*
X11241582Y5394604D01*
X7972348Y5382361D01*
X7969300Y5382818D01*
X7966506Y5384139D01*
X7964271Y5386273D01*
X7211161Y6361582D01*
X7206488Y6367018D01*
X7204303Y6369151D01*
X7198918Y6373622D01*
X7196429Y6375400D01*
X7190333Y6378905D01*
X7187590Y6380226D01*
X7181037Y6382715D01*
X7178141Y6383528D01*
X7171232Y6384899D01*
X7168184Y6385255D01*
X7161022Y6385458D01*
X6749034Y6375450D01*
X6744766Y6376263D01*
X6741261Y6378803D01*
X6739077Y6382562D01*
X6736334Y6390589D01*
X6732371Y6398818D01*
X6727494Y6406489D01*
X6721652Y6413601D01*
X6715048Y6419900D01*
X6707631Y6425387D01*
X6699758Y6429908D01*
X6696405Y6432753D01*
X6694525Y6436715D01*
X6694525Y6441084D01*
X6696405Y6445097D01*
X6699758Y6447891D01*
X6707631Y6452412D01*
X6714947Y6457848D01*
X6717893Y6460439D01*
X6724142Y6467043D01*
X6729577Y6474358D01*
X6734098Y6482283D01*
X6737705Y6490766D01*
X6740245Y6499707D01*
X6741617Y6508496D01*
X6742023Y6516166D01*
X6742023Y6615633D01*
X6741617Y6623303D01*
X6740245Y6632143D01*
X6739280Y6635902D01*
X6736334Y6644589D01*
X6732371Y6652818D01*
X6727494Y6660489D01*
X6721652Y6667601D01*
X6715048Y6673900D01*
X6707631Y6679387D01*
X6699758Y6683908D01*
X6696405Y6686753D01*
X6694525Y6690715D01*
X6694525Y6695084D01*
X6696405Y6699097D01*
X6699758Y6701891D01*
X6707631Y6706412D01*
X6714947Y6711848D01*
X6717893Y6714439D01*
X6724142Y6721043D01*
X6729577Y6728358D01*
X6734098Y6736283D01*
X6737705Y6744766D01*
X6740245Y6753707D01*
X6741617Y6762496D01*
X6742023Y6770166D01*
X6742023Y6869633D01*
X6741617Y6877303D01*
X6740245Y6886143D01*
X6739280Y6889902D01*
X6736334Y6898589D01*
X6732371Y6906818D01*
X6727494Y6914489D01*
X6721652Y6921601D01*
X6715048Y6927900D01*
X6707631Y6933387D01*
X6699758Y6937908D01*
X6696405Y6940753D01*
X6694525Y6944715D01*
X6694525Y6949084D01*
X6696405Y6953097D01*
X6699758Y6955891D01*
X6707631Y6960412D01*
X6714947Y6965848D01*
X6717893Y6968439D01*
X6724142Y6975043D01*
X6729577Y6982358D01*
X6734098Y6990283D01*
X6737705Y6998766D01*
X6740245Y7007707D01*
X6741617Y7016496D01*
X6742023Y7024166D01*
X6742023Y7123633D01*
X6741617Y7131303D01*
X6740245Y7140143D01*
X6739280Y7143902D01*
X6736334Y7152589D01*
X6732371Y7160818D01*
X6727494Y7168489D01*
X6721652Y7175601D01*
X6715048Y7181900D01*
X6707631Y7187387D01*
X6699758Y7191908D01*
X6696405Y7194753D01*
X6694525Y7198715D01*
X6694525Y7203084D01*
X6696405Y7207097D01*
X6699758Y7209891D01*
X6707631Y7214412D01*
X6714947Y7219848D01*
X6717893Y7222439D01*
X6724142Y7229043D01*
X6729577Y7236358D01*
X6734098Y7244283D01*
X6737705Y7252766D01*
X6740245Y7261707D01*
X6741617Y7270496D01*
X6742023Y7278166D01*
X6742023Y7377633D01*
X6741617Y7385303D01*
X6740245Y7394143D01*
X6739280Y7397902D01*
X6736334Y7406589D01*
X6732371Y7414818D01*
X6727494Y7422489D01*
X6721652Y7429601D01*
X6715048Y7435900D01*
X6707631Y7441387D01*
X6699758Y7445908D01*
X6694779Y7448143D01*
X6691172Y7449515D01*
X6682486Y7452004D01*
X6673392Y7453426D01*
X6665823Y7453782D01*
X6491376Y7453782D01*
X6483807Y7453426D01*
X6474764Y7452004D01*
X6466027Y7449515D01*
X6462369Y7448143D01*
X6454241Y7444231D01*
X6446418Y7439253D01*
X6439408Y7433411D01*
X6433108Y7426807D01*
X6427622Y7419492D01*
X6424828Y7414869D01*
X6423050Y7411415D01*
X6419545Y7403084D01*
X6417005Y7394244D01*
X6415582Y7385202D01*
X6415227Y7377633D01*
X6415227Y7278166D01*
X6415582Y7270648D01*
X6417005Y7261555D01*
X6419545Y7252716D01*
X6423050Y7244384D01*
X6424828Y7240981D01*
X6429756Y7233259D01*
X6435496Y7226300D01*
X6442252Y7219848D01*
X6449568Y7214412D01*
X6457492Y7209891D01*
X6460845Y7207097D01*
X6462674Y7203084D01*
X6462674Y7198715D01*
X6460845Y7194753D01*
X6457492Y7191908D01*
X6449568Y7187387D01*
X6442202Y7181900D01*
X6435598Y7175601D01*
X6429756Y7168540D01*
X6424828Y7160869D01*
X6423050Y7157415D01*
X6419545Y7149084D01*
X6417005Y7140244D01*
X6415582Y7131202D01*
X6415227Y7123633D01*
X6415227Y7024166D01*
X6415582Y7016648D01*
X6417005Y7007555D01*
X6419545Y6998716D01*
X6423050Y6990384D01*
X6424828Y6986981D01*
X6429756Y6979259D01*
X6435496Y6972300D01*
X6442252Y6965848D01*
X6449568Y6960412D01*
X6457492Y6955891D01*
X6460845Y6953097D01*
X6462674Y6949084D01*
X6462674Y6944715D01*
X6460845Y6940753D01*
X6457492Y6937908D01*
X6449568Y6933387D01*
X6442202Y6927900D01*
X6435598Y6921601D01*
X6429756Y6914540D01*
X6424828Y6906869D01*
X6423050Y6903415D01*
X6419545Y6895084D01*
X6417005Y6886244D01*
X6415582Y6877202D01*
X6415227Y6869633D01*
X6415227Y6770166D01*
X6415582Y6762648D01*
X6417005Y6753555D01*
X6419545Y6744716D01*
X6423050Y6736384D01*
X6424828Y6732981D01*
X6429756Y6725259D01*
X6435496Y6718300D01*
X6442252Y6711848D01*
X6449568Y6706412D01*
X6457492Y6701891D01*
X6460845Y6699097D01*
X6462674Y6695084D01*
X6462674Y6690715D01*
X6460845Y6686753D01*
X6457492Y6683908D01*
X6449568Y6679387D01*
X6442202Y6673900D01*
X6435598Y6667601D01*
X6429756Y6660540D01*
X6424828Y6652869D01*
X6423050Y6649415D01*
X6419545Y6641084D01*
X6417005Y6632244D01*
X6415582Y6623202D01*
X6415227Y6615633D01*
X6415227Y6516166D01*
X6415582Y6508648D01*
X6417005Y6499555D01*
X6419545Y6490716D01*
X6423050Y6482384D01*
X6424828Y6478981D01*
X6429756Y6471259D01*
X6435496Y6464300D01*
X6442252Y6457848D01*
X6449568Y6452412D01*
X6457492Y6447891D01*
X6460845Y6445097D01*
X6462674Y6441084D01*
X6462674Y6436715D01*
X6460845Y6432753D01*
X6457492Y6429908D01*
X6449568Y6425387D01*
X6442202Y6419900D01*
X6435598Y6413601D01*
X6429756Y6406540D01*
X6424828Y6398869D01*
X6423050Y6395415D01*
X6419545Y6387134D01*
X6417462Y6380073D01*
X6415379Y6376314D01*
X6411925Y6373723D01*
X6407708Y6372809D01*
X6274054Y6372809D01*
X6267246Y6372453D01*
X6263894Y6371996D01*
X6257391Y6370523D01*
X6254140Y6369558D01*
X6247942Y6367018D01*
X6244894Y6365494D01*
X6239205Y6362039D01*
X6236512Y6360007D01*
X6231331Y6355537D01*
X5540959Y5689854D01*
X5537708Y5687771D01*
X5533898Y5687009D01*
X5334406Y5687009D01*
X5323992Y5686145D01*
X5314238Y5683656D01*
X5305044Y5679643D01*
X5296611Y5674156D01*
X5289194Y5667349D01*
X5283047Y5659374D01*
X5278272Y5650534D01*
X5274970Y5641035D01*
X5273344Y5631129D01*
X5273344Y5621070D01*
X5274970Y5611164D01*
X5278272Y5601665D01*
X5283047Y5592826D01*
X5289194Y5584850D01*
X5296611Y5578043D01*
X5305044Y5572556D01*
X5314238Y5568543D01*
X5323992Y5566054D01*
X5334406Y5565190D01*
X5374386Y5565190D01*
X5378500Y5564327D01*
X5381904Y5561838D01*
X5384038Y5558180D01*
X5384495Y5554014D01*
X5383225Y5550001D01*
X5380431Y5546852D01*
X5369712Y5538978D01*
X5359908Y5529478D01*
X5351424Y5518759D01*
X5344464Y5507024D01*
X5339181Y5494477D01*
X5335574Y5481320D01*
X5333746Y5467807D01*
X5333746Y5454192D01*
X5335574Y5440680D01*
X5339181Y5427522D01*
X5344464Y5414975D01*
X5351424Y5403240D01*
X5359908Y5392521D01*
X5369712Y5383022D01*
X5380685Y5374944D01*
X5392623Y5368391D01*
X5405374Y5363514D01*
X5418632Y5360314D01*
X5432196Y5358993D01*
X5445810Y5359450D01*
X5459272Y5361686D01*
X5472277Y5365750D01*
X5484672Y5371490D01*
X5496153Y5378805D01*
X5506567Y5387594D01*
X5514848Y5396738D01*
X5518251Y5399227D01*
X5522366Y5400090D01*
X5816295Y5400090D01*
X5824321Y5400598D01*
X5826404Y5400903D01*
X5834176Y5402681D01*
X5843524Y5406390D01*
X5845403Y5407355D01*
X5853836Y5412790D01*
X5859881Y5418175D01*
X6075324Y5633618D01*
X6080709Y5639663D01*
X6086144Y5648096D01*
X6087110Y5649976D01*
X6090818Y5659323D01*
X6092596Y5667095D01*
X6092901Y5669178D01*
X6093409Y5677204D01*
X6093409Y5761786D01*
X6094171Y5765647D01*
X6096406Y5768949D01*
X6321450Y5993993D01*
X6324752Y5996228D01*
X6328613Y5996990D01*
X6407708Y5996990D01*
X6411925Y5996076D01*
X6415379Y5993485D01*
X6417462Y5989726D01*
X6419545Y5982665D01*
X6423050Y5974384D01*
X6424828Y5970981D01*
X6429756Y5963259D01*
X6435496Y5956300D01*
X6442252Y5949848D01*
X6449568Y5944412D01*
X6457492Y5939891D01*
X6460845Y5937097D01*
X6462674Y5933084D01*
X6462674Y5928715D01*
X6460845Y5924753D01*
X6457492Y5921908D01*
X6449568Y5917387D01*
X6442202Y5911900D01*
X6435598Y5905601D01*
X6429756Y5898540D01*
X6424828Y5890869D01*
X6423050Y5887415D01*
X6419545Y5879084D01*
X6417005Y5870244D01*
X6415582Y5861202D01*
X6415227Y5853633D01*
X6415227Y5754166D01*
X6415582Y5746648D01*
X6417005Y5737555D01*
X6419545Y5728716D01*
X6423050Y5720384D01*
X6424828Y5716981D01*
X6429756Y5709259D01*
X6435496Y5702300D01*
X6442252Y5695848D01*
X6449568Y5690412D01*
X6457442Y5685942D01*
X6466027Y5682284D01*
X6474764Y5679846D01*
X6483705Y5678424D01*
X6491376Y5677966D01*
X6507530Y5677966D01*
X6511442Y5677204D01*
X6514693Y5675020D01*
X6516928Y5671718D01*
X6517690Y5667806D01*
X6517690Y5194604D01*
X6518198Y5186578D01*
X6518503Y5184495D01*
X6520281Y5176723D01*
X6523990Y5167376D01*
X6524955Y5165496D01*
X6530390Y5157063D01*
X6535775Y5151018D01*
X6890918Y4795875D01*
X6896963Y4790490D01*
X6905396Y4785055D01*
X6907275Y4784090D01*
X6916623Y4780381D01*
X6924395Y4778603D01*
X6926478Y4778298D01*
X6934504Y4777790D01*
X10759186Y4777790D01*
X10762183Y4777333D01*
X10764926Y4776012D01*
X10767161Y4773930D01*
X10770108Y4770221D01*
X10779912Y4760722D01*
X10790885Y4752644D01*
X10802823Y4746091D01*
X10815574Y4741214D01*
X10828832Y4738014D01*
G37*
G36*
X5143804Y5209590D02*
G01*
X5968695Y5209590D01*
X5976721Y5210098D01*
X5978804Y5210403D01*
X5986576Y5212181D01*
X5995924Y5215890D01*
X5997803Y5216855D01*
X6006236Y5222290D01*
X6012281Y5227675D01*
X6253124Y5468518D01*
X6258509Y5474563D01*
X6263944Y5482996D01*
X6264910Y5484876D01*
X6268618Y5494223D01*
X6270396Y5501995D01*
X6270701Y5504078D01*
X6271209Y5512104D01*
X6271209Y5587593D01*
X6270345Y5598007D01*
X6267856Y5607761D01*
X6263843Y5616956D01*
X6258356Y5625388D01*
X6251549Y5632805D01*
X6243574Y5638952D01*
X6234734Y5643727D01*
X6225235Y5647029D01*
X6215329Y5648655D01*
X6205270Y5648655D01*
X6195364Y5647029D01*
X6185865Y5643727D01*
X6177026Y5638952D01*
X6169050Y5632805D01*
X6162243Y5625388D01*
X6156756Y5616956D01*
X6152743Y5607761D01*
X6150254Y5598007D01*
X6149390Y5587593D01*
X6149390Y5541213D01*
X6148628Y5537352D01*
X6146393Y5534050D01*
X5946749Y5334406D01*
X5943447Y5332171D01*
X5939586Y5331409D01*
X5172913Y5331409D01*
X5169052Y5332171D01*
X5165750Y5334406D01*
X5016906Y5483250D01*
X5014671Y5486552D01*
X5013909Y5490413D01*
X5013909Y5825286D01*
X5014671Y5829147D01*
X5016906Y5832449D01*
X5021173Y5836716D01*
X5027930Y5844743D01*
X5033111Y5853379D01*
X5036718Y5862726D01*
X5038801Y5872581D01*
X5039207Y5882640D01*
X5037988Y5892596D01*
X5035092Y5902248D01*
X5030673Y5911240D01*
X5024831Y5919419D01*
X5017719Y5926531D01*
X5009540Y5932373D01*
X5000548Y5936792D01*
X4990896Y5939688D01*
X4980940Y5940907D01*
X4970881Y5940501D01*
X4961026Y5938418D01*
X4951679Y5934811D01*
X4943043Y5929630D01*
X4935016Y5922873D01*
X4910175Y5897981D01*
X4904790Y5891936D01*
X4899355Y5883503D01*
X4898390Y5881624D01*
X4894681Y5872276D01*
X4892903Y5864504D01*
X4892598Y5862421D01*
X4892090Y5854395D01*
X4892090Y5461304D01*
X4892598Y5453278D01*
X4892903Y5451195D01*
X4894681Y5443423D01*
X4898390Y5434076D01*
X4899355Y5432196D01*
X4904790Y5423763D01*
X4910175Y5417718D01*
X5100218Y5227675D01*
X5106263Y5222290D01*
X5114696Y5216855D01*
X5116576Y5215890D01*
X5125923Y5212181D01*
X5133695Y5210403D01*
X5135778Y5210098D01*
G37*
G36*
X8015376Y5677966D02*
G01*
X8189823Y5677966D01*
X8197494Y5678424D01*
X8206486Y5679846D01*
X8215172Y5682284D01*
X8218779Y5683656D01*
X8226958Y5687618D01*
X8234730Y5692546D01*
X8238947Y5695848D01*
X8241893Y5698439D01*
X8248142Y5705043D01*
X8253577Y5712358D01*
X8258098Y5720283D01*
X8261705Y5728766D01*
X8264245Y5737707D01*
X8265617Y5746496D01*
X8266023Y5754166D01*
X8266023Y5853633D01*
X8265617Y5861304D01*
X8264245Y5870143D01*
X8263280Y5873902D01*
X8260334Y5882589D01*
X8256371Y5890818D01*
X8251494Y5898489D01*
X8245652Y5905601D01*
X8239048Y5911900D01*
X8231631Y5917387D01*
X8223758Y5921908D01*
X8220405Y5924753D01*
X8218525Y5928715D01*
X8218525Y5933084D01*
X8220405Y5937097D01*
X8223758Y5939891D01*
X8231631Y5944412D01*
X8238947Y5949848D01*
X8241893Y5952439D01*
X8248142Y5959043D01*
X8253577Y5966358D01*
X8258098Y5974283D01*
X8261705Y5982766D01*
X8264245Y5991707D01*
X8265617Y6000496D01*
X8266023Y6008166D01*
X8266023Y6107633D01*
X8265617Y6115304D01*
X8264245Y6124143D01*
X8263280Y6127902D01*
X8260334Y6136589D01*
X8256371Y6144818D01*
X8251494Y6152489D01*
X8245652Y6159601D01*
X8239048Y6165900D01*
X8231631Y6171387D01*
X8223758Y6175908D01*
X8220405Y6178753D01*
X8218525Y6182715D01*
X8218525Y6187084D01*
X8220405Y6191097D01*
X8223758Y6193891D01*
X8231631Y6198412D01*
X8238947Y6203848D01*
X8241893Y6206439D01*
X8248142Y6213043D01*
X8253577Y6220358D01*
X8258098Y6228283D01*
X8261705Y6236766D01*
X8264245Y6245707D01*
X8265617Y6254496D01*
X8266023Y6262166D01*
X8266023Y6361633D01*
X8265617Y6369304D01*
X8264245Y6378143D01*
X8263280Y6381902D01*
X8260334Y6390589D01*
X8256371Y6398818D01*
X8251494Y6406489D01*
X8245652Y6413601D01*
X8239048Y6419900D01*
X8231631Y6425387D01*
X8223758Y6429908D01*
X8220405Y6432753D01*
X8218525Y6436715D01*
X8218525Y6441084D01*
X8220405Y6445097D01*
X8223758Y6447891D01*
X8231631Y6452412D01*
X8238947Y6457848D01*
X8241893Y6460439D01*
X8248142Y6467043D01*
X8253577Y6474358D01*
X8258098Y6482283D01*
X8261705Y6490766D01*
X8264245Y6499707D01*
X8265617Y6508496D01*
X8266023Y6516166D01*
X8266023Y6615633D01*
X8265617Y6623303D01*
X8264245Y6632143D01*
X8263280Y6635902D01*
X8260334Y6644589D01*
X8256371Y6652818D01*
X8251494Y6660489D01*
X8245652Y6667601D01*
X8239048Y6673900D01*
X8231631Y6679387D01*
X8223758Y6683908D01*
X8220405Y6686753D01*
X8218525Y6690715D01*
X8218525Y6695084D01*
X8220405Y6699097D01*
X8223758Y6701891D01*
X8231631Y6706412D01*
X8238947Y6711848D01*
X8241893Y6714439D01*
X8248142Y6721043D01*
X8253577Y6728358D01*
X8258098Y6736283D01*
X8261705Y6744766D01*
X8264245Y6753707D01*
X8265617Y6762496D01*
X8266023Y6770166D01*
X8266023Y6869633D01*
X8265617Y6877303D01*
X8264245Y6886143D01*
X8263280Y6889902D01*
X8260334Y6898589D01*
X8256371Y6906818D01*
X8251494Y6914489D01*
X8245652Y6921601D01*
X8239048Y6927900D01*
X8231631Y6933387D01*
X8223758Y6937908D01*
X8220405Y6940753D01*
X8218525Y6944715D01*
X8218525Y6949084D01*
X8220405Y6953097D01*
X8223758Y6955891D01*
X8231631Y6960412D01*
X8238947Y6965848D01*
X8241893Y6968439D01*
X8248142Y6975043D01*
X8253577Y6982358D01*
X8258098Y6990283D01*
X8261705Y6998766D01*
X8264245Y7007707D01*
X8265668Y7017562D01*
X8177733Y7017562D01*
X8177733Y6955942D01*
X8176920Y6952081D01*
X8174736Y6948779D01*
X8171434Y6946595D01*
X8167573Y6945782D01*
X8037677Y6945782D01*
X8033766Y6946595D01*
X8030464Y6948779D01*
X8028279Y6952081D01*
X8027517Y6955942D01*
X8027517Y7017562D01*
X7939531Y7017562D01*
X7940040Y7012889D01*
X7941919Y7003897D01*
X7944815Y6995363D01*
X7947050Y6990384D01*
X7948828Y6986981D01*
X7953756Y6979259D01*
X7959496Y6972300D01*
X7966252Y6965848D01*
X7973568Y6960412D01*
X7981492Y6955891D01*
X7984845Y6953097D01*
X7986674Y6949084D01*
X7986674Y6944715D01*
X7984845Y6940753D01*
X7981492Y6937908D01*
X7973568Y6933387D01*
X7966202Y6927900D01*
X7959598Y6921601D01*
X7953756Y6914540D01*
X7948828Y6906869D01*
X7947050Y6903415D01*
X7943545Y6895084D01*
X7941005Y6886244D01*
X7939582Y6877202D01*
X7939227Y6869633D01*
X7939227Y6770166D01*
X7939582Y6762648D01*
X7941005Y6753555D01*
X7943545Y6744716D01*
X7947050Y6736384D01*
X7948828Y6732981D01*
X7953756Y6725259D01*
X7959496Y6718300D01*
X7966252Y6711848D01*
X7973568Y6706412D01*
X7981492Y6701891D01*
X7984845Y6699097D01*
X7986674Y6695084D01*
X7986674Y6690715D01*
X7984845Y6686753D01*
X7981492Y6683908D01*
X7973568Y6679387D01*
X7966202Y6673900D01*
X7959598Y6667601D01*
X7953756Y6660540D01*
X7948828Y6652869D01*
X7947050Y6649415D01*
X7943545Y6641084D01*
X7941005Y6632244D01*
X7939582Y6623202D01*
X7939227Y6615633D01*
X7939227Y6516166D01*
X7939582Y6508648D01*
X7941005Y6499555D01*
X7943545Y6490716D01*
X7947050Y6482384D01*
X7948828Y6478981D01*
X7953756Y6471259D01*
X7959496Y6464300D01*
X7966252Y6457848D01*
X7973568Y6452412D01*
X7981492Y6447891D01*
X7984845Y6445097D01*
X7986674Y6441084D01*
X7986674Y6436715D01*
X7984845Y6432753D01*
X7981492Y6429908D01*
X7973568Y6425387D01*
X7966202Y6419900D01*
X7959598Y6413601D01*
X7953756Y6406540D01*
X7948828Y6398869D01*
X7947050Y6395415D01*
X7943545Y6387084D01*
X7941005Y6378244D01*
X7939582Y6369202D01*
X7939227Y6361633D01*
X7939227Y6262166D01*
X7939582Y6254648D01*
X7941005Y6245555D01*
X7943545Y6236716D01*
X7947050Y6228384D01*
X7948828Y6224981D01*
X7953756Y6217259D01*
X7959496Y6210300D01*
X7966252Y6203848D01*
X7973568Y6198412D01*
X7981492Y6193891D01*
X7984845Y6191097D01*
X7986674Y6187084D01*
X7986674Y6182715D01*
X7984845Y6178753D01*
X7981492Y6175908D01*
X7973568Y6171387D01*
X7966202Y6165900D01*
X7959598Y6159601D01*
X7953756Y6152540D01*
X7948828Y6144869D01*
X7947050Y6141415D01*
X7943545Y6133134D01*
X7941462Y6126073D01*
X7939379Y6122314D01*
X7935925Y6119723D01*
X7931708Y6118809D01*
X7751013Y6118809D01*
X7747152Y6119571D01*
X7743850Y6121806D01*
X7645806Y6219850D01*
X7643571Y6223152D01*
X7642809Y6227013D01*
X7642809Y7035495D01*
X7642301Y7043521D01*
X7641996Y7045604D01*
X7640218Y7053376D01*
X7636509Y7062724D01*
X7635544Y7064603D01*
X7630109Y7073036D01*
X7624724Y7079081D01*
X7117181Y7586624D01*
X7111136Y7592009D01*
X7102703Y7597444D01*
X7100824Y7598409D01*
X7091476Y7602118D01*
X7083704Y7603896D01*
X7081621Y7604201D01*
X7073595Y7604709D01*
X4966004Y7604709D01*
X4957978Y7604201D01*
X4955895Y7603896D01*
X4948123Y7602118D01*
X4938776Y7598409D01*
X4936896Y7597444D01*
X4928463Y7592009D01*
X4922418Y7586624D01*
X4719675Y7383881D01*
X4714290Y7377836D01*
X4708855Y7369403D01*
X4707890Y7367524D01*
X4704181Y7358176D01*
X4702403Y7350404D01*
X4702098Y7348321D01*
X4701590Y7340295D01*
X4701590Y6830466D01*
X4701082Y6827367D01*
X4699660Y6824522D01*
X4686808Y6812178D01*
X4678324Y6801459D01*
X4671364Y6789724D01*
X4666081Y6777177D01*
X4662474Y6764020D01*
X4660646Y6750507D01*
X4660646Y6736892D01*
X4662474Y6723380D01*
X4666081Y6710222D01*
X4671364Y6697675D01*
X4678324Y6685940D01*
X4686808Y6675221D01*
X4696612Y6665722D01*
X4707585Y6657644D01*
X4719523Y6651091D01*
X4732274Y6646214D01*
X4745532Y6643014D01*
X4759096Y6641693D01*
X4772710Y6642150D01*
X4786172Y6644386D01*
X4799177Y6648450D01*
X4811572Y6654190D01*
X4823053Y6661505D01*
X4833467Y6670294D01*
X4842611Y6680453D01*
X4850333Y6691680D01*
X4856480Y6703822D01*
X4860950Y6716725D01*
X4863693Y6730085D01*
X4864608Y6743700D01*
X4863693Y6757314D01*
X4860950Y6770674D01*
X4856480Y6783578D01*
X4850333Y6795719D01*
X4842611Y6806946D01*
X4833467Y6817106D01*
X4827016Y6822541D01*
X4824374Y6826046D01*
X4823409Y6830314D01*
X4823409Y7311186D01*
X4824171Y7315047D01*
X4826406Y7318349D01*
X4987950Y7479893D01*
X4991252Y7482128D01*
X4995113Y7482890D01*
X7044486Y7482890D01*
X7048347Y7482128D01*
X7051649Y7479893D01*
X7517993Y7013549D01*
X7520228Y7010247D01*
X7520990Y7006386D01*
X7520990Y6250686D01*
X7520533Y6247790D01*
X7519263Y6245098D01*
X7516875Y6241440D01*
X7514488Y6237071D01*
X7512456Y6232448D01*
X7510830Y6227673D01*
X7509611Y6222796D01*
X7508748Y6217818D01*
X7508341Y6212840D01*
X7508341Y6207760D01*
X7508748Y6202781D01*
X7509611Y6197803D01*
X7510830Y6192926D01*
X7512456Y6188151D01*
X7514488Y6183528D01*
X7516875Y6179108D01*
X7519619Y6174892D01*
X7522718Y6170930D01*
X7526274Y6167069D01*
X7678318Y6015075D01*
X7684363Y6009690D01*
X7692796Y6004255D01*
X7694675Y6003290D01*
X7704023Y5999581D01*
X7711795Y5997803D01*
X7713878Y5997498D01*
X7721904Y5996990D01*
X7931708Y5996990D01*
X7935925Y5996076D01*
X7939379Y5993485D01*
X7941462Y5989726D01*
X7943545Y5982665D01*
X7947050Y5974384D01*
X7948828Y5970981D01*
X7953756Y5963259D01*
X7959496Y5956300D01*
X7966252Y5949848D01*
X7973568Y5944412D01*
X7981492Y5939891D01*
X7984845Y5937097D01*
X7986674Y5933084D01*
X7986674Y5928715D01*
X7984845Y5924753D01*
X7981492Y5921908D01*
X7973568Y5917387D01*
X7966202Y5911900D01*
X7959598Y5905601D01*
X7953756Y5898540D01*
X7948828Y5890869D01*
X7947050Y5887415D01*
X7943545Y5879084D01*
X7941005Y5870244D01*
X7939582Y5861202D01*
X7939227Y5853633D01*
X7939227Y5754166D01*
X7939582Y5746648D01*
X7941005Y5737555D01*
X7943545Y5728716D01*
X7947050Y5720384D01*
X7948828Y5716981D01*
X7953756Y5709259D01*
X7959496Y5702300D01*
X7966252Y5695848D01*
X7973568Y5690412D01*
X7981442Y5685942D01*
X7990027Y5682284D01*
X7998764Y5679846D01*
X8007705Y5678424D01*
G37*
G36*
X10969396Y5981293D02*
G01*
X10983010Y5981750D01*
X10996472Y5983986D01*
X11009477Y5988050D01*
X11021872Y5993790D01*
X11033353Y6001105D01*
X11043767Y6009894D01*
X11052911Y6020054D01*
X11060633Y6031280D01*
X11066780Y6043422D01*
X11071250Y6056325D01*
X11073993Y6069685D01*
X11074908Y6083300D01*
X11073993Y6096914D01*
X11071250Y6110274D01*
X11066780Y6123178D01*
X11060633Y6135319D01*
X11052911Y6146546D01*
X11043767Y6156706D01*
X11037316Y6162141D01*
X11034674Y6165646D01*
X11033709Y6169914D01*
X11033709Y6946595D01*
X11033201Y6954621D01*
X11032896Y6956704D01*
X11031118Y6964476D01*
X11027410Y6973824D01*
X11026444Y6975703D01*
X11021009Y6984136D01*
X11015624Y6990181D01*
X10876381Y7129424D01*
X10870336Y7134809D01*
X10861903Y7140244D01*
X10860024Y7141209D01*
X10850676Y7144918D01*
X10842904Y7146696D01*
X10840821Y7147001D01*
X10832795Y7147509D01*
X10742066Y7147509D01*
X10737951Y7148372D01*
X10734548Y7150862D01*
X10726267Y7160006D01*
X10715853Y7168794D01*
X10704372Y7176109D01*
X10691977Y7181850D01*
X10678972Y7185914D01*
X10665510Y7188149D01*
X10651896Y7188606D01*
X10638332Y7187285D01*
X10625074Y7184085D01*
X10612323Y7179208D01*
X10600385Y7172655D01*
X10589412Y7164578D01*
X10579608Y7155078D01*
X10571124Y7144359D01*
X10564164Y7132624D01*
X10558881Y7120077D01*
X10555274Y7106920D01*
X10553446Y7093407D01*
X10553446Y7079792D01*
X10555274Y7066280D01*
X10558881Y7053122D01*
X10564164Y7040575D01*
X10571124Y7028840D01*
X10579608Y7018121D01*
X10589412Y7008622D01*
X10600385Y7000544D01*
X10612323Y6993991D01*
X10625074Y6989114D01*
X10638332Y6985914D01*
X10651896Y6984593D01*
X10665510Y6985050D01*
X10678972Y6987286D01*
X10691977Y6991350D01*
X10704372Y6997090D01*
X10715853Y7004405D01*
X10726267Y7013194D01*
X10734548Y7022338D01*
X10737951Y7024827D01*
X10742066Y7025690D01*
X10803686Y7025690D01*
X10807547Y7024928D01*
X10810849Y7022693D01*
X10908893Y6924649D01*
X10911128Y6921347D01*
X10911890Y6917486D01*
X10911890Y6170066D01*
X10911382Y6166967D01*
X10909960Y6164122D01*
X10897108Y6151778D01*
X10888624Y6141059D01*
X10881664Y6129324D01*
X10876381Y6116777D01*
X10872774Y6103620D01*
X10870946Y6090107D01*
X10870946Y6076492D01*
X10872774Y6062980D01*
X10876381Y6049822D01*
X10881664Y6037275D01*
X10888624Y6025540D01*
X10897108Y6014821D01*
X10906912Y6005322D01*
X10917885Y5997244D01*
X10929823Y5990691D01*
X10942574Y5985814D01*
X10955832Y5982614D01*
G37*
G36*
X7939531Y7130237D02*
G01*
X8027517Y7130237D01*
X8027517Y7191806D01*
X8028279Y7195718D01*
X8030464Y7199020D01*
X8033766Y7201204D01*
X8037677Y7201966D01*
X8167573Y7201966D01*
X8171434Y7201204D01*
X8174736Y7199020D01*
X8176920Y7195718D01*
X8177733Y7191806D01*
X8177733Y7130237D01*
X8265668Y7130237D01*
X8265159Y7134809D01*
X8264245Y7140143D01*
X8263280Y7143902D01*
X8260334Y7152589D01*
X8256371Y7160818D01*
X8251494Y7168489D01*
X8245652Y7175601D01*
X8239048Y7181900D01*
X8231631Y7187387D01*
X8223758Y7191908D01*
X8220405Y7194753D01*
X8218525Y7198715D01*
X8218525Y7203084D01*
X8220405Y7207097D01*
X8223758Y7209891D01*
X8231631Y7214412D01*
X8238947Y7219848D01*
X8241893Y7222439D01*
X8248142Y7229043D01*
X8253577Y7236358D01*
X8258098Y7244283D01*
X8261705Y7252766D01*
X8264245Y7261707D01*
X8265617Y7270496D01*
X8266023Y7278166D01*
X8266023Y7377633D01*
X8265617Y7385303D01*
X8264245Y7394143D01*
X8263280Y7397902D01*
X8260334Y7406589D01*
X8256371Y7414818D01*
X8251494Y7422489D01*
X8245652Y7429601D01*
X8239048Y7435900D01*
X8231631Y7441387D01*
X8223758Y7445908D01*
X8218779Y7448143D01*
X8215172Y7449515D01*
X8206486Y7452004D01*
X8197392Y7453426D01*
X8189823Y7453782D01*
X8015376Y7453782D01*
X8007807Y7453426D01*
X7998764Y7452004D01*
X7990027Y7449515D01*
X7986369Y7448143D01*
X7978241Y7444231D01*
X7970418Y7439253D01*
X7963408Y7433411D01*
X7957108Y7426807D01*
X7951622Y7419492D01*
X7948828Y7414869D01*
X7947050Y7411415D01*
X7943545Y7403084D01*
X7941005Y7394244D01*
X7939582Y7385202D01*
X7939227Y7377633D01*
X7939227Y7278166D01*
X7939582Y7270648D01*
X7941005Y7261555D01*
X7943545Y7252716D01*
X7947050Y7244384D01*
X7948828Y7240981D01*
X7953756Y7233259D01*
X7959496Y7226300D01*
X7966252Y7219848D01*
X7973568Y7214412D01*
X7981492Y7209891D01*
X7984845Y7207097D01*
X7986674Y7203084D01*
X7986674Y7198715D01*
X7984845Y7194753D01*
X7981492Y7191908D01*
X7973568Y7187387D01*
X7966202Y7181900D01*
X7959598Y7175601D01*
X7953756Y7168540D01*
X7948828Y7160869D01*
X7947050Y7157415D01*
X7943545Y7149084D01*
X7941005Y7140244D01*
G37*

%LPD*%
D10*
X8877300Y4134205D02*
G01*
X8877300Y3898900D01*
X8636000Y3657600D01*
X6763105Y3657600D01*
X6324168Y4096537D01*
X8877300Y4134205D02*
G01*
X10292994Y4134205D01*
X10604500Y3822700D01*
X11049000Y5080000D02*
G01*
X7658100Y5105400D01*
X6896100Y6057900D01*
X6578600Y6057900D01*
X6578600Y6311900D02*
G01*
X6642100Y6311900D01*
X7162800Y6324600D01*
X7937500Y5321300D01*
X11328400Y5334000D01*
X5435600Y5461000D02*
G01*
X5816600Y5461000D01*
X6032500Y5676900D01*
X6032500Y5791200D01*
X6299200Y6057900D01*
X6578600Y6057900D01*
X8102600Y6057900D02*
G01*
X7721600Y6057900D01*
X7569200Y6210300D01*
X7581900Y6223000D01*
X7581900Y7035800D01*
X7073900Y7543800D01*
X4965700Y7543800D01*
X4762500Y7340600D01*
X4762500Y6743700D01*
X5765800Y-1428394D02*
G01*
X5765800Y-4235094D01*
X6578600Y6311900D02*
G01*
X6273800Y6311900D01*
X5562600Y5626100D01*
X5334000Y5626100D01*
X4978400Y5880100D02*
G01*
X4953000Y5854700D01*
X4953000Y5461000D01*
X5143500Y5270500D01*
X5969000Y5270500D01*
X6210300Y5511800D01*
X6210300Y5588000D01*
X10960100Y4159605D02*
G01*
X10960100Y4457700D01*
X12039600Y5537200D01*
X12039600Y6604000D01*
X11341100Y7302500D01*
X10934700Y7302500D01*
X10845800Y4838700D02*
G01*
X6934200Y4838700D01*
X6578600Y5194300D01*
X6578600Y5803900D01*
X4445000Y5168900D02*
G01*
X3733800Y4457700D01*
X3733800Y4134205D01*
X10972800Y6083300D02*
G01*
X10972800Y6946900D01*
X10833100Y7086600D01*
X10655300Y7086600D01*
X10604500Y3822700D02*
G01*
X10617200Y3810000D01*
X11468100Y3810000D01*
X11468100Y4024121D01*
X11468100Y4159504D02*
G01*
X11455400Y4146804D01*
X11455400Y4108704D01*
X11468100Y3810000D02*
G01*
X11468100Y3822700D01*
X11455400Y1327505D01*
X11455400Y-1428394D02*
G01*
X11442700Y-1441094D01*
X11442700Y-4247794D01*
X11455400Y-1308100D02*
G01*
X11455400Y1327505D01*
X8877300Y4134205D02*
G01*
X8902700Y4108805D01*
X8902700Y1327505D01*
X8902700Y1327404D02*
G01*
X8890000Y1314704D01*
X8890000Y-1453794D01*
X8915400Y-4247794D02*
G01*
X8890000Y-4222394D01*
X8890000Y-1453794D01*
X6273800Y4146905D02*
G01*
X6261100Y4134205D01*
X6261100Y1340205D01*
X6273800Y-1428394D02*
G01*
X6261100Y-1415694D01*
X6261100Y1340205D01*
X6273800Y-1428394D02*
G01*
X6273800Y-4235094D01*
X3733800Y-4260595D02*
G01*
X3733800Y-1453794D01*
X3733800Y1327505D02*
G01*
X3733800Y-1453794D01*
X3733800Y1327505D02*
G01*
X3733800Y4134205D01*
X4445000Y5187596D02*
G01*
X5041900Y4590696D01*
X6121400Y4590696D01*
X6273800Y4438296D01*
X6273800Y4165602D01*
G36*
X6441109Y7377912D02*
G01*
X6441465Y7383932D01*
X6442557Y7389876D01*
X6444361Y7395641D01*
X6446824Y7401153D01*
X6449949Y7406309D01*
X6453682Y7411059D01*
X6457950Y7415326D01*
X6462699Y7419060D01*
X6467881Y7422184D01*
X6473367Y7424673D01*
X6479133Y7426452D01*
X6485077Y7427544D01*
X6491122Y7427899D01*
X6666102Y7427899D01*
X6672148Y7427544D01*
X6678066Y7426452D01*
X6683832Y7424673D01*
X6689343Y7422184D01*
X6694525Y7419060D01*
X6699275Y7415326D01*
X6703542Y7411059D01*
X6707250Y7406309D01*
X6710375Y7401153D01*
X6712864Y7395641D01*
X6714667Y7389876D01*
X6715734Y7383932D01*
X6716115Y7377912D01*
X6716115Y7277912D01*
X6715734Y7271893D01*
X6714667Y7265949D01*
X6712864Y7260183D01*
X6710375Y7254671D01*
X6707250Y7249515D01*
X6703542Y7244765D01*
X6699275Y7240473D01*
X6694525Y7236764D01*
X6689343Y7233640D01*
X6683832Y7231151D01*
X6678066Y7229373D01*
X6672148Y7228281D01*
X6666102Y7227900D01*
X6491122Y7227900D01*
X6485077Y7228281D01*
X6479133Y7229373D01*
X6473367Y7231151D01*
X6467881Y7233640D01*
X6462699Y7236764D01*
X6457950Y7240473D01*
X6453682Y7244765D01*
X6449949Y7249515D01*
X6446824Y7254671D01*
X6444361Y7260183D01*
X6442557Y7265949D01*
X6441465Y7271893D01*
X6441109Y7277912D01*
G37*
G36*
X6441109Y7123912D02*
G01*
X6441465Y7129932D01*
X6442557Y7135876D01*
X6444361Y7141641D01*
X6446824Y7147153D01*
X6449949Y7152309D01*
X6453682Y7157059D01*
X6457950Y7161326D01*
X6462699Y7165060D01*
X6467881Y7168184D01*
X6473367Y7170673D01*
X6479133Y7172452D01*
X6485077Y7173544D01*
X6491122Y7173899D01*
X6666102Y7173899D01*
X6672148Y7173544D01*
X6678066Y7172452D01*
X6683832Y7170673D01*
X6689343Y7168184D01*
X6694525Y7165060D01*
X6699275Y7161326D01*
X6703542Y7157059D01*
X6707250Y7152309D01*
X6710375Y7147153D01*
X6712864Y7141641D01*
X6714667Y7135876D01*
X6715734Y7129932D01*
X6716115Y7123912D01*
X6716115Y7023912D01*
X6715734Y7017893D01*
X6714667Y7011949D01*
X6712864Y7006183D01*
X6710375Y7000671D01*
X6707250Y6995515D01*
X6703542Y6990765D01*
X6699275Y6986473D01*
X6694525Y6982764D01*
X6689343Y6979640D01*
X6683832Y6977151D01*
X6678066Y6975373D01*
X6672148Y6974281D01*
X6666102Y6973900D01*
X6491122Y6973900D01*
X6485077Y6974281D01*
X6479133Y6975373D01*
X6473367Y6977151D01*
X6467881Y6979640D01*
X6462699Y6982764D01*
X6457950Y6986473D01*
X6453682Y6990765D01*
X6449949Y6995515D01*
X6446824Y7000671D01*
X6444361Y7006183D01*
X6442557Y7011949D01*
X6441465Y7017893D01*
X6441109Y7023912D01*
G37*
G36*
X6441109Y6869912D02*
G01*
X6441465Y6875932D01*
X6442557Y6881876D01*
X6444361Y6887641D01*
X6446824Y6893153D01*
X6449949Y6898309D01*
X6453682Y6903059D01*
X6457950Y6907326D01*
X6462699Y6911060D01*
X6467881Y6914184D01*
X6473367Y6916673D01*
X6479133Y6918452D01*
X6485077Y6919544D01*
X6491122Y6919899D01*
X6666102Y6919899D01*
X6672148Y6919544D01*
X6678066Y6918452D01*
X6683832Y6916673D01*
X6689343Y6914184D01*
X6694525Y6911060D01*
X6699275Y6907326D01*
X6703542Y6903059D01*
X6707250Y6898309D01*
X6710375Y6893153D01*
X6712864Y6887641D01*
X6714667Y6881876D01*
X6715734Y6875932D01*
X6716115Y6869912D01*
X6716115Y6769912D01*
X6715734Y6763893D01*
X6714667Y6757949D01*
X6712864Y6752183D01*
X6710375Y6746671D01*
X6707250Y6741515D01*
X6703542Y6736765D01*
X6699275Y6732473D01*
X6694525Y6728764D01*
X6689343Y6725640D01*
X6683832Y6723151D01*
X6678066Y6721373D01*
X6672148Y6720281D01*
X6666102Y6719900D01*
X6491122Y6719900D01*
X6485077Y6720281D01*
X6479133Y6721373D01*
X6473367Y6723151D01*
X6467881Y6725640D01*
X6462699Y6728764D01*
X6457950Y6732473D01*
X6453682Y6736765D01*
X6449949Y6741515D01*
X6446824Y6746671D01*
X6444361Y6752183D01*
X6442557Y6757949D01*
X6441465Y6763893D01*
X6441109Y6769912D01*
G37*
G36*
X6441109Y6615912D02*
G01*
X6441465Y6621932D01*
X6442557Y6627876D01*
X6444361Y6633641D01*
X6446824Y6639153D01*
X6449949Y6644309D01*
X6453682Y6649059D01*
X6457950Y6653326D01*
X6462699Y6657060D01*
X6467881Y6660184D01*
X6473367Y6662673D01*
X6479133Y6664452D01*
X6485077Y6665544D01*
X6491122Y6665899D01*
X6666102Y6665899D01*
X6672148Y6665544D01*
X6678066Y6664452D01*
X6683832Y6662673D01*
X6689343Y6660184D01*
X6694525Y6657060D01*
X6699275Y6653326D01*
X6703542Y6649059D01*
X6707250Y6644309D01*
X6710375Y6639153D01*
X6712864Y6633641D01*
X6714667Y6627876D01*
X6715734Y6621932D01*
X6716115Y6615912D01*
X6716115Y6515912D01*
X6715734Y6509893D01*
X6714667Y6503949D01*
X6712864Y6498183D01*
X6710375Y6492671D01*
X6707250Y6487515D01*
X6703542Y6482765D01*
X6699275Y6478473D01*
X6694525Y6474764D01*
X6689343Y6471640D01*
X6683832Y6469151D01*
X6678066Y6467373D01*
X6672148Y6466281D01*
X6666102Y6465900D01*
X6491122Y6465900D01*
X6485077Y6466281D01*
X6479133Y6467373D01*
X6473367Y6469151D01*
X6467881Y6471640D01*
X6462699Y6474764D01*
X6457950Y6478473D01*
X6453682Y6482765D01*
X6449949Y6487515D01*
X6446824Y6492671D01*
X6444361Y6498183D01*
X6442557Y6503949D01*
X6441465Y6509893D01*
X6441109Y6515912D01*
G37*
G36*
X6441109Y6361912D02*
G01*
X6441465Y6367932D01*
X6442557Y6373876D01*
X6444361Y6379641D01*
X6446824Y6385153D01*
X6449949Y6390309D01*
X6453682Y6395059D01*
X6457950Y6399326D01*
X6462699Y6403060D01*
X6467881Y6406184D01*
X6473367Y6408673D01*
X6479133Y6410452D01*
X6485077Y6411544D01*
X6491122Y6411899D01*
X6666102Y6411899D01*
X6672148Y6411544D01*
X6678066Y6410452D01*
X6683832Y6408673D01*
X6689343Y6406184D01*
X6694525Y6403060D01*
X6699275Y6399326D01*
X6703542Y6395059D01*
X6707250Y6390309D01*
X6710375Y6385153D01*
X6712864Y6379641D01*
X6714667Y6373876D01*
X6715734Y6367932D01*
X6716115Y6361912D01*
X6716115Y6261912D01*
X6715734Y6255893D01*
X6714667Y6249949D01*
X6712864Y6244183D01*
X6710375Y6238671D01*
X6707250Y6233515D01*
X6703542Y6228765D01*
X6699275Y6224473D01*
X6694525Y6220764D01*
X6689343Y6217640D01*
X6683832Y6215151D01*
X6678066Y6213373D01*
X6672148Y6212281D01*
X6666102Y6211900D01*
X6491122Y6211900D01*
X6485077Y6212281D01*
X6479133Y6213373D01*
X6473367Y6215151D01*
X6467881Y6217640D01*
X6462699Y6220764D01*
X6457950Y6224473D01*
X6453682Y6228765D01*
X6449949Y6233515D01*
X6446824Y6238671D01*
X6444361Y6244183D01*
X6442557Y6249949D01*
X6441465Y6255893D01*
X6441109Y6261912D01*
G37*
G36*
X6441109Y6107912D02*
G01*
X6441465Y6113932D01*
X6442557Y6119876D01*
X6444361Y6125641D01*
X6446824Y6131153D01*
X6449949Y6136309D01*
X6453682Y6141059D01*
X6457950Y6145326D01*
X6462699Y6149060D01*
X6467881Y6152184D01*
X6473367Y6154673D01*
X6479133Y6156452D01*
X6485077Y6157544D01*
X6491122Y6157899D01*
X6666102Y6157899D01*
X6672148Y6157544D01*
X6678066Y6156452D01*
X6683832Y6154673D01*
X6689343Y6152184D01*
X6694525Y6149060D01*
X6699275Y6145326D01*
X6703542Y6141059D01*
X6707250Y6136309D01*
X6710375Y6131153D01*
X6712864Y6125641D01*
X6714667Y6119876D01*
X6715734Y6113932D01*
X6716115Y6107912D01*
X6716115Y6007912D01*
X6715734Y6001893D01*
X6714667Y5995949D01*
X6712864Y5990183D01*
X6710375Y5984671D01*
X6707250Y5979515D01*
X6703542Y5974765D01*
X6699275Y5970473D01*
X6694525Y5966764D01*
X6689343Y5963640D01*
X6683832Y5961151D01*
X6678066Y5959373D01*
X6672148Y5958281D01*
X6666102Y5957900D01*
X6491122Y5957900D01*
X6485077Y5958281D01*
X6479133Y5959373D01*
X6473367Y5961151D01*
X6467881Y5963640D01*
X6462699Y5966764D01*
X6457950Y5970473D01*
X6453682Y5974765D01*
X6449949Y5979515D01*
X6446824Y5984671D01*
X6444361Y5990183D01*
X6442557Y5995949D01*
X6441465Y6001893D01*
X6441109Y6007912D01*
G37*
G36*
X6441109Y5853912D02*
G01*
X6441465Y5859932D01*
X6442557Y5865876D01*
X6444361Y5871641D01*
X6446824Y5877153D01*
X6449949Y5882309D01*
X6453682Y5887059D01*
X6457950Y5891326D01*
X6462699Y5895060D01*
X6467881Y5898184D01*
X6473367Y5900673D01*
X6479133Y5902452D01*
X6485077Y5903544D01*
X6491122Y5903899D01*
X6666102Y5903899D01*
X6672148Y5903544D01*
X6678066Y5902452D01*
X6683832Y5900673D01*
X6689343Y5898184D01*
X6694525Y5895060D01*
X6699275Y5891326D01*
X6703542Y5887059D01*
X6707250Y5882309D01*
X6710375Y5877153D01*
X6712864Y5871641D01*
X6714667Y5865876D01*
X6715734Y5859932D01*
X6716115Y5853912D01*
X6716115Y5753912D01*
X6715734Y5747893D01*
X6714667Y5741949D01*
X6712864Y5736183D01*
X6710375Y5730671D01*
X6707250Y5725515D01*
X6703542Y5720765D01*
X6699275Y5716473D01*
X6694525Y5712764D01*
X6689343Y5709640D01*
X6683832Y5707151D01*
X6678066Y5705373D01*
X6672148Y5704281D01*
X6666102Y5703900D01*
X6491122Y5703900D01*
X6485077Y5704281D01*
X6479133Y5705373D01*
X6473367Y5707151D01*
X6467881Y5709640D01*
X6462699Y5712764D01*
X6457950Y5716473D01*
X6453682Y5720765D01*
X6449949Y5725515D01*
X6446824Y5730671D01*
X6444361Y5736183D01*
X6442557Y5741949D01*
X6441465Y5747893D01*
X6441109Y5753912D01*
G37*
G36*
X7965109Y5853912D02*
G01*
X7965465Y5859932D01*
X7966557Y5865876D01*
X7968361Y5871641D01*
X7970824Y5877153D01*
X7973949Y5882309D01*
X7977682Y5887059D01*
X7981950Y5891326D01*
X7986699Y5895060D01*
X7991881Y5898184D01*
X7997367Y5900673D01*
X8003133Y5902452D01*
X8009077Y5903544D01*
X8015122Y5903899D01*
X8190102Y5903899D01*
X8196148Y5903544D01*
X8202066Y5902452D01*
X8207832Y5900673D01*
X8213343Y5898184D01*
X8218525Y5895060D01*
X8223275Y5891326D01*
X8227542Y5887059D01*
X8231250Y5882309D01*
X8234375Y5877153D01*
X8236864Y5871641D01*
X8238667Y5865876D01*
X8239734Y5859932D01*
X8240115Y5853912D01*
X8240115Y5753912D01*
X8239734Y5747893D01*
X8238667Y5741949D01*
X8236864Y5736183D01*
X8234375Y5730671D01*
X8231250Y5725515D01*
X8227542Y5720765D01*
X8223275Y5716473D01*
X8218525Y5712764D01*
X8213343Y5709640D01*
X8207832Y5707151D01*
X8202066Y5705373D01*
X8196148Y5704281D01*
X8190102Y5703900D01*
X8015122Y5703900D01*
X8009077Y5704281D01*
X8003133Y5705373D01*
X7997367Y5707151D01*
X7991881Y5709640D01*
X7986699Y5712764D01*
X7981950Y5716473D01*
X7977682Y5720765D01*
X7973949Y5725515D01*
X7970824Y5730671D01*
X7968361Y5736183D01*
X7966557Y5741949D01*
X7965465Y5747893D01*
X7965109Y5753912D01*
G37*
G36*
X7965109Y6107912D02*
G01*
X7965465Y6113932D01*
X7966557Y6119876D01*
X7968361Y6125641D01*
X7970824Y6131153D01*
X7973949Y6136309D01*
X7977682Y6141059D01*
X7981950Y6145326D01*
X7986699Y6149060D01*
X7991881Y6152184D01*
X7997367Y6154673D01*
X8003133Y6156452D01*
X8009077Y6157544D01*
X8015122Y6157899D01*
X8190102Y6157899D01*
X8196148Y6157544D01*
X8202066Y6156452D01*
X8207832Y6154673D01*
X8213343Y6152184D01*
X8218525Y6149060D01*
X8223275Y6145326D01*
X8227542Y6141059D01*
X8231250Y6136309D01*
X8234375Y6131153D01*
X8236864Y6125641D01*
X8238667Y6119876D01*
X8239734Y6113932D01*
X8240115Y6107912D01*
X8240115Y6007912D01*
X8239734Y6001893D01*
X8238667Y5995949D01*
X8236864Y5990183D01*
X8234375Y5984671D01*
X8231250Y5979515D01*
X8227542Y5974765D01*
X8223275Y5970473D01*
X8218525Y5966764D01*
X8213343Y5963640D01*
X8207832Y5961151D01*
X8202066Y5959373D01*
X8196148Y5958281D01*
X8190102Y5957900D01*
X8015122Y5957900D01*
X8009077Y5958281D01*
X8003133Y5959373D01*
X7997367Y5961151D01*
X7991881Y5963640D01*
X7986699Y5966764D01*
X7981950Y5970473D01*
X7977682Y5974765D01*
X7973949Y5979515D01*
X7970824Y5984671D01*
X7968361Y5990183D01*
X7966557Y5995949D01*
X7965465Y6001893D01*
X7965109Y6007912D01*
G37*
G36*
X7965109Y6361912D02*
G01*
X7965465Y6367932D01*
X7966557Y6373876D01*
X7968361Y6379641D01*
X7970824Y6385153D01*
X7973949Y6390309D01*
X7977682Y6395059D01*
X7981950Y6399326D01*
X7986699Y6403060D01*
X7991881Y6406184D01*
X7997367Y6408673D01*
X8003133Y6410452D01*
X8009077Y6411544D01*
X8015122Y6411899D01*
X8190102Y6411899D01*
X8196148Y6411544D01*
X8202066Y6410452D01*
X8207832Y6408673D01*
X8213343Y6406184D01*
X8218525Y6403060D01*
X8223275Y6399326D01*
X8227542Y6395059D01*
X8231250Y6390309D01*
X8234375Y6385153D01*
X8236864Y6379641D01*
X8238667Y6373876D01*
X8239734Y6367932D01*
X8240115Y6361912D01*
X8240115Y6261912D01*
X8239734Y6255893D01*
X8238667Y6249949D01*
X8236864Y6244183D01*
X8234375Y6238671D01*
X8231250Y6233515D01*
X8227542Y6228765D01*
X8223275Y6224473D01*
X8218525Y6220764D01*
X8213343Y6217640D01*
X8207832Y6215151D01*
X8202066Y6213373D01*
X8196148Y6212281D01*
X8190102Y6211900D01*
X8015122Y6211900D01*
X8009077Y6212281D01*
X8003133Y6213373D01*
X7997367Y6215151D01*
X7991881Y6217640D01*
X7986699Y6220764D01*
X7981950Y6224473D01*
X7977682Y6228765D01*
X7973949Y6233515D01*
X7970824Y6238671D01*
X7968361Y6244183D01*
X7966557Y6249949D01*
X7965465Y6255893D01*
X7965109Y6261912D01*
G37*
G36*
X7965109Y6615912D02*
G01*
X7965465Y6621932D01*
X7966557Y6627876D01*
X7968361Y6633641D01*
X7970824Y6639153D01*
X7973949Y6644309D01*
X7977682Y6649059D01*
X7981950Y6653326D01*
X7986699Y6657060D01*
X7991881Y6660184D01*
X7997367Y6662673D01*
X8003133Y6664452D01*
X8009077Y6665544D01*
X8015122Y6665899D01*
X8190102Y6665899D01*
X8196148Y6665544D01*
X8202066Y6664452D01*
X8207832Y6662673D01*
X8213343Y6660184D01*
X8218525Y6657060D01*
X8223275Y6653326D01*
X8227542Y6649059D01*
X8231250Y6644309D01*
X8234375Y6639153D01*
X8236864Y6633641D01*
X8238667Y6627876D01*
X8239734Y6621932D01*
X8240115Y6615912D01*
X8240115Y6515912D01*
X8239734Y6509893D01*
X8238667Y6503949D01*
X8236864Y6498183D01*
X8234375Y6492671D01*
X8231250Y6487515D01*
X8227542Y6482765D01*
X8223275Y6478473D01*
X8218525Y6474764D01*
X8213343Y6471640D01*
X8207832Y6469151D01*
X8202066Y6467373D01*
X8196148Y6466281D01*
X8190102Y6465900D01*
X8015122Y6465900D01*
X8009077Y6466281D01*
X8003133Y6467373D01*
X7997367Y6469151D01*
X7991881Y6471640D01*
X7986699Y6474764D01*
X7981950Y6478473D01*
X7977682Y6482765D01*
X7973949Y6487515D01*
X7970824Y6492671D01*
X7968361Y6498183D01*
X7966557Y6503949D01*
X7965465Y6509893D01*
X7965109Y6515912D01*
G37*
G36*
X7965109Y6869912D02*
G01*
X7965465Y6875932D01*
X7966557Y6881876D01*
X7968361Y6887641D01*
X7970824Y6893153D01*
X7973949Y6898309D01*
X7977682Y6903059D01*
X7981950Y6907326D01*
X7986699Y6911060D01*
X7991881Y6914184D01*
X7997367Y6916673D01*
X8003133Y6918452D01*
X8009077Y6919544D01*
X8015122Y6919899D01*
X8190102Y6919899D01*
X8196148Y6919544D01*
X8202066Y6918452D01*
X8207832Y6916673D01*
X8213343Y6914184D01*
X8218525Y6911060D01*
X8223275Y6907326D01*
X8227542Y6903059D01*
X8231250Y6898309D01*
X8234375Y6893153D01*
X8236864Y6887641D01*
X8238667Y6881876D01*
X8239734Y6875932D01*
X8240115Y6869912D01*
X8240115Y6769912D01*
X8239734Y6763893D01*
X8238667Y6757949D01*
X8236864Y6752183D01*
X8234375Y6746671D01*
X8231250Y6741515D01*
X8227542Y6736765D01*
X8223275Y6732473D01*
X8218525Y6728764D01*
X8213343Y6725640D01*
X8207832Y6723151D01*
X8202066Y6721373D01*
X8196148Y6720281D01*
X8190102Y6719900D01*
X8015122Y6719900D01*
X8009077Y6720281D01*
X8003133Y6721373D01*
X7997367Y6723151D01*
X7991881Y6725640D01*
X7986699Y6728764D01*
X7981950Y6732473D01*
X7977682Y6736765D01*
X7973949Y6741515D01*
X7970824Y6746671D01*
X7968361Y6752183D01*
X7966557Y6757949D01*
X7965465Y6763893D01*
X7965109Y6769912D01*
G37*
G36*
X7965109Y7123912D02*
G01*
X7965465Y7129932D01*
X7966557Y7135876D01*
X7968361Y7141641D01*
X7970824Y7147153D01*
X7973949Y7152309D01*
X7977682Y7157059D01*
X7981950Y7161326D01*
X7986699Y7165060D01*
X7991881Y7168184D01*
X7997367Y7170673D01*
X8003133Y7172452D01*
X8009077Y7173544D01*
X8015122Y7173899D01*
X8190102Y7173899D01*
X8196148Y7173544D01*
X8202066Y7172452D01*
X8207832Y7170673D01*
X8213343Y7168184D01*
X8218525Y7165060D01*
X8223275Y7161326D01*
X8227542Y7157059D01*
X8231250Y7152309D01*
X8234375Y7147153D01*
X8236864Y7141641D01*
X8238667Y7135876D01*
X8239734Y7129932D01*
X8240115Y7123912D01*
X8240115Y7023912D01*
X8239734Y7017893D01*
X8238667Y7011949D01*
X8236864Y7006183D01*
X8234375Y7000671D01*
X8231250Y6995515D01*
X8227542Y6990765D01*
X8223275Y6986473D01*
X8218525Y6982764D01*
X8213343Y6979640D01*
X8207832Y6977151D01*
X8202066Y6975373D01*
X8196148Y6974281D01*
X8190102Y6973900D01*
X8015122Y6973900D01*
X8009077Y6974281D01*
X8003133Y6975373D01*
X7997367Y6977151D01*
X7991881Y6979640D01*
X7986699Y6982764D01*
X7981950Y6986473D01*
X7977682Y6990765D01*
X7973949Y6995515D01*
X7970824Y7000671D01*
X7968361Y7006183D01*
X7966557Y7011949D01*
X7965465Y7017893D01*
X7965109Y7023912D01*
G37*
G36*
X7965109Y7377912D02*
G01*
X7965465Y7383932D01*
X7966557Y7389876D01*
X7968361Y7395641D01*
X7970824Y7401153D01*
X7973949Y7406309D01*
X7977682Y7411059D01*
X7981950Y7415326D01*
X7986699Y7419060D01*
X7991881Y7422184D01*
X7997367Y7424673D01*
X8003133Y7426452D01*
X8009077Y7427544D01*
X8015122Y7427899D01*
X8190102Y7427899D01*
X8196148Y7427544D01*
X8202066Y7426452D01*
X8207832Y7424673D01*
X8213343Y7422184D01*
X8218525Y7419060D01*
X8223275Y7415326D01*
X8227542Y7411059D01*
X8231250Y7406309D01*
X8234375Y7401153D01*
X8236864Y7395641D01*
X8238667Y7389876D01*
X8239734Y7383932D01*
X8240115Y7377912D01*
X8240115Y7277912D01*
X8239734Y7271893D01*
X8238667Y7265949D01*
X8236864Y7260183D01*
X8234375Y7254671D01*
X8231250Y7249515D01*
X8227542Y7244765D01*
X8223275Y7240473D01*
X8218525Y7236764D01*
X8213343Y7233640D01*
X8207832Y7231151D01*
X8202066Y7229373D01*
X8196148Y7228281D01*
X8190102Y7227900D01*
X8015122Y7227900D01*
X8009077Y7228281D01*
X8003133Y7229373D01*
X7997367Y7231151D01*
X7991881Y7233640D01*
X7986699Y7236764D01*
X7981950Y7240473D01*
X7977682Y7244765D01*
X7973949Y7249515D01*
X7970824Y7254671D01*
X7968361Y7260183D01*
X7966557Y7265949D01*
X7965465Y7271893D01*
X7965109Y7277912D01*
G37*
D11*
G01*
X11442700Y-4247794D03*
G01*
X11188700Y-4247794D03*
G01*
X10934700Y-4247794D03*
D12*
G01*
X10628706Y-4997780D03*
G01*
X11748693Y-4997805D03*
D11*
G01*
X11455400Y-1428394D03*
G01*
X11201400Y-1428394D03*
G01*
X10947400Y-1428394D03*
D12*
G01*
X10641406Y-2178380D03*
G01*
X11761393Y-2178405D03*
D11*
G01*
X11455400Y1327505D03*
G01*
X11201400Y1327505D03*
G01*
X10947400Y1327505D03*
D12*
G01*
X10641406Y577519D03*
G01*
X11761393Y577494D03*
D11*
G01*
X11468100Y4159605D03*
G01*
X11214100Y4159605D03*
G01*
X10960100Y4159605D03*
D12*
G01*
X10654106Y3409619D03*
G01*
X11774093Y3409594D03*
D11*
G01*
X8915400Y-4247794D03*
G01*
X8661400Y-4247794D03*
G01*
X8407400Y-4247794D03*
D12*
G01*
X8101406Y-4997780D03*
G01*
X9221393Y-4997805D03*
D11*
G01*
X8890000Y-1453794D03*
G01*
X8636000Y-1453794D03*
G01*
X8382000Y-1453794D03*
D12*
G01*
X8076006Y-2203780D03*
G01*
X9195993Y-2203805D03*
D11*
G01*
X8902700Y1327505D03*
G01*
X8648700Y1327505D03*
G01*
X8394700Y1327505D03*
D12*
G01*
X8088706Y577519D03*
G01*
X9208693Y577494D03*
D11*
G01*
X8877300Y4134205D03*
G01*
X8623300Y4134205D03*
G01*
X8369300Y4134205D03*
D12*
G01*
X8063306Y3384219D03*
G01*
X9183293Y3384194D03*
D11*
G01*
X3733800Y4134205D03*
G01*
X3479800Y4134205D03*
G01*
X3225800Y4134205D03*
D12*
G01*
X2919806Y3384219D03*
G01*
X4039793Y3384194D03*
D11*
G01*
X3733800Y1327505D03*
G01*
X3479800Y1327505D03*
G01*
X3225800Y1327505D03*
D12*
G01*
X2919806Y577519D03*
G01*
X4039793Y577494D03*
D11*
G01*
X3733800Y-1453794D03*
G01*
X3479800Y-1453794D03*
G01*
X3225800Y-1453794D03*
D12*
G01*
X2919806Y-2203780D03*
G01*
X4039793Y-2203805D03*
D11*
G01*
X3733800Y-4260494D03*
G01*
X3479800Y-4260494D03*
G01*
X3225800Y-4260494D03*
D12*
G01*
X2919806Y-5010480D03*
G01*
X4039793Y-5010505D03*
D11*
G01*
X6273800Y4146905D03*
G01*
X6019800Y4146905D03*
G01*
X5765800Y4146905D03*
D12*
G01*
X5459806Y3396919D03*
G01*
X6579793Y3396894D03*
D11*
G01*
X6261100Y1340205D03*
G01*
X6007100Y1340205D03*
G01*
X5753100Y1340205D03*
D12*
G01*
X5447106Y590219D03*
G01*
X6567093Y590194D03*
D11*
G01*
X6273800Y-1428394D03*
G01*
X6019800Y-1428394D03*
G01*
X5765800Y-1428394D03*
D12*
G01*
X5459806Y-2178380D03*
G01*
X6579793Y-2178405D03*
D11*
G01*
X6273800Y-4235094D03*
G01*
X6019800Y-4235094D03*
G01*
X5765800Y-4235094D03*
D12*
G01*
X5459806Y-4985080D03*
G01*
X6579793Y-4985105D03*
D13*
G01*
X11328400Y5334000D03*
G01*
X11049000Y5080000D03*
G01*
X10845800Y4838700D03*
G01*
X6578600Y7327900D03*
G01*
X6578600Y7073900D03*
G01*
X6578600Y6819900D03*
G01*
X6578600Y6565900D03*
G01*
X6578600Y6311900D03*
G01*
X6578600Y6057900D03*
G01*
X6578600Y5803900D03*
G01*
X8102600Y7327900D03*
G01*
X8102600Y7073900D03*
G01*
X8102600Y6565900D03*
G01*
X8102600Y6311900D03*
G01*
X8102600Y6057900D03*
G01*
X8102600Y5803900D03*
G01*
X5435600Y5461000D03*
G01*
X4762500Y6743700D03*
G01*
X10934700Y7302500D03*
G01*
X10655300Y7086600D03*
G01*
X10972800Y6083300D03*
G01*
X4445000Y5168900D03*
G01*
X10604500Y3822700D03*
D14*
G01*
X4978400Y5880100D03*
G01*
X6210300Y5588000D03*
G01*
X5334000Y5626100D03*
M02*
