G04 Layer: TopLayer*
G04 EasyEDA v6.5.22, 2022-11-21 05:39:22*
G04 79285abd2fff4639a077ca8fd26d3c4e,5e732c2b7d5540c8836deda47cd93de7,10*
G04 Gerber Generator version 0.2*
G04 Scale: 100 percent, Rotated: No, Reflected: No *
G04 Dimensions in millimeters *
G04 leading zeros omitted , absolute positions ,4 integer and 5 decimal *
%FSLAX45Y45*%
%MOMM*%

%ADD10C,0.7000*%
%ADD11O,2.2310090000000002X0.6020054*%
%ADD12C,1.7000*%
%ADD13C,3.2000*%
%ADD14C,1.5240*%
%ADD15C,0.6096*%
%ADD16C,0.0110*%

%LPD*%
D10*
X4165600Y-5715000D02*
G01*
X6896100Y-5715000D01*
X8363305Y-4247794D01*
X8407400Y-4247794D01*
X3225800Y1327505D02*
G01*
X3225800Y-1453794D01*
X4456760Y6134100D02*
G01*
X4165600Y6134100D01*
X3924300Y5918200D01*
X4356100Y4165600D01*
X4330700Y1498600D01*
X3479800Y546100D01*
X3479800Y-1453794D01*
X11316639Y6261100D02*
G01*
X11938000Y6261100D01*
X12115800Y6083300D01*
X12115800Y1536700D01*
X11214100Y635000D01*
X11214100Y50800D01*
X11201400Y38100D01*
X11201400Y-1428394D01*
X11316639Y6134100D02*
G01*
X11772900Y6134100D01*
X11925300Y5981700D01*
X11925300Y4178300D01*
X11201400Y3429000D01*
X11201400Y3429000D01*
X11201400Y1327505D01*
X5448300Y7594600D02*
G01*
X4419600Y7594600D01*
X3225800Y6400800D01*
X3225800Y4134205D01*
X10603484Y6261100D02*
G01*
X10883900Y6261100D01*
X11010900Y6388100D01*
X11010900Y6654800D01*
X10845800Y6819900D01*
X10045700Y6819900D01*
X9029700Y5803900D01*
X8102600Y5803900D01*
X10934700Y7302500D02*
G01*
X10934700Y7302500D01*
X11315700Y6908800D01*
X11316639Y6515100D01*
X8102600Y7327900D02*
G01*
X10934700Y7302500D01*
X4456760Y5880100D02*
G01*
X4456760Y5753100D01*
X4456684Y5626100D02*
G01*
X4456684Y5626100D01*
X4456684Y5753100D01*
X4456760Y6515100D02*
G01*
X3987800Y6515100D01*
X3479800Y6007100D01*
X3479800Y4134205D01*
X5169839Y6261100D02*
G01*
X5676900Y6261100D01*
X5981700Y5956300D01*
X5981700Y5499100D01*
X7302500Y4178300D01*
X7302500Y-165100D01*
X6870700Y-596900D01*
X6413500Y-596900D01*
X6019800Y-990600D01*
X6019800Y-1428394D01*
X5169839Y6134100D02*
G01*
X5562600Y6134100D01*
X5791200Y5905500D01*
X5791200Y5867400D01*
X5803900Y5854700D01*
X5803900Y5295900D01*
X7048500Y4051300D01*
X7048500Y2489200D01*
X6019800Y2006600D01*
X6007100Y1340205D01*
X5169839Y6007100D02*
G01*
X5182539Y5994400D01*
X5499100Y5994400D01*
X5638800Y5854700D01*
X5638800Y4978400D01*
X6019800Y4597400D01*
X6019800Y4146905D01*
X4456760Y6007100D02*
G01*
X4610100Y6007100D01*
X4699000Y5892800D01*
X4559300Y-1003300D01*
X3479800Y-2247900D01*
X3479800Y-4260494D01*
X5169839Y5880100D02*
G01*
X5169839Y5880100D01*
X4978400Y5880100D01*
X6210300Y5588000D02*
G01*
X6210300Y5715000D01*
X6299200Y5803900D01*
X6578600Y5803900D01*
X5169839Y5753100D02*
G01*
X5435600Y5753100D01*
X5435600Y5461000D01*
X3479800Y1327404D02*
G01*
X3479800Y3276600D01*
X4089400Y4064000D01*
X3695700Y4851400D01*
X3683000Y5956300D01*
X4089400Y6388100D01*
X4456684Y6388100D01*
X4456684Y6261100D02*
G01*
X4610100Y6261100D01*
X4762500Y6413500D01*
X4762500Y6743700D01*
X3225800Y-4260494D02*
G01*
X3568700Y-4603394D01*
X3568700Y-5499100D01*
X3784600Y-5715000D01*
X4165600Y-5715000D01*
X5645505Y-4235094D01*
X5765800Y-4235094D01*
X6896100Y-5715000D02*
G01*
X9467494Y-5715000D01*
X10934700Y-4247794D01*
X8407400Y-4247794D02*
G01*
X8382000Y-4222394D01*
X8382000Y-1453794D01*
X8382000Y-1453794D02*
G01*
X8394700Y-1441094D01*
X8394700Y1327505D01*
X8394700Y1327505D02*
G01*
X8369300Y1352905D01*
X8369300Y4134205D01*
X10934700Y-4247794D02*
G01*
X10947400Y-4235094D01*
X10947400Y-1428394D01*
X10947400Y-1428394D02*
G01*
X10947400Y1327505D01*
X10947400Y1327505D02*
G01*
X10960100Y1340205D01*
X10960100Y4159605D01*
X5169839Y6388100D02*
G01*
X4965700Y6388100D01*
X4838700Y6273800D01*
X4940300Y-2730500D01*
X6019800Y-3810000D01*
X6019800Y-4235094D01*
X5765800Y4146905D02*
G01*
X5753100Y4134205D01*
X5753100Y1340205D01*
X5753100Y1340205D02*
G01*
X5765800Y1327505D01*
X5765800Y-1428394D01*
X5169839Y5626100D02*
G01*
X5334000Y5626100D01*
X8102600Y7327900D02*
G01*
X7835900Y7594600D01*
X5448300Y7594600D01*
X5169839Y7316139D01*
X5169839Y6515100D01*
X10603560Y5880100D02*
G01*
X10603560Y5753100D01*
X10603560Y5626100D02*
G01*
X10603560Y5753100D01*
X10603560Y5880100D02*
G01*
X10769600Y5880100D01*
X10972800Y6083300D01*
X10655300Y7086600D02*
G01*
X10642600Y7073900D01*
X8102600Y7073900D01*
X3225800Y4134205D02*
G01*
X3225800Y1327505D01*
X3225800Y-1453794D02*
G01*
X3225800Y-4260494D01*
X11316639Y6388100D02*
G01*
X12090400Y6388100D01*
X12420600Y6057900D01*
X12344400Y-63500D01*
X12217400Y-1028700D01*
X11214100Y-2108200D01*
X11188700Y-3556000D01*
X11188700Y-4247794D01*
X4456760Y5626100D02*
G01*
X4445000Y5614339D01*
X4445000Y5168900D01*
X10603484Y5626100D02*
G01*
X10604500Y3822700D01*
X10603560Y6007100D02*
G01*
X10439400Y6007100D01*
X10287000Y5854700D01*
X10287000Y4356100D01*
X9880600Y3949700D01*
X9893300Y-114300D01*
X9359900Y-774700D01*
X9334500Y-1498600D01*
X8636000Y-2286000D01*
X8661400Y-4247794D01*
X11316639Y6007100D02*
G01*
X11582400Y6007100D01*
X11696700Y5892800D01*
X11696700Y5295900D01*
X11214100Y4813300D01*
X11214100Y4159605D01*
X10603560Y6134100D02*
G01*
X10337800Y6134100D01*
X10134600Y5930900D01*
X10134600Y4648200D01*
X9601200Y4114800D01*
X9601200Y-50800D01*
X9309100Y-342900D01*
X8928100Y-342900D01*
X8636000Y-635000D01*
X8636000Y-1453794D01*
X11316642Y5626100D02*
G01*
X11328400Y5614342D01*
X11328400Y5334000D01*
X11316715Y5753100D02*
G01*
X11125200Y5753100D01*
X11036300Y5664200D01*
X11049000Y5080000D01*
X11316715Y5880100D02*
G01*
X10972800Y5880100D01*
X10845800Y5753100D01*
X10845800Y5422900D01*
X10845800Y4838700D01*
X10603560Y6388100D02*
G01*
X10337800Y6388100D01*
X9969500Y6019800D01*
X9969500Y4864100D01*
X8661400Y3556000D01*
X8661400Y2895600D01*
X8648700Y2882900D01*
X8648700Y1327505D01*
X10603560Y6515100D02*
G01*
X10185400Y6515100D01*
X9753600Y6083300D01*
X9753600Y5461000D01*
X9410700Y5118100D01*
X8864600Y5118100D01*
X8623300Y4876800D01*
X8623300Y4134205D01*
D11*
G01*
X10603560Y6515100D03*
G01*
X10603560Y6388100D03*
G01*
X10603560Y6261100D03*
G01*
X10603560Y6134100D03*
G01*
X10603560Y6007100D03*
G01*
X10603560Y5880100D03*
G01*
X10603560Y5753100D03*
G01*
X10603560Y5626100D03*
G01*
X11316639Y6515100D03*
G01*
X11316639Y6388100D03*
G01*
X11316639Y6261100D03*
G01*
X11316639Y6134100D03*
G01*
X11316639Y6007100D03*
G01*
X11316639Y5880100D03*
G01*
X11316639Y5753100D03*
G01*
X11316639Y5626100D03*
G01*
X4456760Y6515100D03*
G01*
X4456760Y6388100D03*
G01*
X4456760Y6261100D03*
G01*
X4456760Y6134100D03*
G01*
X4456760Y6007100D03*
G01*
X4456760Y5880100D03*
G01*
X4456760Y5753100D03*
G01*
X4456760Y5626100D03*
G01*
X5169839Y6515100D03*
G01*
X5169839Y6388100D03*
G01*
X5169839Y6261100D03*
G01*
X5169839Y6134100D03*
G01*
X5169839Y6007100D03*
G01*
X5169839Y5880100D03*
G01*
X5169839Y5753100D03*
G01*
X5169839Y5626100D03*
G36*
X6441109Y7377912D02*
G01*
X6441465Y7383932D01*
X6442557Y7389876D01*
X6444361Y7395641D01*
X6446824Y7401153D01*
X6449949Y7406309D01*
X6453682Y7411059D01*
X6457950Y7415326D01*
X6462699Y7419060D01*
X6467881Y7422184D01*
X6473367Y7424673D01*
X6479133Y7426452D01*
X6485077Y7427544D01*
X6491122Y7427899D01*
X6666102Y7427899D01*
X6672148Y7427544D01*
X6678066Y7426452D01*
X6683832Y7424673D01*
X6689343Y7422184D01*
X6694525Y7419060D01*
X6699275Y7415326D01*
X6703542Y7411059D01*
X6707250Y7406309D01*
X6710375Y7401153D01*
X6712864Y7395641D01*
X6714667Y7389876D01*
X6715734Y7383932D01*
X6716115Y7377912D01*
X6716115Y7277912D01*
X6715734Y7271893D01*
X6714667Y7265949D01*
X6712864Y7260183D01*
X6710375Y7254671D01*
X6707250Y7249515D01*
X6703542Y7244765D01*
X6699275Y7240473D01*
X6694525Y7236764D01*
X6689343Y7233640D01*
X6683832Y7231151D01*
X6678066Y7229373D01*
X6672148Y7228281D01*
X6666102Y7227900D01*
X6491122Y7227900D01*
X6485077Y7228281D01*
X6479133Y7229373D01*
X6473367Y7231151D01*
X6467881Y7233640D01*
X6462699Y7236764D01*
X6457950Y7240473D01*
X6453682Y7244765D01*
X6449949Y7249515D01*
X6446824Y7254671D01*
X6444361Y7260183D01*
X6442557Y7265949D01*
X6441465Y7271893D01*
X6441109Y7277912D01*
G37*
G36*
X6441109Y7123912D02*
G01*
X6441465Y7129932D01*
X6442557Y7135876D01*
X6444361Y7141641D01*
X6446824Y7147153D01*
X6449949Y7152309D01*
X6453682Y7157059D01*
X6457950Y7161326D01*
X6462699Y7165060D01*
X6467881Y7168184D01*
X6473367Y7170673D01*
X6479133Y7172452D01*
X6485077Y7173544D01*
X6491122Y7173899D01*
X6666102Y7173899D01*
X6672148Y7173544D01*
X6678066Y7172452D01*
X6683832Y7170673D01*
X6689343Y7168184D01*
X6694525Y7165060D01*
X6699275Y7161326D01*
X6703542Y7157059D01*
X6707250Y7152309D01*
X6710375Y7147153D01*
X6712864Y7141641D01*
X6714667Y7135876D01*
X6715734Y7129932D01*
X6716115Y7123912D01*
X6716115Y7023912D01*
X6715734Y7017893D01*
X6714667Y7011949D01*
X6712864Y7006183D01*
X6710375Y7000671D01*
X6707250Y6995515D01*
X6703542Y6990765D01*
X6699275Y6986473D01*
X6694525Y6982764D01*
X6689343Y6979640D01*
X6683832Y6977151D01*
X6678066Y6975373D01*
X6672148Y6974281D01*
X6666102Y6973900D01*
X6491122Y6973900D01*
X6485077Y6974281D01*
X6479133Y6975373D01*
X6473367Y6977151D01*
X6467881Y6979640D01*
X6462699Y6982764D01*
X6457950Y6986473D01*
X6453682Y6990765D01*
X6449949Y6995515D01*
X6446824Y7000671D01*
X6444361Y7006183D01*
X6442557Y7011949D01*
X6441465Y7017893D01*
X6441109Y7023912D01*
G37*
G36*
X6441109Y6869912D02*
G01*
X6441465Y6875932D01*
X6442557Y6881876D01*
X6444361Y6887641D01*
X6446824Y6893153D01*
X6449949Y6898309D01*
X6453682Y6903059D01*
X6457950Y6907326D01*
X6462699Y6911060D01*
X6467881Y6914184D01*
X6473367Y6916673D01*
X6479133Y6918452D01*
X6485077Y6919544D01*
X6491122Y6919899D01*
X6666102Y6919899D01*
X6672148Y6919544D01*
X6678066Y6918452D01*
X6683832Y6916673D01*
X6689343Y6914184D01*
X6694525Y6911060D01*
X6699275Y6907326D01*
X6703542Y6903059D01*
X6707250Y6898309D01*
X6710375Y6893153D01*
X6712864Y6887641D01*
X6714667Y6881876D01*
X6715734Y6875932D01*
X6716115Y6869912D01*
X6716115Y6769912D01*
X6715734Y6763893D01*
X6714667Y6757949D01*
X6712864Y6752183D01*
X6710375Y6746671D01*
X6707250Y6741515D01*
X6703542Y6736765D01*
X6699275Y6732473D01*
X6694525Y6728764D01*
X6689343Y6725640D01*
X6683832Y6723151D01*
X6678066Y6721373D01*
X6672148Y6720281D01*
X6666102Y6719900D01*
X6491122Y6719900D01*
X6485077Y6720281D01*
X6479133Y6721373D01*
X6473367Y6723151D01*
X6467881Y6725640D01*
X6462699Y6728764D01*
X6457950Y6732473D01*
X6453682Y6736765D01*
X6449949Y6741515D01*
X6446824Y6746671D01*
X6444361Y6752183D01*
X6442557Y6757949D01*
X6441465Y6763893D01*
X6441109Y6769912D01*
G37*
G36*
X6441109Y6615912D02*
G01*
X6441465Y6621932D01*
X6442557Y6627876D01*
X6444361Y6633641D01*
X6446824Y6639153D01*
X6449949Y6644309D01*
X6453682Y6649059D01*
X6457950Y6653326D01*
X6462699Y6657060D01*
X6467881Y6660184D01*
X6473367Y6662673D01*
X6479133Y6664452D01*
X6485077Y6665544D01*
X6491122Y6665899D01*
X6666102Y6665899D01*
X6672148Y6665544D01*
X6678066Y6664452D01*
X6683832Y6662673D01*
X6689343Y6660184D01*
X6694525Y6657060D01*
X6699275Y6653326D01*
X6703542Y6649059D01*
X6707250Y6644309D01*
X6710375Y6639153D01*
X6712864Y6633641D01*
X6714667Y6627876D01*
X6715734Y6621932D01*
X6716115Y6615912D01*
X6716115Y6515912D01*
X6715734Y6509893D01*
X6714667Y6503949D01*
X6712864Y6498183D01*
X6710375Y6492671D01*
X6707250Y6487515D01*
X6703542Y6482765D01*
X6699275Y6478473D01*
X6694525Y6474764D01*
X6689343Y6471640D01*
X6683832Y6469151D01*
X6678066Y6467373D01*
X6672148Y6466281D01*
X6666102Y6465900D01*
X6491122Y6465900D01*
X6485077Y6466281D01*
X6479133Y6467373D01*
X6473367Y6469151D01*
X6467881Y6471640D01*
X6462699Y6474764D01*
X6457950Y6478473D01*
X6453682Y6482765D01*
X6449949Y6487515D01*
X6446824Y6492671D01*
X6444361Y6498183D01*
X6442557Y6503949D01*
X6441465Y6509893D01*
X6441109Y6515912D01*
G37*
G36*
X6441109Y6361912D02*
G01*
X6441465Y6367932D01*
X6442557Y6373876D01*
X6444361Y6379641D01*
X6446824Y6385153D01*
X6449949Y6390309D01*
X6453682Y6395059D01*
X6457950Y6399326D01*
X6462699Y6403060D01*
X6467881Y6406184D01*
X6473367Y6408673D01*
X6479133Y6410452D01*
X6485077Y6411544D01*
X6491122Y6411899D01*
X6666102Y6411899D01*
X6672148Y6411544D01*
X6678066Y6410452D01*
X6683832Y6408673D01*
X6689343Y6406184D01*
X6694525Y6403060D01*
X6699275Y6399326D01*
X6703542Y6395059D01*
X6707250Y6390309D01*
X6710375Y6385153D01*
X6712864Y6379641D01*
X6714667Y6373876D01*
X6715734Y6367932D01*
X6716115Y6361912D01*
X6716115Y6261912D01*
X6715734Y6255893D01*
X6714667Y6249949D01*
X6712864Y6244183D01*
X6710375Y6238671D01*
X6707250Y6233515D01*
X6703542Y6228765D01*
X6699275Y6224473D01*
X6694525Y6220764D01*
X6689343Y6217640D01*
X6683832Y6215151D01*
X6678066Y6213373D01*
X6672148Y6212281D01*
X6666102Y6211900D01*
X6491122Y6211900D01*
X6485077Y6212281D01*
X6479133Y6213373D01*
X6473367Y6215151D01*
X6467881Y6217640D01*
X6462699Y6220764D01*
X6457950Y6224473D01*
X6453682Y6228765D01*
X6449949Y6233515D01*
X6446824Y6238671D01*
X6444361Y6244183D01*
X6442557Y6249949D01*
X6441465Y6255893D01*
X6441109Y6261912D01*
G37*
G36*
X6441109Y6107912D02*
G01*
X6441465Y6113932D01*
X6442557Y6119876D01*
X6444361Y6125641D01*
X6446824Y6131153D01*
X6449949Y6136309D01*
X6453682Y6141059D01*
X6457950Y6145326D01*
X6462699Y6149060D01*
X6467881Y6152184D01*
X6473367Y6154673D01*
X6479133Y6156452D01*
X6485077Y6157544D01*
X6491122Y6157899D01*
X6666102Y6157899D01*
X6672148Y6157544D01*
X6678066Y6156452D01*
X6683832Y6154673D01*
X6689343Y6152184D01*
X6694525Y6149060D01*
X6699275Y6145326D01*
X6703542Y6141059D01*
X6707250Y6136309D01*
X6710375Y6131153D01*
X6712864Y6125641D01*
X6714667Y6119876D01*
X6715734Y6113932D01*
X6716115Y6107912D01*
X6716115Y6007912D01*
X6715734Y6001893D01*
X6714667Y5995949D01*
X6712864Y5990183D01*
X6710375Y5984671D01*
X6707250Y5979515D01*
X6703542Y5974765D01*
X6699275Y5970473D01*
X6694525Y5966764D01*
X6689343Y5963640D01*
X6683832Y5961151D01*
X6678066Y5959373D01*
X6672148Y5958281D01*
X6666102Y5957900D01*
X6491122Y5957900D01*
X6485077Y5958281D01*
X6479133Y5959373D01*
X6473367Y5961151D01*
X6467881Y5963640D01*
X6462699Y5966764D01*
X6457950Y5970473D01*
X6453682Y5974765D01*
X6449949Y5979515D01*
X6446824Y5984671D01*
X6444361Y5990183D01*
X6442557Y5995949D01*
X6441465Y6001893D01*
X6441109Y6007912D01*
G37*
G36*
X6441109Y5853912D02*
G01*
X6441465Y5859932D01*
X6442557Y5865876D01*
X6444361Y5871641D01*
X6446824Y5877153D01*
X6449949Y5882309D01*
X6453682Y5887059D01*
X6457950Y5891326D01*
X6462699Y5895060D01*
X6467881Y5898184D01*
X6473367Y5900673D01*
X6479133Y5902452D01*
X6485077Y5903544D01*
X6491122Y5903899D01*
X6666102Y5903899D01*
X6672148Y5903544D01*
X6678066Y5902452D01*
X6683832Y5900673D01*
X6689343Y5898184D01*
X6694525Y5895060D01*
X6699275Y5891326D01*
X6703542Y5887059D01*
X6707250Y5882309D01*
X6710375Y5877153D01*
X6712864Y5871641D01*
X6714667Y5865876D01*
X6715734Y5859932D01*
X6716115Y5853912D01*
X6716115Y5753912D01*
X6715734Y5747893D01*
X6714667Y5741949D01*
X6712864Y5736183D01*
X6710375Y5730671D01*
X6707250Y5725515D01*
X6703542Y5720765D01*
X6699275Y5716473D01*
X6694525Y5712764D01*
X6689343Y5709640D01*
X6683832Y5707151D01*
X6678066Y5705373D01*
X6672148Y5704281D01*
X6666102Y5703900D01*
X6491122Y5703900D01*
X6485077Y5704281D01*
X6479133Y5705373D01*
X6473367Y5707151D01*
X6467881Y5709640D01*
X6462699Y5712764D01*
X6457950Y5716473D01*
X6453682Y5720765D01*
X6449949Y5725515D01*
X6446824Y5730671D01*
X6444361Y5736183D01*
X6442557Y5741949D01*
X6441465Y5747893D01*
X6441109Y5753912D01*
G37*
G36*
X7965109Y5853912D02*
G01*
X7965465Y5859932D01*
X7966557Y5865876D01*
X7968361Y5871641D01*
X7970824Y5877153D01*
X7973949Y5882309D01*
X7977682Y5887059D01*
X7981950Y5891326D01*
X7986699Y5895060D01*
X7991881Y5898184D01*
X7997367Y5900673D01*
X8003133Y5902452D01*
X8009077Y5903544D01*
X8015122Y5903899D01*
X8190102Y5903899D01*
X8196148Y5903544D01*
X8202066Y5902452D01*
X8207832Y5900673D01*
X8213343Y5898184D01*
X8218525Y5895060D01*
X8223275Y5891326D01*
X8227542Y5887059D01*
X8231250Y5882309D01*
X8234375Y5877153D01*
X8236864Y5871641D01*
X8238667Y5865876D01*
X8239734Y5859932D01*
X8240115Y5853912D01*
X8240115Y5753912D01*
X8239734Y5747893D01*
X8238667Y5741949D01*
X8236864Y5736183D01*
X8234375Y5730671D01*
X8231250Y5725515D01*
X8227542Y5720765D01*
X8223275Y5716473D01*
X8218525Y5712764D01*
X8213343Y5709640D01*
X8207832Y5707151D01*
X8202066Y5705373D01*
X8196148Y5704281D01*
X8190102Y5703900D01*
X8015122Y5703900D01*
X8009077Y5704281D01*
X8003133Y5705373D01*
X7997367Y5707151D01*
X7991881Y5709640D01*
X7986699Y5712764D01*
X7981950Y5716473D01*
X7977682Y5720765D01*
X7973949Y5725515D01*
X7970824Y5730671D01*
X7968361Y5736183D01*
X7966557Y5741949D01*
X7965465Y5747893D01*
X7965109Y5753912D01*
G37*
G36*
X7965109Y6107912D02*
G01*
X7965465Y6113932D01*
X7966557Y6119876D01*
X7968361Y6125641D01*
X7970824Y6131153D01*
X7973949Y6136309D01*
X7977682Y6141059D01*
X7981950Y6145326D01*
X7986699Y6149060D01*
X7991881Y6152184D01*
X7997367Y6154673D01*
X8003133Y6156452D01*
X8009077Y6157544D01*
X8015122Y6157899D01*
X8190102Y6157899D01*
X8196148Y6157544D01*
X8202066Y6156452D01*
X8207832Y6154673D01*
X8213343Y6152184D01*
X8218525Y6149060D01*
X8223275Y6145326D01*
X8227542Y6141059D01*
X8231250Y6136309D01*
X8234375Y6131153D01*
X8236864Y6125641D01*
X8238667Y6119876D01*
X8239734Y6113932D01*
X8240115Y6107912D01*
X8240115Y6007912D01*
X8239734Y6001893D01*
X8238667Y5995949D01*
X8236864Y5990183D01*
X8234375Y5984671D01*
X8231250Y5979515D01*
X8227542Y5974765D01*
X8223275Y5970473D01*
X8218525Y5966764D01*
X8213343Y5963640D01*
X8207832Y5961151D01*
X8202066Y5959373D01*
X8196148Y5958281D01*
X8190102Y5957900D01*
X8015122Y5957900D01*
X8009077Y5958281D01*
X8003133Y5959373D01*
X7997367Y5961151D01*
X7991881Y5963640D01*
X7986699Y5966764D01*
X7981950Y5970473D01*
X7977682Y5974765D01*
X7973949Y5979515D01*
X7970824Y5984671D01*
X7968361Y5990183D01*
X7966557Y5995949D01*
X7965465Y6001893D01*
X7965109Y6007912D01*
G37*
G36*
X7965109Y6361912D02*
G01*
X7965465Y6367932D01*
X7966557Y6373876D01*
X7968361Y6379641D01*
X7970824Y6385153D01*
X7973949Y6390309D01*
X7977682Y6395059D01*
X7981950Y6399326D01*
X7986699Y6403060D01*
X7991881Y6406184D01*
X7997367Y6408673D01*
X8003133Y6410452D01*
X8009077Y6411544D01*
X8015122Y6411899D01*
X8190102Y6411899D01*
X8196148Y6411544D01*
X8202066Y6410452D01*
X8207832Y6408673D01*
X8213343Y6406184D01*
X8218525Y6403060D01*
X8223275Y6399326D01*
X8227542Y6395059D01*
X8231250Y6390309D01*
X8234375Y6385153D01*
X8236864Y6379641D01*
X8238667Y6373876D01*
X8239734Y6367932D01*
X8240115Y6361912D01*
X8240115Y6261912D01*
X8239734Y6255893D01*
X8238667Y6249949D01*
X8236864Y6244183D01*
X8234375Y6238671D01*
X8231250Y6233515D01*
X8227542Y6228765D01*
X8223275Y6224473D01*
X8218525Y6220764D01*
X8213343Y6217640D01*
X8207832Y6215151D01*
X8202066Y6213373D01*
X8196148Y6212281D01*
X8190102Y6211900D01*
X8015122Y6211900D01*
X8009077Y6212281D01*
X8003133Y6213373D01*
X7997367Y6215151D01*
X7991881Y6217640D01*
X7986699Y6220764D01*
X7981950Y6224473D01*
X7977682Y6228765D01*
X7973949Y6233515D01*
X7970824Y6238671D01*
X7968361Y6244183D01*
X7966557Y6249949D01*
X7965465Y6255893D01*
X7965109Y6261912D01*
G37*
G36*
X7965109Y6615912D02*
G01*
X7965465Y6621932D01*
X7966557Y6627876D01*
X7968361Y6633641D01*
X7970824Y6639153D01*
X7973949Y6644309D01*
X7977682Y6649059D01*
X7981950Y6653326D01*
X7986699Y6657060D01*
X7991881Y6660184D01*
X7997367Y6662673D01*
X8003133Y6664452D01*
X8009077Y6665544D01*
X8015122Y6665899D01*
X8190102Y6665899D01*
X8196148Y6665544D01*
X8202066Y6664452D01*
X8207832Y6662673D01*
X8213343Y6660184D01*
X8218525Y6657060D01*
X8223275Y6653326D01*
X8227542Y6649059D01*
X8231250Y6644309D01*
X8234375Y6639153D01*
X8236864Y6633641D01*
X8238667Y6627876D01*
X8239734Y6621932D01*
X8240115Y6615912D01*
X8240115Y6515912D01*
X8239734Y6509893D01*
X8238667Y6503949D01*
X8236864Y6498183D01*
X8234375Y6492671D01*
X8231250Y6487515D01*
X8227542Y6482765D01*
X8223275Y6478473D01*
X8218525Y6474764D01*
X8213343Y6471640D01*
X8207832Y6469151D01*
X8202066Y6467373D01*
X8196148Y6466281D01*
X8190102Y6465900D01*
X8015122Y6465900D01*
X8009077Y6466281D01*
X8003133Y6467373D01*
X7997367Y6469151D01*
X7991881Y6471640D01*
X7986699Y6474764D01*
X7981950Y6478473D01*
X7977682Y6482765D01*
X7973949Y6487515D01*
X7970824Y6492671D01*
X7968361Y6498183D01*
X7966557Y6503949D01*
X7965465Y6509893D01*
X7965109Y6515912D01*
G37*
G36*
X7965109Y6869912D02*
G01*
X7965465Y6875932D01*
X7966557Y6881876D01*
X7968361Y6887641D01*
X7970824Y6893153D01*
X7973949Y6898309D01*
X7977682Y6903059D01*
X7981950Y6907326D01*
X7986699Y6911060D01*
X7991881Y6914184D01*
X7997367Y6916673D01*
X8003133Y6918452D01*
X8009077Y6919544D01*
X8015122Y6919899D01*
X8190102Y6919899D01*
X8196148Y6919544D01*
X8202066Y6918452D01*
X8207832Y6916673D01*
X8213343Y6914184D01*
X8218525Y6911060D01*
X8223275Y6907326D01*
X8227542Y6903059D01*
X8231250Y6898309D01*
X8234375Y6893153D01*
X8236864Y6887641D01*
X8238667Y6881876D01*
X8239734Y6875932D01*
X8240115Y6869912D01*
X8240115Y6769912D01*
X8239734Y6763893D01*
X8238667Y6757949D01*
X8236864Y6752183D01*
X8234375Y6746671D01*
X8231250Y6741515D01*
X8227542Y6736765D01*
X8223275Y6732473D01*
X8218525Y6728764D01*
X8213343Y6725640D01*
X8207832Y6723151D01*
X8202066Y6721373D01*
X8196148Y6720281D01*
X8190102Y6719900D01*
X8015122Y6719900D01*
X8009077Y6720281D01*
X8003133Y6721373D01*
X7997367Y6723151D01*
X7991881Y6725640D01*
X7986699Y6728764D01*
X7981950Y6732473D01*
X7977682Y6736765D01*
X7973949Y6741515D01*
X7970824Y6746671D01*
X7968361Y6752183D01*
X7966557Y6757949D01*
X7965465Y6763893D01*
X7965109Y6769912D01*
G37*
G36*
X7965109Y7123912D02*
G01*
X7965465Y7129932D01*
X7966557Y7135876D01*
X7968361Y7141641D01*
X7970824Y7147153D01*
X7973949Y7152309D01*
X7977682Y7157059D01*
X7981950Y7161326D01*
X7986699Y7165060D01*
X7991881Y7168184D01*
X7997367Y7170673D01*
X8003133Y7172452D01*
X8009077Y7173544D01*
X8015122Y7173899D01*
X8190102Y7173899D01*
X8196148Y7173544D01*
X8202066Y7172452D01*
X8207832Y7170673D01*
X8213343Y7168184D01*
X8218525Y7165060D01*
X8223275Y7161326D01*
X8227542Y7157059D01*
X8231250Y7152309D01*
X8234375Y7147153D01*
X8236864Y7141641D01*
X8238667Y7135876D01*
X8239734Y7129932D01*
X8240115Y7123912D01*
X8240115Y7023912D01*
X8239734Y7017893D01*
X8238667Y7011949D01*
X8236864Y7006183D01*
X8234375Y7000671D01*
X8231250Y6995515D01*
X8227542Y6990765D01*
X8223275Y6986473D01*
X8218525Y6982764D01*
X8213343Y6979640D01*
X8207832Y6977151D01*
X8202066Y6975373D01*
X8196148Y6974281D01*
X8190102Y6973900D01*
X8015122Y6973900D01*
X8009077Y6974281D01*
X8003133Y6975373D01*
X7997367Y6977151D01*
X7991881Y6979640D01*
X7986699Y6982764D01*
X7981950Y6986473D01*
X7977682Y6990765D01*
X7973949Y6995515D01*
X7970824Y7000671D01*
X7968361Y7006183D01*
X7966557Y7011949D01*
X7965465Y7017893D01*
X7965109Y7023912D01*
G37*
G36*
X7965109Y7377912D02*
G01*
X7965465Y7383932D01*
X7966557Y7389876D01*
X7968361Y7395641D01*
X7970824Y7401153D01*
X7973949Y7406309D01*
X7977682Y7411059D01*
X7981950Y7415326D01*
X7986699Y7419060D01*
X7991881Y7422184D01*
X7997367Y7424673D01*
X8003133Y7426452D01*
X8009077Y7427544D01*
X8015122Y7427899D01*
X8190102Y7427899D01*
X8196148Y7427544D01*
X8202066Y7426452D01*
X8207832Y7424673D01*
X8213343Y7422184D01*
X8218525Y7419060D01*
X8223275Y7415326D01*
X8227542Y7411059D01*
X8231250Y7406309D01*
X8234375Y7401153D01*
X8236864Y7395641D01*
X8238667Y7389876D01*
X8239734Y7383932D01*
X8240115Y7377912D01*
X8240115Y7277912D01*
X8239734Y7271893D01*
X8238667Y7265949D01*
X8236864Y7260183D01*
X8234375Y7254671D01*
X8231250Y7249515D01*
X8227542Y7244765D01*
X8223275Y7240473D01*
X8218525Y7236764D01*
X8213343Y7233640D01*
X8207832Y7231151D01*
X8202066Y7229373D01*
X8196148Y7228281D01*
X8190102Y7227900D01*
X8015122Y7227900D01*
X8009077Y7228281D01*
X8003133Y7229373D01*
X7997367Y7231151D01*
X7991881Y7233640D01*
X7986699Y7236764D01*
X7981950Y7240473D01*
X7977682Y7244765D01*
X7973949Y7249515D01*
X7970824Y7254671D01*
X7968361Y7260183D01*
X7966557Y7265949D01*
X7965465Y7271893D01*
X7965109Y7277912D01*
G37*
D12*
G01*
X11442700Y-4247794D03*
G01*
X11188700Y-4247794D03*
G01*
X10934700Y-4247794D03*
D13*
G01*
X10628706Y-4997780D03*
G01*
X11748693Y-4997805D03*
D12*
G01*
X11455400Y-1428394D03*
G01*
X11201400Y-1428394D03*
G01*
X10947400Y-1428394D03*
D13*
G01*
X10641406Y-2178380D03*
G01*
X11761393Y-2178405D03*
D12*
G01*
X11455400Y1327505D03*
G01*
X11201400Y1327505D03*
G01*
X10947400Y1327505D03*
D13*
G01*
X10641406Y577519D03*
G01*
X11761393Y577494D03*
D12*
G01*
X11468100Y4159605D03*
G01*
X11214100Y4159605D03*
G01*
X10960100Y4159605D03*
D13*
G01*
X10654106Y3409619D03*
G01*
X11774093Y3409594D03*
D12*
G01*
X8915400Y-4247794D03*
G01*
X8661400Y-4247794D03*
G01*
X8407400Y-4247794D03*
D13*
G01*
X8101406Y-4997780D03*
G01*
X9221393Y-4997805D03*
D12*
G01*
X8890000Y-1453794D03*
G01*
X8636000Y-1453794D03*
G01*
X8382000Y-1453794D03*
D13*
G01*
X8076006Y-2203780D03*
G01*
X9195993Y-2203805D03*
D12*
G01*
X8902700Y1327505D03*
G01*
X8648700Y1327505D03*
G01*
X8394700Y1327505D03*
D13*
G01*
X8088706Y577519D03*
G01*
X9208693Y577494D03*
D12*
G01*
X8877300Y4134205D03*
G01*
X8623300Y4134205D03*
G01*
X8369300Y4134205D03*
D13*
G01*
X8063306Y3384219D03*
G01*
X9183293Y3384194D03*
D12*
G01*
X3733800Y4134205D03*
G01*
X3479800Y4134205D03*
G01*
X3225800Y4134205D03*
D13*
G01*
X2919806Y3384219D03*
G01*
X4039793Y3384194D03*
D12*
G01*
X3733800Y1327505D03*
G01*
X3479800Y1327505D03*
G01*
X3225800Y1327505D03*
D13*
G01*
X2919806Y577519D03*
G01*
X4039793Y577494D03*
D12*
G01*
X3733800Y-1453794D03*
G01*
X3479800Y-1453794D03*
G01*
X3225800Y-1453794D03*
D13*
G01*
X2919806Y-2203780D03*
G01*
X4039793Y-2203805D03*
D12*
G01*
X3733800Y-4260494D03*
G01*
X3479800Y-4260494D03*
G01*
X3225800Y-4260494D03*
D13*
G01*
X2919806Y-5010480D03*
G01*
X4039793Y-5010505D03*
D12*
G01*
X6273800Y4146905D03*
G01*
X6019800Y4146905D03*
G01*
X5765800Y4146905D03*
D13*
G01*
X5459806Y3396919D03*
G01*
X6579793Y3396894D03*
D12*
G01*
X6261100Y1340205D03*
G01*
X6007100Y1340205D03*
G01*
X5753100Y1340205D03*
D13*
G01*
X5447106Y590219D03*
G01*
X6567093Y590194D03*
D12*
G01*
X6273800Y-1428394D03*
G01*
X6019800Y-1428394D03*
G01*
X5765800Y-1428394D03*
D13*
G01*
X5459806Y-2178380D03*
G01*
X6579793Y-2178405D03*
D12*
G01*
X6273800Y-4235094D03*
G01*
X6019800Y-4235094D03*
G01*
X5765800Y-4235094D03*
D13*
G01*
X5459806Y-4985080D03*
G01*
X6579793Y-4985105D03*
D14*
G01*
X11328400Y5334000D03*
G01*
X11049000Y5080000D03*
G01*
X10845800Y4838700D03*
G01*
X6578600Y7327900D03*
G01*
X6578600Y7073900D03*
G01*
X6578600Y6819900D03*
G01*
X6578600Y6565900D03*
G01*
X6578600Y6311900D03*
G01*
X6578600Y6057900D03*
G01*
X6578600Y5803900D03*
G01*
X8102600Y7327900D03*
G01*
X8102600Y7073900D03*
G01*
X8102600Y6565900D03*
G01*
X8102600Y6311900D03*
G01*
X8102600Y6057900D03*
G01*
X8102600Y5803900D03*
G01*
X5435600Y5461000D03*
G01*
X4762500Y6743700D03*
G01*
X10934700Y7302500D03*
G01*
X10655300Y7086600D03*
G01*
X10972800Y6083300D03*
G01*
X4445000Y5168900D03*
G01*
X10604500Y3822700D03*
D15*
G01*
X4978400Y5880100D03*
G01*
X6210300Y5588000D03*
G01*
X5334000Y5626100D03*
M02*
